<!DOCTYPE svg PUBLIC "-//W3C//DTD SVG 1.1//EN" "http://www.w3.org/Graphics/SVG/1.1/DTD/svg11.dtd">
<!-- Uploaded to: SVG Repo, www.svgrepo.com, Transformed by: SVG Repo Mixer Tools -->
<svg width="173px" height="173px" viewBox="-10.88 -10.88 53.76 53.76" enable-background="new 0 0 32 32" version="1.1" xml:space="preserve" xmlns="http://www.w3.org/2000/svg" xmlns:xlink="http://www.w3.org/1999/xlink" fill="#000000">
<g id="SVGRepo_bgCarrier" stroke-width="0">
<path transform="translate(-10.88, -10.88), scale(1.68)" d="M16,26.69964435034328C18.697115307775448,27.024526951355497,21.359914666606905,29.306531553126952,23.842068002393734,28.2024959986635C26.293994452836497,27.11190504314541,26.926109822532354,23.93282213770407,27.869053232922212,21.4204149900783C28.755664332601533,19.05810136716672,29.285749755016727,16.630560840938678,29.130387954191306,14.112135220454228C28.964755934076237,11.427228629424715,28.919960821492786,8.34341780864342,26.949371827448658,6.512315303267689C24.990405717958605,4.692012966314184,21.88701413818704,5.375824430912359,19.25009094445748,4.93120674523165C16.966976263724973,4.54624552682953,14.770408948848502,3.6282452808127728,12.49872688031561,4.075758816424903C10.103317838262036,4.547646139257439,7.641803433297713,5.53723197061006,6.194149522509571,7.503182193474791C4.777675124183945,9.426789858482495,4.669607778915141,12.024892773934122,4.893979943937204,14.403195383265333C5.087831132341236,16.457981399872768,6.660838765405125,18.003152025093733,7.36766775799417,19.94225404214355C8.158037037833285,22.110538989166525,7.467568049814649,25.026437425300138,9.284837810458967,26.44899632638212C11.08510446602212,27.85824519556731,13.730157161886797,26.42622910442879,16,26.69964435034328" fill="#fffbcc" strokewidth="0"/>
</g>
<g id="SVGRepo_tracerCarrier" stroke-linecap="round" stroke-linejoin="round"/>
<g id="SVGRepo_iconCarrier"> <g id="Files_Folder40"/> <g id="Files_Folder39"/> <g id="Files_Folder38"/> <g id="Files_Folder37"/> <g id="Files_Folder36"/> <g id="Files_Folder35"/> <g id="Files_Folder34"/> <g id="Files_Folder33"/> <g id="Files_Folder32"/> <g id="Files_Folder31"/> <g id="Files_Folder30"/> <g id="Files_Folder29"/> <g id="Files_Folder28"/> <g id="Files_Folder27"/> <g id="Files_Folder26"/> <g id="Files_Folder25"/> <g id="Files_Folder24"/> <g id="Files_Folder23"/> <g id="Files_Folder22"/> <g id="Files_Folder21"/> <g id="Files_Folder20"/> <g id="Files_Folder19"/> <g id="Files_Folder18"/> <g id="Files_Folder17"/> <g id="Files_Folder16"/> <g id="Files_Folder15"/> <g id="Files_Folder14"/> <g id="Files_Folder13"> <g> <g> <g> <path d="M27,6v22c0,1.65-1.35,3-3,3H8c-1.65,0-3-1.35-3-3V6c0-1.65,1.35-3,3-3h16C25.65,3,27,4.35,27,6z" fill="#FFC10A"/> </g> </g> <g> <g> <path d="M21,3v2c0,1.1-0.9,2-2,2h-6c-1.1,0-2-0.9-2-2V3c0-1.1,0.9-2,2-2h6C20.1,1,21,1.9,21,3z" fill="#FE9803"/> </g> </g> </g> <g> <path d="M14.6362,22c-0.0073,0-0.0142,0-0.0215,0c-0.3125-0.0068-0.6035-0.1592-0.7871-0.4116l-3.6362-5 c-0.3252-0.4468-0.2261-1.0723,0.2202-1.397c0.4463-0.3257,1.0728-0.2266,1.397,0.2202l2.8633,3.937l5.5459-6.9712 c0.3428-0.4312,0.9727-0.5049,1.4043-0.1602c0.4326,0.3438,0.5039,0.9731,0.1602,1.4053l-6.3633,8 C15.229,21.8613,14.9404,22,14.6362,22z" fill="#FE9803"/> </g> </g> <g id="Files_Folder12"/> <g id="Files_Folder11"/> <g id="Files_Folder10"/> <g id="Files_Folder09"/> <g id="Files_Folder08"/> <g id="Files_Folder07"/> <g id="Files_Folder06"/> <g id="Files_Folder05"/> <g id="Files_Folder04"/> <g id="Files_Folder03"/> <g id="Files_Folder02"/> <g id="Files_Folder01"/> </g>
</svg>