<!DOCTYPE svg PUBLIC "-//W3C//DTD SVG 1.1//EN" "http://www.w3.org/Graphics/SVG/1.1/DTD/svg11.dtd">
<!-- Uploaded to: SVG Repo, www.svgrepo.com, Transformed by: SVG Repo Mixer Tools -->
<svg width="173px" height="173px" viewBox="-15.04 -15.04 62.08 62.08" enable-background="new 0 0 32 32" version="1.1" xml:space="preserve" xmlns="http://www.w3.org/2000/svg" xmlns:xlink="http://www.w3.org/1999/xlink" fill="#000000">
<g id="SVGRepo_bgCarrier" stroke-width="0">
<path transform="translate(-15.04, -15.04), scale(1.94)" d="M16,28.743790570646524C18.831418686116013,28.883253723499674,21.93807664540665,28.991389669789818,24.156500541137092,27.22645987913444C26.346276619157596,25.484321669029036,26.55037896434343,22.369912566836142,27.373327961115223,19.69541826628278C28.180635320213124,17.071757578716667,30.111474148725666,14.271918145623998,28.900707401783997,11.808306069822738C27.68380005601106,9.332199388044252,23.771199458809928,9.977072426761477,21.70088816424594,8.15340060010379C19.242508373360213,5.987891492543661,19.223537073472603,1.0291765841260871,16.000000000000004,0.44448040053248405C12.925872471500245,-0.11311536859497906,11.11168026544373,3.9566433566816506,8.568487736300359,5.771400878484005C5.993444502609646,7.608886253167974,1.5792262986249281,8.019266737029712,1.0210828623552821,11.133054793738602C0.44455703468413665,14.349395110458444,4.74281306957908,16.25324636222766,6.162043766763347,19.19654575085588C7.2890138212395215,21.53373467928234,6.545069810303816,24.64369643144692,8.407111342240505,26.4507146726908C10.352023600994833,28.338154812402685,13.293094564262905,28.610460389421693,16,28.743790570646524" fill="#fffbcc" strokewidth="0"/>
</g>
<g id="SVGRepo_tracerCarrier" stroke-linecap="round" stroke-linejoin="round"/>
<g id="SVGRepo_iconCarrier"> <g id="Files_Folder40"/> <g id="Files_Folder39"/> <g id="Files_Folder38"/> <g id="Files_Folder37"> <g> <g> <path d="M28,6v16c0,0.55-0.45,1-1,1H5c-0.55,0-1-0.45-1-1V2c0-0.55,0.45-1,1-1h8.64c0.35,0,0.68,0.19,0.86,0.49 L16.57,5H27C27.55,5,28,5.45,28,6z" fill="#FFC10A"/> </g> <g> <path d="M31,22v8c0,0.55-0.45,1-1,1H2c-0.55,0-1-0.45-1-1v-8c0-0.55,0.45-1,1-1h28C30.55,21,31,21.45,31,22z" fill="#FE9803"/> </g> </g> <g> <g> <path d="M20,15h-8c-0.5522,0-1-0.4473-1-1s0.4478-1,1-1h8c0.5522,0,1,0.4473,1,1S20.5522,15,20,15z" fill="#FE9803"/> </g> </g> </g> <g id="Files_Folder36"/> <g id="Files_Folder35"/> <g id="Files_Folder34"/> <g id="Files_Folder33"/> <g id="Files_Folder32"/> <g id="Files_Folder31"/> <g id="Files_Folder30"/> <g id="Files_Folder29"/> <g id="Files_Folder28"/> <g id="Files_Folder27"/> <g id="Files_Folder26"/> <g id="Files_Folder25"/> <g id="Files_Folder24"/> <g id="Files_Folder23"/> <g id="Files_Folder22"/> <g id="Files_Folder21"/> <g id="Files_Folder20"/> <g id="Files_Folder19"/> <g id="Files_Folder18"/> <g id="Files_Folder17"/> <g id="Files_Folder16"/> <g id="Files_Folder15"/> <g id="Files_Folder14"/> <g id="Files_Folder13"/> <g id="Files_Folder12"/> <g id="Files_Folder11"/> <g id="Files_Folder10"/> <g id="Files_Folder09"/> <g id="Files_Folder08"/> <g id="Files_Folder07"/> <g id="Files_Folder06"/> <g id="Files_Folder05"/> <g id="Files_Folder04"/> <g id="Files_Folder03"/> <g id="Files_Folder02"/> <g id="Files_Folder01"/> </g>
</svg>