<!DOCTYPE svg PUBLIC "-//W3C//DTD SVG 1.1//EN" "http://www.w3.org/Graphics/SVG/1.1/DTD/svg11.dtd">
<!-- Uploaded to: SVG Repo, www.svgrepo.com, Transformed by: SVG Repo Mixer Tools -->
<svg width="174px" height="174px" viewBox="-16 -16 64.00 64.00" enable-background="new 0 0 32 32" version="1.1" xml:space="preserve" xmlns="http://www.w3.org/2000/svg" xmlns:xlink="http://www.w3.org/1999/xlink" fill="#000000">
<g id="SVGRepo_bgCarrier" stroke-width="0">
<path transform="translate(-16, -16), scale(2)" d="M16,28.78377604484558C19.289994930064047,29.008544678767848,22.928454557144974,29.386930069255484,25.47866772524833,27.296236314571487C28.039906135944054,25.196503940637918,28.18952619282933,21.511605834347893,28.833333861600067,18.262863012239645C29.495424894753736,14.921859796718492,30.62513803541426,11.468646799866324,29.23108244923078,8.361030986266481C27.751083195798522,5.061830344867733,24.72312120266995,2.6020660971208196,21.293719654284306,1.4556247849307447C17.928431676821603,0.33061649694067485,14.151044862971647,0.6324253833796183,11.001577900940772,2.2669481499317925C8.111398782719704,3.766904690228314,6.587488737993735,6.8233247059095,5.239577069770121,9.78746692463755C4.0309946987339265,12.44521528846025,3.3665090116277367,15.264622466229662,3.7765070842895394,18.15533159953853C4.1997399682951855,21.139353342296737,5.2748065487326645,24.0937373344871,7.549164577048689,26.071313475724626C9.851133284456715,28.072897367516774,12.956619120760827,28.575855796555587,16,28.78377604484558" fill="#fffad6" strokewidth="0"/>
</g>
<g id="SVGRepo_tracerCarrier" stroke-linecap="round" stroke-linejoin="round"/>
<g id="SVGRepo_iconCarrier"> <g id="Files_Folder40"/> <g id="Files_Folder39"/> <g id="Files_Folder38"/> <g id="Files_Folder37"/> <g id="Files_Folder36"/> <g id="Files_Folder35"/> <g id="Files_Folder34"/> <g id="Files_Folder33"/> <g id="Files_Folder32"/> <g id="Files_Folder31"/> <g id="Files_Folder30"/> <g id="Files_Folder29"/> <g id="Files_Folder28"/> <g id="Files_Folder27"/> <g id="Files_Folder26"/> <g id="Files_Folder25"/> <g id="Files_Folder24"/> <g id="Files_Folder23"/> <g id="Files_Folder22"/> <g id="Files_Folder21"/> <g id="Files_Folder20"/> <g id="Files_Folder19"/> <g id="Files_Folder18"> <g> <path d="M27,9v21c0,0.55-0.45,1-1,1H6c-0.55,0-1-0.45-1-1V2c0-0.55,0.45-1,1-1h14c0.29,0,0.57,0.13,0.76,0.35l6,7 C26.92,8.53,27,8.76,27,9z" fill="#FFC10A"/> </g> <g> <g> <path d="M21,19H11c-0.5522,0-1-0.4478-1-1s0.4478-1,1-1h10c0.5527,0,1,0.4478,1,1S21.5527,19,21,19z" fill="#FE9803"/> </g> <g> <path d="M20,25h-8c-0.5522,0-1-0.4478-1-1s0.4478-1,1-1h8c0.5527,0,1,0.4478,1,1S20.5527,25,20,25z" fill="#FE9803"/> </g> </g> </g> <g id="Files_Folder17"/> <g id="Files_Folder16"/> <g id="Files_Folder15"/> <g id="Files_Folder14"/> <g id="Files_Folder13"/> <g id="Files_Folder12"/> <g id="Files_Folder11"/> <g id="Files_Folder10"/> <g id="Files_Folder09"/> <g id="Files_Folder08"/> <g id="Files_Folder07"/> <g id="Files_Folder06"/> <g id="Files_Folder05"/> <g id="Files_Folder04"/> <g id="Files_Folder03"/> <g id="Files_Folder02"/> <g id="Files_Folder01"/> </g>
</svg>