<svg xmlns="http://www.w3.org/2000/svg" viewBox="0 0 107.1 199.65"><defs><style>.cls-1{isolation:isolate;}.cls-2,.cls-22{fill:#d2e4ff;}.cls-10,.cls-11,.cls-15,.cls-17,.cls-19,.cls-2,.cls-21,.cls-23,.cls-4{mix-blend-mode:multiply;}.cls-3{fill:#1b205e;}.cls-17,.cls-4{opacity:0.4;}.cls-17,.cls-19,.cls-20,.cls-5{fill:#1d255b;}.cls-6{fill:#fad0bf;}.cls-15,.cls-16,.cls-19,.cls-7{opacity:0.2;}.cls-16,.cls-8{fill:#fa7296;}.cls-23,.cls-9{fill:#cc5252;}.cls-10{opacity:0.3;}.cls-11{opacity:0.6;}.cls-12{fill:#7986b9;}.cls-13{fill:#fff;}.cls-14{fill:#5789e3;}.cls-18{fill:#4052a0;}.cls-20,.cls-23{opacity:0.5;}.cls-21{fill:#c87568;opacity:0.8;}.cls-24{fill:#65a1ff;}.cls-25{fill:#963e35;}.cls-26{fill:#ba5443;}</style></defs><g class="cls-1"><g id="Layer_2" data-name="Layer 2"><g id="OBJECTS"><path class="cls-2" d="M17.23,192.15c0,4.15,14.23,7.5,31.79,7.5s31.78-3.35,31.78-7.5-14.23-7.5-31.78-7.5S17.23,188,17.23,192.15Z"/><path class="cls-3" d="M35.64,48.87C34.76,47.48,33,46.18,29,50.49,27.59,52,27.07,63.72,27.07,63.72l-2.84,24-6.52,22.78s5.88,5.89,9.78,3.22a188.16,188.16,0,0,0,7.12-25.19C37.94,73.25,38.67,53.66,35.64,48.87Z"/><g class="cls-4"><path class="cls-5" d="M35.64,48.87C34.76,47.48,33,46.18,29,50.49,27.59,52,27.07,63.72,27.07,63.72l-2.84,24-6.52,22.78s5.88,5.89,9.78,3.22a188.16,188.16,0,0,0,7.12-25.19C37.94,73.25,38.67,53.66,35.64,48.87Z"/></g><g class="cls-4"><path class="cls-5" d="M27.49,91.81a3.92,3.92,0,0,0-3.36-3.73l.1-.37.17-1.38a2.25,2.25,0,0,0,.33-.08c12.68-3.56,7.2-24.52,7.69-34.11a4.69,4.69,0,0,0-1.25-3.62c2.5-1.8,3.77-.76,4.47.35,3,4.79,2.3,24.38-1,39.65a188.16,188.16,0,0,1-7.12,25.19,4.59,4.59,0,0,1-4.11.39C26.31,107,28.49,99.64,27.49,91.81Z"/></g><path class="cls-6" d="M26.21,113.71a3.56,3.56,0,0,1,.69,2.69,5.29,5.29,0,0,1-.29,1.86c.39.44,1.09.54,1.48,1.09a3.2,3.2,0,0,1,.65,1.79A2.76,2.76,0,0,1,27,124.08a8.14,8.14,0,0,1-1.54.13,5.74,5.74,0,0,1-1.71.14c-3.49-.47-5.42-1-6.58-3.74s.81-8.34,1.48-8.89c.24-.2.73-.12,1-.1a14.06,14.06,0,0,1,1.84.27,15.86,15.86,0,0,1,3.86,1.2A3.31,3.31,0,0,1,26.21,113.71Z"/><g class="cls-7"><path class="cls-8" d="M26.21,113.71a3.56,3.56,0,0,1,.69,2.69,5.29,5.29,0,0,1-.29,1.86c.39.44,1.09.54,1.48,1.09a3.2,3.2,0,0,1,.65,1.79A2.76,2.76,0,0,1,27,124.08a8.14,8.14,0,0,1-1.54.13,5.74,5.74,0,0,1-1.71.14c-3.49-.47-5.42-1-6.58-3.74s.81-8.34,1.48-8.89c.24-.2.73-.12,1-.1a14.06,14.06,0,0,1,1.84.27,15.86,15.86,0,0,1,3.86,1.2A3.31,3.31,0,0,1,26.21,113.71Z"/></g><g class="cls-7"><path class="cls-8" d="M28.19,119.51a16.25,16.25,0,0,0-4.19-.93,15.93,15.93,0,0,0-7.12,1.09c-.5-2.92,1.14-7.45,1.74-8,.24-.2.73-.12,1-.1a14.06,14.06,0,0,1,1.84.27,15.86,15.86,0,0,1,3.86,1.2,3.31,3.31,0,0,1,.88.62,3.56,3.56,0,0,1,.69,2.69,5.29,5.29,0,0,1-.29,1.86c.39.44,1.09.54,1.48,1.09A.86.86,0,0,0,28.19,119.51Z"/></g><path class="cls-8" d="M23.25,120.07v0a2,2,0,0,0-.27-.76,2.83,2.83,0,0,0-1.75-1.22,1.84,1.84,0,0,0-.39,0,1,1,0,0,0,0-.11s0-.13,0-.31a2.66,2.66,0,0,0,1.28-.1,4.38,4.38,0,0,0,.54-.23.67.67,0,0,1,.21.1,2,2,0,0,1,.47,1.64A4.47,4.47,0,0,1,23.25,120.07Z"/><path class="cls-8" d="M23.67,123.29a4.86,4.86,0,0,0,1.24-1.24,4.25,4.25,0,0,0,.39-.72,2.82,2.82,0,0,0,.26-.77,3.66,3.66,0,0,0-.08-1.84,2,2,0,0,0-.47-.81,1.42,1.42,0,0,0-.69-.33c-.45,0-.76.07-.78,0a1.24,1.24,0,0,1,.79-.25,1.43,1.43,0,0,1,.85.29,2.32,2.32,0,0,1,.66.92,4.19,4.19,0,0,1,.21,2.14,3.34,3.34,0,0,1-.27.94,3.75,3.75,0,0,1-.49.79,4.48,4.48,0,0,1-1.44,1.26,2.5,2.5,0,0,1-1.8.28,1.24,1.24,0,0,1-.74-.42c0-.05.31.13.77.18A2.47,2.47,0,0,0,23.67,123.29Z"/><path class="cls-8" d="M24.81,124a4.58,4.58,0,0,0,1.34-1,3.9,3.9,0,0,0,.48-.61,1.8,1.8,0,0,0,.12-.17,2.48,2.48,0,0,0,.24-.49,4.76,4.76,0,0,0,.24-1.79,1.91,1.91,0,0,0-.69-1.52c-.39-.22-.72-.17-.72-.24a.9.9,0,0,1,.8,0,2,2,0,0,1,1,1.7,5.29,5.29,0,0,1-.15,2,2.91,2.91,0,0,1-.27.64,1.48,1.48,0,0,1-.14.21,4.25,4.25,0,0,1-.57.65,4.62,4.62,0,0,1-1.53,1,2.75,2.75,0,0,1-1.75.11c-.47-.15-.72-.4-.7-.43s.3.13.74.2A2.75,2.75,0,0,0,24.81,124Z"/><path class="cls-8" d="M28.05,122.43a2.59,2.59,0,0,0,.15-.54,2.19,2.19,0,0,0,.1-.57,2.71,2.71,0,0,0-.16-1.25,6.29,6.29,0,0,0-1.1-1.54,2.49,2.49,0,0,1,1.44,1.34,3.16,3.16,0,0,1,.32,1.49,2.7,2.7,0,0,1-.08.7s0,.06,0,.18a2.36,2.36,0,0,1-.18.46,2.54,2.54,0,0,1-.92,1.08,2.1,2.1,0,0,1-1.8.31c0-.1.92-.1,1.59-.68A2.3,2.3,0,0,0,28.05,122.43Z"/><rect class="cls-9" x="9.33" y="85.63" width="27.94" height="39.17" transform="translate(-83.26 89.14) rotate(-68.94)"/><g class="cls-10"><polygon class="cls-9" points="10.28 86.14 0.55 111.42 0 111.21 10.04 85.14 46.59 99.22 46.28 100.01 10.28 86.14"/></g><g class="cls-11"><polygon class="cls-9" points="10.04 85.14 46.59 99.22 36.55 125.29 10.04 85.14"/></g><g class="cls-10"><rect class="cls-12" x="1.71" y="97.25" width="9.45" height="3.08" transform="translate(-88.07 69.3) rotate(-68.94)"/></g><g class="cls-10"><rect class="cls-12" x="0.29" y="96.04" width="9.45" height="4.9" transform="translate(-88.69 67.77) rotate(-68.93)"/></g><rect class="cls-13" x="0.1" y="96.51" width="9.45" height="4.9" transform="translate(-89.24 67.88) rotate(-68.92)"/><rect class="cls-14" x="0.1" y="96.51" width="9.45" height="4.9" transform="translate(-89.24 67.88) rotate(-68.92)"/><g class="cls-15"><polyline class="cls-14" points="5.42 104.25 8.81 95.43 4.24 93.67"/></g><path class="cls-6" d="M24.55,117.41c.37.1.87.4.94.78a4,4,0,0,1,2.6,1.16,3.2,3.2,0,0,1,.65,1.79A2.76,2.76,0,0,1,27,124.08a8.14,8.14,0,0,1-1.54.13,5.74,5.74,0,0,1-1.71.14c-2-.28-4.25-.58-5.72-2.15-1.91-2,2.07-1.61,2.62-3.11.25-.7.06-1.42.85-1.76.39-.17,2-.2,1.79.51A1.06,1.06,0,0,1,24.55,117.41Z"/><path class="cls-16" d="M27.73,119a6.75,6.75,0,0,0-.62-.37,4.87,4.87,0,0,0-1.62-.44c-.07-.38-.57-.68-.94-.78a1.06,1.06,0,0,0-1.29.43c.18-.71-1.4-.68-1.79-.51-.63.27-.64.79-.75,1.34a15.58,15.58,0,0,1,3.28-.09,16.25,16.25,0,0,1,4.19.93.86.86,0,0,1-.1-.16,2.06,2.06,0,0,0-.33-.33Z"/><path class="cls-8" d="M23.28,117.45a1.93,1.93,0,0,0-.25-.24,1.22,1.22,0,0,0-1.32,0c.15-.16,1.27.26,1.39.4a2.1,2.1,0,0,1,.28,1.43,4.47,4.47,0,0,1-1.86,3.58,1.94,1.94,0,0,1-.77.3,2.81,2.81,0,0,1-1.58-.3c-.42-.21-.67-.44-.7-.4a1.7,1.7,0,0,0,.61.61,2.8,2.8,0,0,0,1.72.53,2.15,2.15,0,0,0,.95-.29,5.05,5.05,0,0,0,.7-.5c.19-.2.35-.35.45-.47l.13-.21a4.16,4.16,0,0,0,.41-.82c0-.13.1-.27.15-.42s.07-.32.1-.5a4.87,4.87,0,0,0,.08-1.09A2.69,2.69,0,0,0,23.28,117.45Z"/><path class="cls-8" d="M23.67,123.29a4.86,4.86,0,0,0,1.24-1.24,4.25,4.25,0,0,0,.39-.72,2.82,2.82,0,0,0,.26-.77,3.66,3.66,0,0,0-.08-1.84,2,2,0,0,0-.47-.81,1.42,1.42,0,0,0-.69-.33c-.45,0-.76.07-.78,0a1.24,1.24,0,0,1,.79-.25,1.43,1.43,0,0,1,.85.29,2.32,2.32,0,0,1,.66.92,4.19,4.19,0,0,1,.21,2.14,3.34,3.34,0,0,1-.27.94,3.75,3.75,0,0,1-.49.79,4.48,4.48,0,0,1-1.44,1.26,2.5,2.5,0,0,1-1.8.28,1.24,1.24,0,0,1-.74-.42c0-.05.31.13.77.18A2.47,2.47,0,0,0,23.67,123.29Z"/><path class="cls-8" d="M24.81,124a4.58,4.58,0,0,0,1.34-1,3.9,3.9,0,0,0,.48-.61,1.8,1.8,0,0,0,.12-.17,2.48,2.48,0,0,0,.24-.49,4.76,4.76,0,0,0,.24-1.79,1.91,1.91,0,0,0-.69-1.52c-.39-.22-.72-.17-.72-.24a.9.9,0,0,1,.8,0,2,2,0,0,1,1,1.7,5.29,5.29,0,0,1-.15,2,2.91,2.91,0,0,1-.27.64,1.48,1.48,0,0,1-.14.21,4.25,4.25,0,0,1-.57.65,4.62,4.62,0,0,1-1.53,1,2.75,2.75,0,0,1-1.75.11c-.47-.15-.72-.4-.7-.43s.3.13.74.2A2.75,2.75,0,0,0,24.81,124Z"/><path class="cls-8" d="M28.05,122.43a2.59,2.59,0,0,0,.15-.54,2.19,2.19,0,0,0,.1-.57,2.71,2.71,0,0,0-.16-1.25,6.29,6.29,0,0,0-1.1-1.54,2.49,2.49,0,0,1,1.44,1.34,3.16,3.16,0,0,1,.32,1.49,2.7,2.7,0,0,1-.08.7s0,.06,0,.18a2.36,2.36,0,0,1-.18.46,2.54,2.54,0,0,1-.92,1.08,2.1,2.1,0,0,1-1.8.31c0-.1.92-.1,1.59-.68A2.3,2.3,0,0,0,28.05,122.43Z"/><path class="cls-3" d="M35.6,177.58c0,.5-.75,5.21-.75,5.21s-11.91,8.59-10.78,9.83,12.22-4.34,13.85-6.64l1.58-8.56Z"/><path class="cls-17" d="M35.6,177.58c0,.5-.75,5.21-.75,5.21l-.08.06a3.91,3.91,0,0,1-1,3.56,5,5,0,0,1-2.07,2.25,5.12,5.12,0,0,1-.58.28,6.33,6.33,0,0,1-2.95,1.3,4.36,4.36,0,0,1-2.34-.25c-1.31,1.24-2.13,2.26-1.79,2.63,1.12,1.23,12.22-4.34,13.85-6.64l1.58-8.56Z"/><path class="cls-3" d="M65.56,181.2c0,.51.55,5.24.55,5.24s11.58,9,10.41,10.22-12-4.8-13.59-7.15l-1.26-8.61Z"/><path class="cls-17" d="M75.31,194.48a6,6,0,0,1-3.18-.55,13.53,13.53,0,0,1-5.86-5,3.28,3.28,0,0,1-.2-2.91c-.13-1.12-.51-4.44-.51-4.86l-3.89-.3,1.26,8.61c1.54,2.35,12.41,8.35,13.59,7.15C76.82,196.36,76.28,195.53,75.31,194.48Z"/><path class="cls-18" d="M35.88,98.38s-1.6,29.12-1.79,33.18-.75,10.62-1,15.69,1.29,27,1.84,31.57a4.6,4.6,0,0,0,4.57,0s3.18-19.41,3.79-27,5-26.93,5-26.93,6.14,21.11,6.71,25.2S61,181.8,61,181.8s4.14,3.75,5.86-.49c0,0-1-23.15-1.33-31.55S62,121.93,62.42,117.38s-1.83-15.32-1.87-19.89S39.36,94.48,35.88,98.38Z"/><path class="cls-19" d="M65.41,148.39a6.33,6.33,0,0,1-7-1.18C52,140.94,52,130,51.73,121.62c-.11-3,3-5.44,5.83-5.3a4.89,4.89,0,0,1,.68.07,5.59,5.59,0,0,1,4.19.81c.4-4.64-1.84-15.2-1.88-19.71s-21.19-3-24.67.89c0,0-.47,8.62-.94,17.13,2.7-.43,5.54,1.22,7,3.69,3,4.92,1.82,10.2,1.35,15.58-.41,4.68-.07,10.34-3.28,14.17-1.7,2-4.55,3.16-6.92,2.14.23,8.13,1.36,23.91,1.82,27.73a4.6,4.6,0,0,0,4.57,0s3.18-19.41,3.79-27,5-26.93,5-26.93,6.14,21.11,6.71,25.2S61,181.8,61,181.8s4.14,3.75,5.86-.49c0,0-1-23.15-1.33-31.55C65.47,149.34,65.44,148.87,65.41,148.39Z"/><path class="cls-20" d="M44.21,112.62a8.54,8.54,0,0,0-1.69-.71,5.83,5.83,0,0,1-.83-.23,2.75,2.75,0,0,1,.87.06,6.66,6.66,0,0,1,1.81.59,9.59,9.59,0,0,1,1.63,1c.41.32.67.55.67.55A13.81,13.81,0,0,1,48.45,116a8.35,8.35,0,0,1,1.22,2.47c-.06,0-.66-1.2-1.5-2.27a14.68,14.68,0,0,0-1.82-2s-.24-.23-.63-.56A10.06,10.06,0,0,0,44.21,112.62Zm1.71,3.54.57.43.57.45c.35.26.76.66,1.18,1,.82.82,1.47,1.79,1.54,1.75a7.65,7.65,0,0,0-1.29-2,12.43,12.43,0,0,0-1.15-1.15l-.55-.49-.62-.42a15.46,15.46,0,0,0-1.39-.83,9.3,9.3,0,0,0-2.18-.88c0,.07,1,.57,2,1.17C45.09,115.58,45.59,115.88,45.92,116.16Zm10,34.4c-.45-1.67-1.12-3.86-1.78-6.07-1.34-4.39-2.63-8.79-2.63-8.79s-.32-1.1-.79-2.75-1-3.87-1.59-6.08-1-4.47-1.19-6.17c-.14-.85-.25-1.56-.33-2a4.19,4.19,0,0,0-.16-.78,7.37,7.37,0,0,0,.06.79c.06.5.14,1.21.24,2.06.11,1.18.37,2.61.65,4.12l-.2.42c-.15.38-.42.9-.65,1.56a43,43,0,0,0-1.54,4.87c-.44,1.81-.8,3.63-1,5s-.38,2.29-.38,2.29l-1,7.37c-.25,1.84-.54,3.67-.79,5-.12.68-.25,1.25-.32,1.65a3.2,3.2,0,0,0-.09.63,4.45,4.45,0,0,0,.19-.61c.1-.39.26-1,.4-1.64.31-1.36.65-3.19,1-5,.55-3.67,1.11-7.35,1.11-7.35s.14-.92.34-2.29.54-3.19.94-5a50,50,0,0,1,1.38-4.89c.2-.67.44-1.2.57-1.58.06-.15.1-.27.13-.37.13.66.26,1.34.38,2,.53,2.23,1,4.48,1.5,6.13l.75,2.76s1.34,4.4,2.77,8.77c.7,2.18,1.42,4.36,1.92,6l.63,2a7.67,7.67,0,0,0,.27.75,4.18,4.18,0,0,0-.18-.77C56.38,152.08,56.2,151.39,56,150.56Zm8.17-4.92c.27,2.5.53,5,.53,5s.07.62.17,1.56.2,2.19.3,3.45.14,2.51.12,3.45a12.17,12.17,0,0,0,.06,1.58,9.87,9.87,0,0,0,.13-1.58c.07-.94,0-2.21,0-3.47s-.1-2.53-.2-3.47-.13-1.57-.13-1.57-.31-2.5-.68-5c-.18-1.24-.35-2.49-.49-3.42a9.36,9.36,0,0,0-.27-1.55,11.74,11.74,0,0,0,.09,1.57C63.87,143.14,64,144.39,64.14,145.64ZM60.35,111c0-.06-1.2-.88-2.35-1.81a26.75,26.75,0,0,1-2.13-2l-.61-.67L55,106.2c-.1-.12-.2-.26-.3-.39-.2-.28-.43-.56-.64-.86-.81-1.22-1.33-2.61-1.41-2.58a4.11,4.11,0,0,0,.26.89,12,12,0,0,0,.87,1.86c.19.32.41.63.6.92s.19.29.29.42.19.24.29.35l.6.72a21.27,21.27,0,0,0,2.27,2c.62.42,1.22.85,1.72,1.12A3.38,3.38,0,0,0,60.35,111Zm-22.29-6.5a9.72,9.72,0,0,0,0-1.46,5.54,5.54,0,0,0-.47-2.06c-.07,0,.16,1,.13,2.07a12.66,12.66,0,0,1-.13,1.4c0,.38-.09.64-.09.64s-.05.25-.11.63-.2.87-.32,1.37c-.29,1-.76,1.92-.7,2a6.34,6.34,0,0,0,1-1.85,13.15,13.15,0,0,0,.43-1.39l.15-.65S38,104.92,38.06,104.52Zm4.24.53c0,.37.06.62.06.62l0,.17c0,.11.07.26.11.44a11.39,11.39,0,0,0,.42,1.31,6.77,6.77,0,0,0,.33.66l.16.3a2.15,2.15,0,0,0,.18.24c.23.3.39.48.42.46a2.27,2.27,0,0,0-.26-.56,2,2,0,0,1-.14-.25l-.12-.31a5.66,5.66,0,0,1-.25-.66,10.31,10.31,0,0,1-.31-1.29c0-.17-.06-.32-.08-.42a1.06,1.06,0,0,1,0-.17l-.1-.59c-.07-.35-.09-.84-.15-1.32-.06-1,0-1.94-.08-2a6.59,6.59,0,0,0-.26,2C42.26,104.18,42.25,104.68,42.3,105.05Zm2.58.63a15.42,15.42,0,0,0,.62,2,7.32,7.32,0,0,0,1,1.83c.07,0-.4-1-.71-2a18,18,0,0,1-.47-2s0-.26-.11-.63-.12-.89-.19-1.4c-.1-1-.1-2.06-.17-2.07a8.19,8.19,0,0,0-.17,2.09A16.78,16.78,0,0,0,44.88,105.68ZM36.21,177c0-.8-.14-1.92-.08-3.28,0-2.72.29-6.33.42-10,0-1.81.11-3.63.12-5.32s0-3.29,0-4.65c0-2.72,0-4.53,0-4.53s0-.46,0-1.25v-5.46c0-.78,0-1.59,0-2.44s0-1.72.05-2.61.09-1.79.14-2.69l.15-2.69c0-.22,0-.44,0-.66s0-.44.07-.66c0-.43.09-.86.14-1.28.09-.84.17-1.65.25-2.43,0-.38.09-.76.12-1.12s.12-.71.18-1c.23-1.34.41-2.45.54-3.23.06-.39.11-.7.14-.91a1.92,1.92,0,0,0,0-.32,1.11,1.11,0,0,0-.08.31c0,.21-.11.51-.19.9-.15.78-.37,1.89-.63,3.22-.07.33-.13.68-.2,1s-.09.74-.14,1.12q-.15,1.17-.3,2.43c0,.42-.1.85-.16,1.29,0,.21-.05.43-.08.65s0,.44,0,.66c-.07.89-.13,1.8-.19,2.7s-.14,1.81-.17,2.7,0,1.76-.08,2.61,0,1.67-.07,2.44,0,1.52,0,2.2c0,1.35,0,2.48,0,3.28s0,1.24,0,1.24,0,1.81,0,4.53c0,1.36,0,2.94,0,4.64s0,3.51-.06,5.32c-.08,3.62-.36,7.25-.27,10,0,1.36.13,2.49.18,3.29,0,.39.06.7.08.91a1.68,1.68,0,0,0,0,.33,1.41,1.41,0,0,0,0-.33C36.24,177.75,36.23,177.44,36.21,177Zm29.19,2.45c0-.21-.11-.52-.19-.9s-.15-.87-.24-1.41-.16-1.16-.23-1.84c-.15-1.35-.24-2.93-.28-4.62,0-.85,0-1.73-.06-2.62,0-.44,0-.9,0-1.35s-.06-.9-.08-1.36l-.18-2.7c-.06-.89-.11-1.77-.22-2.61-.19-1.69-.37-3.27-.52-4.63-.39-2.69-.64-4.49-.64-4.49l-.19-1.22c-.13-.79-.32-1.9-.54-3.24-.11-.67-.25-1.39-.35-2.16s-.22-1.58-.33-2.41-.23-1.71-.35-2.59-.19-1.78-.28-2.68c-.18-1.8-.36-3.6-.53-5.28s-.31-3.27-.52-4.61l-.46-3.24c-.06-.4-.11-.7-.14-.91a2.92,2.92,0,0,0-.06-.32,1.11,1.11,0,0,0,0,.32c0,.21.06.53.1.92.09.78.21,1.91.37,3.25s.27,2.93.43,4.61l.47,5.29.24,2.69c.11.89.22,1.76.33,2.6s.21,1.66.3,2.43.23,1.49.33,2.16c.22,1.34.39,2.46.52,3.24s.18,1.23.18,1.23.27,1.79.67,4.47c.17,1.35.36,2.92.56,4.61.12.84.18,1.71.25,2.6l.21,2.69c0,.45.08.9.1,1.35s0,.9,0,1.35c0,.89.06,1.77.09,2.62.07,1.7.19,3.28.36,4.63.09.68.17,1.3.28,1.84s.18,1,.29,1.41.18.68.23.89.1.31.1.31A1.47,1.47,0,0,0,65.4,179.49Z"/><path class="cls-21" d="M53.81,17.76c3.74-.64,7.33-1.93,9.56-5.63a7.89,7.89,0,0,1-1,2s-.69,5.13-1.2,7.35a3.74,3.74,0,0,0-2.73,1.53,3.67,3.67,0,0,0-1,2.57l-2.56-.52.77-6.32A6.11,6.11,0,0,1,53.81,17.76Z"/><path class="cls-2" d="M40.79,49.36c.17-.37.32-.74.47-1.12a6.37,6.37,0,0,0-.11,2.07S41,50,40.79,49.36Z"/><path class="cls-19" d="M35.24,110l.64-11.6c3.48-3.9,24.63-5.46,24.67-.89,0,2.54.74,7,1.29,11.22a22.14,22.14,0,0,1-17.75-4.63A19,19,0,0,1,35.24,110Z"/><path class="cls-3" d="M69,48.77s-9.22-5.9-20-5.9-16.66,3.85-19.22,5.9S28.2,70,30.77,76.45A62.74,62.74,0,0,1,34.1,91.57c.25,3.08-.64,14.23-.64,14.23a19,19,0,0,0,10.63-5.9,23.34,23.34,0,0,0,19,4.1,152.47,152.47,0,0,1-1.54-21.66C61.78,72.86,68.7,53.9,69,48.77Z"/><path class="cls-17" d="M34.1,91.57a70.23,70.23,0,0,0-1.48-9,18.86,18.86,0,0,0,13.79,2.15c8.52-1.89,14.92-10.7,16.22-19a54.26,54.26,0,0,0,0-18.81,12.58,12.58,0,0,0-.32-1.38l.72.28.2.08.49.21.25.11.41.17.26.12.35.16.26.12.32.15.25.12.29.14.23.12a2.1,2.1,0,0,1,.26.13l.22.11.24.12.2.11.21.11.18.1.19.1.15.08.16.1.13.07.14.08.1.06.12.07.07,0,.09.06,0,0,.07,0h0l0,0c-.25,5.13-7.17,24.09-7.43,33.57A152.47,152.47,0,0,0,63.06,104c-.42.09-.83.16-1.24.22l-.36,0-.88.1-.35,0-1,.06h-.18c-.4,0-.8,0-1.19,0a11.07,11.07,0,0,0,.08-1.3v-.09a12.07,12.07,0,0,0-24.14,0v.09a11.92,11.92,0,0,0,.26,2.48,5.42,5.42,0,0,1-.58.11h0S34.35,94.65,34.1,91.57Z"/><path class="cls-18" d="M30.77,76.32a4,4,0,0,0-.09-.58c-.08-.37-.18-.9-.31-1.53s-.26-1.36-.4-2.15-.32-1.63-.41-2.48c-.2-1.7-.45-3.39-.5-4.67s-.16-2.14-.16-2.14,0-.21,0-.58,0-.9,0-1.54,0-1.38,0-2.18.08-1.65.12-2.5.14-1.7.2-2.5.13-1.55.2-2.18.1-1.17.13-1.55a2.44,2.44,0,0,0,0-.59,4.55,4.55,0,0,0-.11.58c-.06.37-.14.9-.23,1.54s-.19,1.37-.28,2.17-.21,1.65-.27,2.5-.12,1.71-.18,2.52,0,1.55,0,2.2a15.22,15.22,0,0,0,0,1.55c0,.38,0,.59,0,.59s.08.86.19,2.14.37,3,.62,4.69c.11.85.32,1.69.47,2.48s.31,1.53.49,2.14.3,1.15.39,1.51A2.67,2.67,0,0,0,30.77,76.32Z"/><path class="cls-18" d="M44.11,99.91c.14,0,0-5.28,0-5.28s0-1.3-.09-2.62a16.57,16.57,0,0,0-.18-2.62A19.83,19.83,0,0,0,43.72,92c0,.66,0,1.32,0,1.81s0,.83,0,.83S44,99.91,44.11,99.91Z"/><path class="cls-22" d="M56.4,42.87S52.3,53.38,50.25,58s-2.57,14.86-3.34,17.17-2.47,11-2.47,11a45.07,45.07,0,0,1-6.75-15.56c-2-9.23,0-21.53,3.58-26.4S51.53,40.06,56.4,42.87Z"/><path class="cls-2" d="M56.4,42.87S52.3,53.38,50.25,58s-2.57,14.86-3.34,17.17-2.47,11-2.47,11a45.07,45.07,0,0,1-6.75-15.56c-2-9.23,0-21.53,3.58-26.4S51.53,40.06,56.4,42.87Z"/><path class="cls-9" d="M49,47s-1.28,3.2-3.07,4.22c0,0,.51,7,.77,12.44s-2.4,23.87-2.4,23.87S40,75.42,39.22,70,43.07,51,43.07,51s-1.92-.77-1.41-4.62S48.19,39.8,49,47Z"/><path class="cls-23" d="M43.29,67.17c.34-4.78,1.64-9.73.4-14.47a2.15,2.15,0,0,0-.8-1.21c.11-.34.18-.54.18-.54a2.9,2.9,0,0,1-1.42-2.37,4.18,4.18,0,0,0,2,.73,3.13,3.13,0,0,0,1.91-.48A3.07,3.07,0,0,0,47,46.38a3.34,3.34,0,0,0-.63-2.07,2.42,2.42,0,0,0-1.34-1,2.24,2.24,0,0,0-1.72.23,2.61,2.61,0,0,0-.28.17c2-1.92,5.37-2,5.93,3.3,0,0-1.28,3.2-3.07,4.22,0,0,.51,7,.77,12.44s-2.4,23.87-2.4,23.87-.69-2-1.57-4.65C43,77.64,42.92,72.39,43.29,67.17Z"/><path class="cls-17" d="M35.83,51.94c4.78-11.69,7.47-9.77,7.47-9.77a53.13,53.13,0,0,0-3.76,23.16A104,104,0,0,0,44.18,89c.44-5.22,1.6-17.83,3.17-25.28,2-9.55,8.84-18,7.83-22.8,0,0,4.61,2.4,4.44,7s-1.85,14.33-3.7,16.35-5.71,1-5.71,1,3.53,5.79,2.18,9.69a52,52,0,0,1-3.75,7.73l-2.47,4.5c-.75,1.38-1.1,2.9-2.15,4.1C43.33,90,41.84,88.9,41,87.64A32.46,32.46,0,0,1,38.27,83a45.32,45.32,0,0,1-3.21-9.19c-1.39-6,1.41-9.58,1.41-9.58C34.25,63.64,32.47,60.14,35.83,51.94Z"/><path class="cls-18" d="M55.18,40.89s4.61,2.31,4.44,6.77-1.85,13.79-3.7,15.74-5.71,1-5.71,1,3.53,5.57,2.18,9.33S46.68,84.3,44,89.46c0,0,1.34-17.42,3.36-26.61S56.19,45.49,55.18,40.89Z"/><path class="cls-19" d="M48.86,67.41a11.66,11.66,0,0,0-1.5-4.61l.06-.27a10.27,10.27,0,0,0,5-2.48c3.77-3,4.64-7.63,5.14-12.11A8.28,8.28,0,0,0,55.27,42a4.54,4.54,0,0,0-.09-1.12s4.61,2.31,4.44,6.77-1.85,13.79-3.7,15.74-5.71,1-5.71,1,3.53,5.57,2.18,9.33S46.68,84.3,44,89.46c0,0,.11-1.43.31-3.67C47.46,80.21,49.57,73.88,48.86,67.41Z"/><path class="cls-18" d="M44.5,88.11a96.62,96.62,0,0,1-5-23.69A49.43,49.43,0,0,1,43.3,42.13s-2.69-1.85-7.47,9.39c-3.36,7.9-1.58,11.27.64,11.8,0,0-2.8,3.45-1.41,9.22,1.16,4.83,4.31,13.13,9.27,17Z"/><path class="cls-19" d="M38.87,73c-.4-1.91-1.2-6.94-3.4-7.84a7.71,7.71,0,0,1,1-1.83,2.94,2.94,0,0,1-1.93-1.59c1.72-1.27,2.67-3.88,3.11-6a25.2,25.2,0,0,1,1.56-5.84A63.62,63.62,0,0,0,42.73,42v0a.89.89,0,0,1,.57.11,49.43,49.43,0,0,0-3.76,22.29,96.62,96.62,0,0,0,5,23.69l-.17,1.39a19.44,19.44,0,0,1-4.42-5.15C40.58,80.66,39.58,76.39,38.87,73Z"/><path class="cls-22" d="M54.17,37.75a5.21,5.21,0,0,1,.56,7.69,13.57,13.57,0,0,1-6.54,5.38s1.2-4.87-2.56-7.77c0,0-5,2.3-4.48,7.26a13.31,13.31,0,0,1-1-6.58C40.68,40.48,46.83,35.18,54.17,37.75Z"/><path class="cls-2" d="M42.37,43.66a.28.28,0,0,0,0-.09,5.89,5.89,0,0,0-.5-2.89,11.56,11.56,0,0,1,12.29-2.93,5.43,5.43,0,0,1,1.95,4.81,2.11,2.11,0,0,0-1.6-.73c-2.66-.07-5.34,0-6.59,2.87-.12.26-.22.53-.31.79a6.72,6.72,0,0,0-2-2.44A9.28,9.28,0,0,0,42.24,46,6.26,6.26,0,0,0,42.37,43.66Z"/><path class="cls-24" d="M46.12,42.25a9.66,9.66,0,0,1-3-.78c0-.07,1.52.37,3.08.44a13.26,13.26,0,0,0,2.12,0l.68-.09a1.3,1.3,0,0,0,.27,0l.25,0a5.51,5.51,0,0,0,.68-.14,8.54,8.54,0,0,0,2-.72,7.25,7.25,0,0,0,1.68-1.24,7.79,7.79,0,0,1,.67-.71,2.87,2.87,0,0,1-.53.83,6.48,6.48,0,0,1-1.66,1.42,8,8,0,0,1-2,.85,5.27,5.27,0,0,1-.7.17l-.27.06-.27,0-.72.07A12.84,12.84,0,0,1,46.12,42.25Z"/><path class="cls-24" d="M41.81,46.26c.08-.2.18-.35.23-.46l.09-.17s.15-.24.41-.57A6.1,6.1,0,0,1,43.66,44,5,5,0,0,1,45,43.32l.49-.1-.17-.11c-.36-.23-.64-.32-.63-.36s.08,0,.21,0a2.31,2.31,0,0,1,.51.17,3.93,3.93,0,0,1,1.3,1,6.79,6.79,0,0,1,.91,1.38c.1.21.17.38.22.5A1.24,1.24,0,0,1,48,46a10,10,0,0,1,.46,2.33,7.78,7.78,0,0,1,0,1.63,1.67,1.67,0,0,1-.19.71,3.62,3.62,0,0,1,0-.73,9.15,9.15,0,0,0-.11-1.57,11,11,0,0,0-.57-2.21L47.44,46c0-.11-.11-.28-.18-.48a6.82,6.82,0,0,0-.77-1.35,4.91,4.91,0,0,0-.87-.89l-.52.22a5.41,5.41,0,0,0-1.23.76,5.79,5.79,0,0,0-1,1.07c-.23.32-.36.55-.36.55l-.09.16c-.05.1-.15.23-.24.41a9.91,9.91,0,0,0-.58,1.35c-.36,1-.54,2.09-.61,2.08a6.29,6.29,0,0,1,.28-2.18A9.49,9.49,0,0,1,41.81,46.26Z"/><path class="cls-24" d="M40.06,45a12.66,12.66,0,0,1,.13-1.4c.07-.38.13-.63.13-.63s.07-.25.21-.61a6.17,6.17,0,0,1,.67-1.25,5.14,5.14,0,0,1,1-1c.31-.22.53-.35.55-.32s-.17.2-.43.46a6.62,6.62,0,0,0-.81,1.07A6.54,6.54,0,0,0,41,42.55c-.11.35-.17.58-.17.58s-.07.24-.15.6a11.16,11.16,0,0,0-.23,1.34,17.14,17.14,0,0,1-.24,2A7.83,7.83,0,0,1,40.06,45Z"/><path class="cls-24" d="M50.58,49.38c.55-.47,1.28-1.12,2-1.81a17.34,17.34,0,0,0,1.71-2,10.5,10.5,0,0,0,.65-1,8.63,8.63,0,0,0,.55-1A5.3,5.3,0,0,0,56,41a4.23,4.23,0,0,0-.3-1.33,5.09,5.09,0,0,0-.61-1c-.44-.57-.81-.89-.78-.92a1.15,1.15,0,0,1,.28.19,4.26,4.26,0,0,1,.64.61,4.58,4.58,0,0,1,.71,1.05,4.34,4.34,0,0,1,.4,1.41,5.47,5.47,0,0,1-.44,2.69,9.46,9.46,0,0,1-.55,1.12,10.21,10.21,0,0,1-.7,1,17.7,17.7,0,0,1-1.83,2,23.13,23.13,0,0,1-2.07,1.7,6.06,6.06,0,0,1-1,.66A8.57,8.57,0,0,1,50.58,49.38Z"/><path class="cls-18" d="M89.35,50s5.53-.66,9.61,5.79C99,55.83,91.22,57.91,89.35,50Z"/><path class="cls-6" d="M90,50.68a5.39,5.39,0,0,1,.23-2.7,6.44,6.44,0,0,1,1.42-2.47c.77-.85,1.64-1.5,1.86-2.73.09-.49,0-1,.13-1.49a5.43,5.43,0,0,1,.86-2.76c.92-1,1.88.42,2.14,1.31a7.22,7.22,0,0,1,0,3.07c0,.17-.14.37-.2.54a6.85,6.85,0,0,1,1.34-1.83,13.55,13.55,0,0,0,1.48-2.48,13,13,0,0,1,1.06-2.23c1.39-2.09,5.54-3.08,6,.18A10.11,10.11,0,0,1,104,44.18s2.33-1.42,3-.42-1.75,3.83-4.92,5.67-5.89,4.2-6.33,6.16C95.74,55.59,90.91,54.68,90,50.68Z"/><path class="cls-16" d="M105.66,43.48c-3.6,4.89-9,10.12-14.21,5.42a6.86,6.86,0,0,1-1.1-1.28c0,.12-.1.24-.13.36a5.39,5.39,0,0,0-.23,2.7c.92,4,5.75,4.91,5.75,4.91.44-2,3.17-4.33,6.33-6.16s5.59-4.67,4.92-5.67C106.72,43.36,106.2,43.35,105.66,43.48Z"/><path class="cls-8" d="M91.41,45.51c-.15-.12,1.6-1.24,2-3.1a9.69,9.69,0,0,0,.22-1.33c0-.44,0-.87,0-1.25a2,2,0,0,1,.48-1.27,1.21,1.21,0,0,1,.29-.27,1.09,1.09,0,0,1,1.1-.17,2.23,2.23,0,0,1,1,1A3.52,3.52,0,0,1,97,40.54a3.94,3.94,0,0,1-.54,2.65,2.78,2.78,0,0,1-.82.9s.28-.39.6-1a3.83,3.83,0,0,0,.32-2.47,2.58,2.58,0,0,0-1.19-1.94c-.45-.15-.71.35-.71.31a1.51,1.51,0,0,0-.38.93c0,.33-.06.74-.1,1.21a9.57,9.57,0,0,1-.32,1.44,7.89,7.89,0,0,1-.65,1.3,4.17,4.17,0,0,1-.86.94A6.4,6.4,0,0,1,91.41,45.51Z"/><path class="cls-8" d="M103.24,48.76s.79-.82,1.71-1.88a8.43,8.43,0,0,0,1.23-1.78,1.78,1.78,0,0,0,.22-.9c0-.28-.21-.4-.38-.54h0a2,2,0,0,0-1.16.23c-.36.17-.69.34-.93.47l-.73.39a4.19,4.19,0,0,0-.37.22l-1,.59a17,17,0,0,1-3.19,1.53,11.62,11.62,0,0,0-3.06,1.55,4.83,4.83,0,0,0-.79.8c-.17.22-.28.34-.3.33s.05-.15.19-.4a3.72,3.72,0,0,1,.74-.91,10.76,10.76,0,0,1,3-1.78,16.5,16.5,0,0,0,3-1.61l1-.63c.23-.15.38-.23.38-.23l.77-.39c.26-.13.56-.29,1-.46a6.18,6.18,0,0,1,.69-.23,1.41,1.41,0,0,1,1,.08h0a2.08,2.08,0,0,1,.41.38c0,.09.09.18.15.28s0,.2.05.31a2.22,2.22,0,0,1-.32,1.14,8.74,8.74,0,0,1-1.4,1.8,17.68,17.68,0,0,1-1.33,1.22A2.46,2.46,0,0,1,103.24,48.76Z"/><path class="cls-8" d="M101,45.41c-.09,0-.27-.56-.74-.85a3.68,3.68,0,0,0-1-.45s-2.26-.79-2.18-1a14,14,0,0,1,2.4.43,3.56,3.56,0,0,1,1.08.7C101.05,44.71,101.08,45.41,101,45.41Z"/><path class="cls-8" d="M105.86,36.59c0,.06-.31.08-.72.24a2.55,2.55,0,0,0-1.23,1,5.87,5.87,0,0,0-.75,1.44l-.28.71s-.48,1.14-1.08,2.24a6.91,6.91,0,0,1-1,1.42c-.31.35-.53.56-.56.54a2.09,2.09,0,0,1,.37-.69A9.84,9.84,0,0,0,101.4,42c.49-1.11.9-2.28.9-2.28l.33-.7a5.6,5.6,0,0,1,.94-1.49,2.66,2.66,0,0,1,1.5-.94A1.51,1.51,0,0,1,105.86,36.59Z"/><path class="cls-8" d="M104.93,34.84a5.9,5.9,0,0,0-2.33,1.32,4.64,4.64,0,0,0-.94,1.56,7.79,7.79,0,0,0-.29.8s-.48,1.31-1.07,2.6a9.55,9.55,0,0,1-1,1.68,3.24,3.24,0,0,1-.57.67c-.1-.07.7-1.22,1.15-2.53s.9-2.64.9-2.64a6.8,6.8,0,0,1,.34-.82,5.08,5.08,0,0,1,1.15-1.64,3.83,3.83,0,0,1,1.76-.93A2.19,2.19,0,0,1,104.93,34.84Z"/><path class="cls-3" d="M89.63,49.77C87.73,56.62,84,68,84,68l-9.9-12.19c-1.65-2-3.55-5.4-5.53-7.13-2.52-2.21-4.61,1.49-5.49,4a17.87,17.87,0,0,0-.94,4.2,10.65,10.65,0,0,0,1.18,6.72c2.26,3.48,5.72,6.59,8.65,9.5,2.71,2.69,11.13,12.14,15.81,9.14,6.38-4.09,10.58-23,11.3-26.47A15.63,15.63,0,0,1,89.63,49.77Z"/><path class="cls-17" d="M99,55.77a12.13,12.13,0,0,1-2.32-.64A21.65,21.65,0,0,1,94.13,63,9.91,9.91,0,0,1,85,68.1c-3-.22-6.32.43-9.22-.71-1.76-.69-3.47-2.5-4.8-3.81C68.31,61,66.77,56,68.55,52.51c.45-.87,1-1,1.55-1.68l.19-.26a14,14,0,0,0-1.7-1.85c-2.52-2.21-4.61,1.49-5.49,4a17.87,17.87,0,0,0-.94,4.2,10.65,10.65,0,0,0,1.18,6.72c.14.21.3.41.44.62,7.49,8.67,19.36,21,24,18,.17-.11.34-.25.51-.38C93.13,78,97.11,63.69,99,55.77Z"/><path class="cls-18" d="M83.34,72.74a15.13,15.13,0,0,1,.39-3.53c.21-.88.39-1.41.39-1.41s-.08.55-.2,1.44a29.94,29.94,0,0,0-.19,3.49,20.9,20.9,0,0,0,.38,3.45l.33,1.42s-.23-.51-.52-1.37A13.22,13.22,0,0,1,83.34,72.74Z"/><path class="cls-18" d="M83.71,71.87a7.55,7.55,0,0,1,0-2.26A5.66,5.66,0,0,1,84,68.7a24.46,24.46,0,0,0,.25,3.15A9.76,9.76,0,0,0,84.76,74a3.11,3.11,0,0,0,.33.64l.13.24L85,74.7a3.14,3.14,0,0,1-.49-.61A6,6,0,0,1,83.71,71.87Z"/><path class="cls-21" d="M54.48,18.21c3.73-.51,7.34-1.65,9.68-5.25a7.62,7.62,0,0,1-1.06,2s-.86,5.05-1.44,7.24a3.72,3.72,0,0,0-2.76,1.43,3.64,3.64,0,0,0-1.11,2.5l-2.52-.59,1-6.25A6,6,0,0,1,54.48,18.21Z"/><path class="cls-6" d="M33.2,19s-3.19-2.57-4,0,0,9.34,2.6,7.88S33.2,19,33.2,19Z"/><path class="cls-16" d="M33.2,19a6.94,6.94,0,0,0-1.33-.8,1.42,1.42,0,0,0-1.23,1.15c-.6,1.95-.29,6.25,1,7.64l.15-.07C34.39,25.44,33.2,19,33.2,19Z"/><path class="cls-8" d="M31.25,26.12a10.81,10.81,0,0,0,.39-1.81,8,8,0,0,0,0-1.83s0-.23-.09-.57a5.22,5.22,0,0,0-.38-1.19,3.8,3.8,0,0,0-.71-1c-.24-.24-.43-.38-.42-.4a1.31,1.31,0,0,1,.51.31,3.66,3.66,0,0,1,.82,1,5.39,5.39,0,0,1,.46,1.23c.08.35.11.59.11.59a7.43,7.43,0,0,1-.06,1.9A4.74,4.74,0,0,1,31.25,26.12Z"/><path class="cls-8" d="M30.17,24.88a2,2,0,0,1,0-.79,4.26,4.26,0,0,1,.12-.53l.08-.24a1.3,1.3,0,0,1,.13-.23l.14-.21.21-.22a1.19,1.19,0,0,1,.71-.35c0,.05-.33.21-.55.5-.06.07-.11.15-.16.22s-.07.14-.1.2a1.25,1.25,0,0,0-.1.21l-.09.21a4.53,4.53,0,0,0-.17.49A3.87,3.87,0,0,1,30.17,24.88Z"/><path class="cls-6" d="M45.62,3.79S37.56,5,35.17,10s-2.25,13.34-2.25,13.34a27.08,27.08,0,0,0-.18,8.21,5.15,5.15,0,0,0,2.15,4.12c2.11,1.44,5.36,1.3,8,1.59,1.61.83.07,2.39.66,3.94,3.77,2,7.1.71,9.61-1,1.62-1.11.89-5.8,3.83-8.51a1.62,1.62,0,0,0,.25-.34s4.57,2.05,7.17-1.55,1.56-9.3-3.9-7.32C60.48,22.5,63.24,4.7,45.62,3.79Z"/><g class="cls-7"><path class="cls-8" d="M59.78,26.14c-1,1.52-.86,3.36.31,4.13s2.14,0,3.13-1.5,1.63-3.22.46-4S60.76,24.63,59.78,26.14Z"/></g><path class="cls-8" d="M59.48,26.58a4.39,4.39,0,0,1,.36-.58,4.69,4.69,0,0,1,.47-.5,4.53,4.53,0,0,1,1.25-.83A3,3,0,0,1,63,24.39a1.2,1.2,0,0,1,.64.19s-.27,0-.65,0A3,3,0,0,0,61.7,25a4.28,4.28,0,0,0-1.09.84,4.78,4.78,0,0,0-.41.48,4.89,4.89,0,0,0-.36.51l-.08.15h0a1.48,1.48,0,0,1,.76-.15,1.67,1.67,0,0,1,.75.26,1,1,0,0,1,.21.16l.08.06.06.08a1.31,1.31,0,0,1,.15.23,1.53,1.53,0,0,1,.19.78,1.47,1.47,0,0,1-.22.74c-.12.16-.22.25-.25.24s0-.15.09-.32a1.52,1.52,0,0,0,.06-.65,1.29,1.29,0,0,0-.23-.57c-.1-.14-.18-.21-.18-.22l0,0s-.08-.09-.15-.14a1.55,1.55,0,0,0-.56-.28,1.79,1.79,0,0,0-.65,0l-.17,0a3.55,3.55,0,0,0-.31.92,3,3,0,0,0,0,.73,2.79,2.79,0,0,0,.14.63c.13.36.29.58.26.6s-.23-.16-.42-.53a2.32,2.32,0,0,1-.23-.66A3.13,3.13,0,0,1,59,28,4.06,4.06,0,0,1,59.48,26.58Z"/><g class="cls-7"><path class="cls-8" d="M38.93,25.24a1.5,1.5,0,0,0,1.71,1.06,1.26,1.26,0,0,0,1.28-1.39s1.2,1.12,1.13,1.66S37.7,28.52,38.93,25.24Z"/></g><path class="cls-8" d="M43.06,26.44s-.12-.16-.28-.38a3,3,0,0,0-.72-.7,3.43,3.43,0,0,0-.88-.44,2.69,2.69,0,0,0-.43-.1l-.12,0a1.82,1.82,0,0,0-.3,0,1.27,1.27,0,0,0-.84.27,1.49,1.49,0,0,0-.45.83c-.06.26-.07.46-.11.46a1.07,1.07,0,0,1-.07-.49,1.58,1.58,0,0,1,.4-1,1.26,1.26,0,0,1,.53-.35,1.79,1.79,0,0,1,.53-.11,2.17,2.17,0,0,1,.38,0l.14,0a2.15,2.15,0,0,1,.49.15,3.53,3.53,0,0,1,.94.59,3,3,0,0,1,.67.86C43.06,26.24,43.09,26.43,43.06,26.44Z"/><path class="cls-16" d="M34.68,11.2c.14-.39.3-.78.49-1.18,2.39-5,10.45-6.23,10.45-6.23C63.24,4.7,60.48,22.5,60.48,22.5l.32-.11c-.07.29-.13.55-.19.78a3.74,3.74,0,0,0-2.77,1.43c-1.24,1.48-.05,1.52-.05,1.52l-3.16-.53.57-5.33s-4.19-1.41-4.59-7A30.73,30.73,0,0,1,39,11.72,13.27,13.27,0,0,1,34.68,11.2Z"/><path class="cls-25" d="M63.1,15s-.86,5.05-1.44,7.24a3.72,3.72,0,0,0-2.76,1.43,8.12,8.12,0,0,0-1.59,3.26l-2.45-.32.84-7.25s-3.64-1.44-4-7A30.72,30.72,0,0,1,40,10.74,12.74,12.74,0,0,1,35.17,10s-1.7,3.71-1.62,6.26A23.43,23.43,0,0,1,33,22.2l-1.16-.89.55-3.5a6.55,6.55,0,0,1,.53-7.74s-6.34-3-.33-9.93a10.87,10.87,0,0,0,8.26,1.31C45.47.25,59.58-.61,61,6.57,61,6.57,67,9.49,63.1,15Z"/><path class="cls-21" d="M32.52.22c4.21,5.68,12.15,8.91,19,6.34a8.93,8.93,0,0,0,.89-.4,5.26,5.26,0,0,0,3.68-4.42c2.53.89,4.47,2.4,5,4.83a7.45,7.45,0,0,1,1.36.91A28.16,28.16,0,0,1,51.81,13.4a9.87,9.87,0,0,1-.14-1.14A30.72,30.72,0,0,1,40,10.74,12.74,12.74,0,0,1,35.17,10s-1.7,3.71-1.62,6.26A23.43,23.43,0,0,1,33,22.2l-1.16-.89.55-3.5a6.55,6.55,0,0,1,.53-7.74S26.63,7.07,32.52.22Z"/><path class="cls-21" d="M57.48,15.77c3.23.56,5-.34,5.75-1L63.1,15s-.86,5.05-1.44,7.24a3.72,3.72,0,0,0-2.76,1.43,8.12,8.12,0,0,0-1.59,3.26l-2.45-.32.3-2.61,1.09-4.67s-4.19-1.41-4.58-7C51.67,12.26,52.59,14.92,57.48,15.77Z"/><path class="cls-21" d="M33.55,16.28A23.43,23.43,0,0,1,33,22.2l-1.16-.89.55-3.5a6.55,6.55,0,0,1,.51-7.72A3.31,3.31,0,0,0,35.17,10S33.47,13.73,33.55,16.28Z"/><path class="cls-26" d="M36.06,7.65A12,12,0,0,1,34.71,6a9.41,9.41,0,0,1-.89-1.61,4.3,4.3,0,0,1-.26-.69,3.12,3.12,0,0,1-.16-.54,1.47,1.47,0,0,1-.09-.48s.21.68.68,1.63a9.52,9.52,0,0,0,.94,1.54A12.13,12.13,0,0,0,36.3,7.41a15.15,15.15,0,0,0,3.15,2.22c.93.49,1.59.75,1.59.75s.63.29,1.63.63a21.55,21.55,0,0,0,3.75.94,21.24,21.24,0,0,0,3.86.29c1.06,0,1.76-.14,1.77-.1a1.76,1.76,0,0,1-.48.12,11.28,11.28,0,0,1-1.28.16,19.81,19.81,0,0,1-3.92-.13,22.23,22.23,0,0,1-3.84-.86c-1-.33-1.68-.61-1.68-.61A17,17,0,0,1,39.24,10,14.77,14.77,0,0,1,36.06,7.65Z"/><path class="cls-26" d="M35.11,9.57l-.23-.14-.2-.17a5.55,5.55,0,0,1-.52-.46,8,8,0,0,1-1.3-1.65A8.82,8.82,0,0,1,32,5.23a3.44,3.44,0,0,1-.19-.92,4.86,4.86,0,0,1,.36.86A10.47,10.47,0,0,0,33.15,7a7.77,7.77,0,0,0,1.31,1.51,5.35,5.35,0,0,0,.51.41l.2.15.2.15a5.51,5.51,0,0,0,.55.35,9,9,0,0,0,1.83.82,29.38,29.38,0,0,0,2.89.62,3.27,3.27,0,0,1-.94,0,10.67,10.67,0,0,1-2-.31,8.35,8.35,0,0,1-1.95-.76A5.85,5.85,0,0,1,35.11,9.57Z"/><path class="cls-26" d="M30.36,3.37c.07,0,0,1.29.27,2.52a6.06,6.06,0,0,0,.55,1.61,3,3,0,0,0,.27.47l.12.18.12.17a3.18,3.18,0,0,0,.35.42,4.19,4.19,0,0,0,1.37.95,6.55,6.55,0,0,0,1.64.47,2.81,2.81,0,0,1,.79.14,2.93,2.93,0,0,1-.81,0A5.89,5.89,0,0,1,33.28,10a4.4,4.4,0,0,1-1.55-.95,3.71,3.71,0,0,1-.41-.45l-.15-.18-.11-.2a3.13,3.13,0,0,1-.28-.53,6.26,6.26,0,0,1-.48-1.75A6.79,6.79,0,0,1,30.36,3.37Z"/><path class="cls-26" d="M60.46,5.55a4.65,4.65,0,0,0-.55-1.09,5.08,5.08,0,0,0-1-1,8.29,8.29,0,0,0-2.31-1.23C56,2,55.48,1.88,55.48,1.88S55,1.74,54.3,1.59a26.29,26.29,0,0,0-2.64-.42c-1-.11-2-.18-2.69-.24A7.06,7.06,0,0,1,47.74.8,6.89,6.89,0,0,1,49,.75c.73,0,1.72,0,2.71.08s2,.19,2.7.32,1.22.26,1.22.26.48.13,1.18.4a8.13,8.13,0,0,1,2.38,1.38,5.38,5.38,0,0,1,1,1.13,4.48,4.48,0,0,1,.51,1.17,3.68,3.68,0,0,1,.1.5,2.05,2.05,0,0,1,0,.39,1,1,0,0,1,0,.35S60.69,6.23,60.46,5.55Z"/><path class="cls-26" d="M37.74,2.63l-.92-.22a12.55,12.55,0,0,1-2-.68A8.55,8.55,0,0,1,33.05.67,2.64,2.64,0,0,1,32.38,0a7.76,7.76,0,0,1,.78.52,9.53,9.53,0,0,0,1.81.9,13.31,13.31,0,0,0,2,.56l.91.18a24.79,24.79,0,0,0,2.93.4c1.48.12,3,.06,3,.13a12.69,12.69,0,0,1-3,.21A22.77,22.77,0,0,1,37.74,2.63Z"/><path class="cls-26" d="M57.71,5.29,57.4,5a11.67,11.67,0,0,0-1-.92,10,10,0,0,1-1.1-.85,3.47,3.47,0,0,1,1.29.58,8.45,8.45,0,0,1,1.15.84L58,5a4.72,4.72,0,0,1,.57.81,3.06,3.06,0,0,1,.36.92.86.86,0,0,1,0,.45s-.09-.16-.19-.39a4,4,0,0,0-.46-.8A7.58,7.58,0,0,0,57.71,5.29Z"/><path class="cls-26" d="M57,6.86a6.06,6.06,0,0,0-1.3-1.43,7.94,7.94,0,0,0-1.66-1c-.49-.21-.82-.33-.82-.33L52.94,4a6.26,6.26,0,0,0-.61-.2,17.25,17.25,0,0,0-1.92-.45c-1.42-.23-2.87-.23-2.87-.3a10.35,10.35,0,0,1,2.91,0,14.47,14.47,0,0,1,2,.35c.27.06.49.14.65.19l.24.07s.35.14.85.38a8.14,8.14,0,0,1,1.69,1.13,5.7,5.7,0,0,1,1.24,1.59,2.31,2.31,0,0,1,.31.87A8.38,8.38,0,0,1,57,6.86Z"/><path class="cls-26" d="M63.52,11.4s-.08-.16-.2-.4a5.78,5.78,0,0,0-.48-.83,7.13,7.13,0,0,0-.91-1.05l-.3-.31a3.93,3.93,0,0,0-.75-.54A1.67,1.67,0,0,0,60,8c-.25,0-.42.08-.44,0s0,0,.1-.09A.82.82,0,0,1,60,7.86,1.67,1.67,0,0,1,61,8a3.62,3.62,0,0,1,.9.52l.35.3A6.23,6.23,0,0,1,63.12,10a3.76,3.76,0,0,1,.38.95C63.57,11.21,63.55,11.4,63.52,11.4Z"/><path class="cls-26" d="M59.8,11.87c0-.08,0-.21,0-.36a6.29,6.29,0,0,0-.27-1.08,6.13,6.13,0,0,0-.47-1c-.15-.27-.28-.44-.25-.47a1.36,1.36,0,0,1,.4.36,4.66,4.66,0,0,1,.63,1,5.32,5.32,0,0,1,.39,1.14c0,.16,0,.3.07.39s0,.16,0,.16a3.82,3.82,0,0,1,0,.56,2.47,2.47,0,0,1-.47,1.15,2.1,2.1,0,0,1-1,.66,1.14,1.14,0,0,1-.55,0,2,2,0,0,1,.48-.21,2,2,0,0,0,.83-.68,2.24,2.24,0,0,0,.3-1,4,4,0,0,0,0-.49Z"/><path class="cls-26" d="M59.05,15.7s.34.09.85.14a3.19,3.19,0,0,0,.87,0,4,4,0,0,0,.93-.3,4.24,4.24,0,0,0,1.42-1.17,4.13,4.13,0,0,0,.47-.69,4.82,4.82,0,0,0,.39-.75,4.88,4.88,0,0,0,.39-1.79,4.39,4.39,0,0,0-.11-1A3.18,3.18,0,0,0,64,9.34c-.24-.46-.49-.71-.45-.74a1.83,1.83,0,0,1,.61.64,3.57,3.57,0,0,1,.41.83,4.53,4.53,0,0,1,.19,1,5.28,5.28,0,0,1-.32,2,4.64,4.64,0,0,1-.39.82,5.16,5.16,0,0,1-.54.74,4.51,4.51,0,0,1-1.62,1.18,3.61,3.61,0,0,1-1,.26,3.34,3.34,0,0,1-.92-.06A2.1,2.1,0,0,1,59.05,15.7Z"/><path class="cls-26" d="M52.14,14.46A7.71,7.71,0,0,0,52.87,16a6.73,6.73,0,0,0,1.06,1.34,3.68,3.68,0,0,0,.42.37l.17.14s.24.2.62.46a6.91,6.91,0,0,0,1.54.74,7.5,7.5,0,0,0,1.69.35,4.74,4.74,0,0,1,.8.08,2.38,2.38,0,0,1-.81.11,7.12,7.12,0,0,1-1.78-.21,7.23,7.23,0,0,1-1.67-.7,7.07,7.07,0,0,1-.69-.45l-.17-.16a4,4,0,0,1-.43-.42,6.62,6.62,0,0,1-1-1.48A7,7,0,0,1,52,14.51a2.32,2.32,0,0,1-.09-.81A3.78,3.78,0,0,1,52.14,14.46Z"/><path class="cls-26" d="M31.9,11.83a5.24,5.24,0,0,1,.71-1.23c.24-.3.46-.46.48-.44s-.14.22-.32.55A6,6,0,0,0,32.21,12a8.32,8.32,0,0,0-.3,1.32c0,.37-.05.62-.05.62a1.08,1.08,0,0,0,0,.16,4.36,4.36,0,0,0,0,.45A6.17,6.17,0,0,0,32,15.84a3.83,3.83,0,0,0,.52,1.24c.2.31.37.5.34.53a1.3,1.3,0,0,1-.49-.42,3.67,3.67,0,0,1-.69-1.26,5.44,5.44,0,0,1-.26-1.42c0-.2,0-.36,0-.48v-.18s0-.26.1-.65A6.53,6.53,0,0,1,31.9,11.83Z"/><path class="cls-16" d="M42.86,37.28c-2.61-.29-5.86-.15-8-1.59a5.15,5.15,0,0,1-2.15-4.12,18.78,18.78,0,0,1-.25-3.67,16.41,16.41,0,0,0,1.21,5c1.52,3.14,6.59,4.13,14.22,3.58s8.87-5.6,8.87-5.6l.1.87c-2.85,2.73-2.15,7.34-3.76,8.44a12.27,12.27,0,0,1-3.51,1.69c-.89-1.76-2.1-3.6-3.23-3.43s-1.89,1.69-2.3,3l-.57-.27C42.93,39.67,44.47,38.11,42.86,37.28Z"/><path class="cls-25" d="M32.29,18.92h1.27l0,.15a.77.77,0,0,1-.06-.14l-.15,8.57s2.19-1.59,8.48-.8a26.83,26.83,0,0,1,10.05,3.16s.73-5.3,3.77-8l5.93.37c-1.2.48-3.87,2.25-4,4.71-.18,3.4.1,3.86.1,3.86.51.93-1.82,4.47-2.51,5.06a12.26,12.26,0,0,1-5,2.53c-3.46.82-8.46.35-11.91-.28C31,36.84,30.53,34,30.72,30.32A70.91,70.91,0,0,1,32.29,18.92Z"/><path class="cls-21" d="M30.72,30.32a70.91,70.91,0,0,1,1.57-11.4h1.27l0,.15a.77.77,0,0,1-.06-.14l-.09,5.34a6.2,6.2,0,0,0-1,6.71c1.93,4.14,6,5.5,10.18,5.44,2.77,0,5.21,0,7.76-1.37A9.18,9.18,0,0,0,54,30.93a9.77,9.77,0,0,0,1.11-4,3.84,3.84,0,0,0-1.28-2.9q.16-.29.36-.57s0,0,0,0c.12-.18.25-.35.39-.53l0,0c.14-.17.28-.33.43-.49l0,0c.16-.16.31-.31.48-.46l.72.05,4.69.29h.09l.28,0h.15c-1.2.48-3.87,2.25-4,4.71-.18,3.4.1,3.86.1,3.86.51.93-1.82,4.47-2.51,5.06a12.26,12.26,0,0,1-5,2.53c-3.46.82-8.46.35-11.91-.28L37.55,38C31,36.66,30.54,33.91,30.72,30.32Z"/><path class="cls-25" d="M49.64,17.81s-.14,0-.29,0a1.76,1.76,0,0,1-1-.15l-.2-.11a2.32,2.32,0,0,1-.65-.37c-.31-.24-.51-.61-.6-.59s-.06.51.23.92a2.44,2.44,0,0,0,.72.67,2,2,0,0,0,.3.09,1.78,1.78,0,0,0,.7,0,1.39,1.39,0,0,0,.63-.24C49.6,18,49.67,17.85,49.64,17.81Z"/><path class="cls-25" d="M38.16,17c-.1-.05-.36.23-.67.35a1.47,1.47,0,0,1-.43.07h-.38a.46.46,0,0,1-.2,0,2,2,0,0,1-.24-.05c-.33-.09-.62-.34-.71-.28s.1.45.48.72a1.73,1.73,0,0,0,.3.16,1,1,0,0,0,.28.1l.29.05.29-.07a1.62,1.62,0,0,0,.58-.28C38.11,17.49,38.23,17.05,38.16,17Z"/><path class="cls-3" d="M38.51,20.37c-.06,0-.19.25-.31.67s-.22,1-.39,1.47a2.22,2.22,0,0,1-.72,1.06l-.36.18c-.06,0-.09,0-.1,0a.91.91,0,0,1-.49,0,1.67,1.67,0,0,1-1-.71c-.64-.83-1-2-1.09-1.91a3.62,3.62,0,0,0,.53,2.27,2.37,2.37,0,0,0,1.35,1.2,2.5,2.5,0,0,0,.66.07l.24,0,.06,0a.4.4,0,0,0,.21-.08c.13-.08.31-.19.52-.34a2.87,2.87,0,0,0,.82-1.57,11.05,11.05,0,0,0,.12-1.59C38.57,20.67,38.58,20.39,38.51,20.37Z"/><path class="cls-3" d="M46.44,21.64c-.06,0-.12.31-.19.77a7.78,7.78,0,0,0-.1,1.75A2.92,2.92,0,0,0,46.83,26l.28.27.13.12.16.07.27.12.28,0a1.65,1.65,0,0,0,.72-.1,3.49,3.49,0,0,0,1.51-1.14A4.46,4.46,0,0,0,51.31,23c-.11-.05-.74,1-1.62,1.83a3,3,0,0,1-1.26.76,1.23,1.23,0,0,1-.52,0l-.14-.05c-.05,0-.15-.12-.31-.22a2.18,2.18,0,0,1-.65-1.28,13.5,13.5,0,0,1-.19-1.65C46.57,22,46.5,21.63,46.44,21.64Z"/><path class="cls-3" d="M38.35,27.79c.24.38,2.6,1.62,5.88.73,0,0-1.11,3.22-3.75,3.62S38.35,27.79,38.35,27.79Z"/><path class="cls-8" d="M44.7,28.17s0,0-.12.11a2.12,2.12,0,0,1-.38.24,3.93,3.93,0,0,1-1.29.38,6.49,6.49,0,0,1-3.84-.59A4.28,4.28,0,0,1,38,27.56a1.88,1.88,0,0,1-.29-.33q-.1-.14-.09-.15s.18.17.46.39a4.6,4.6,0,0,0,1.13.64,9.07,9.07,0,0,0,3.72.57,4.27,4.27,0,0,0,1.27-.28C44.49,28.28,44.69,28.14,44.7,28.17Z"/><path class="cls-8" d="M41,32.85a1.73,1.73,0,0,1-.84.48,1.77,1.77,0,0,1-.69,0l-.31-.09a1.71,1.71,0,0,1-.71-.69,1.24,1.24,0,0,1-.19-.66c0-.19.08-.3.09-.29a1.52,1.52,0,0,0,1,1.36,1.84,1.84,0,0,0,.82.15C40.59,33.05,41,32.8,41,32.85Z"/></g></g></g></svg>