<svg xmlns="http://www.w3.org/2000/svg" viewBox="0 0 98.43 199.02"><defs><style>.cls-1{isolation:isolate;}.cls-17,.cls-2{fill:#d2e4ff;}.cls-10,.cls-12,.cls-14,.cls-15,.cls-2,.cls-8{mix-blend-mode:multiply;}.cls-3{fill:#4052a0;}.cls-4{fill:#fad0bf;}.cls-15,.cls-21,.cls-5{opacity:0.2;}.cls-21,.cls-6{fill:#fa7296;}.cls-10,.cls-7,.cls-9{fill:#cc5252;}.cls-10,.cls-16,.cls-19,.cls-8{opacity:0.5;}.cls-9{mix-blend-mode:screen;}.cls-11{fill:#963e35;}.cls-12{fill:#c87568;opacity:0.8;}.cls-13{fill:#1b205e;}.cls-14,.cls-15,.cls-16,.cls-20{fill:#1d255b;}.cls-14{opacity:0.4;}.cls-18{fill:#65a1ff;}.cls-22{fill:#ba5443;}</style></defs><g class="cls-1"><g id="Layer_2" data-name="Layer 2"><g id="OBJECTS"><path class="cls-2" d="M34.86,191.52c0,4.14,14.23,7.5,31.79,7.5s31.78-3.36,31.78-7.5S84.2,184,66.65,184,34.86,187.38,34.86,191.52Z"/><path class="cls-3" d="M18.68,64.36A13,13,0,0,1,24,52.91S26.41,62,18.68,64.36Z"/><path class="cls-4" d="M19.53,59.72c-.51-.36-1.11-.28-2.18-.42a5.12,5.12,0,0,1-1.82-.49c-.48.34-.66,1-1.25,1.35a3.24,3.24,0,0,1-1.85.44A2.76,2.76,0,0,1,9.7,58.51,8.75,8.75,0,0,1,9.75,57a5.78,5.78,0,0,1,.05-1.71c.86-3.42,1.59-5.28,4.45-6.13,4.09-1.22,7.29,2,9.07,5.23,1.21,2.21,2.4,2.66,1.79,5.44A8.92,8.92,0,0,1,21.81,65c-.65-1.25-.73-2.74-1.35-4A3.2,3.2,0,0,0,19.53,59.72Z"/><g class="cls-5"><path class="cls-6" d="M23.32,54.36a14.91,14.91,0,0,0-1.22-1.9,9.6,9.6,0,0,1-8.81,6,9.41,9.41,0,0,1-3.6-.73,2.37,2.37,0,0,0,0,.75,2.76,2.76,0,0,0,2.73,2.09,3.24,3.24,0,0,0,1.85-.44c.59-.33.77-1,1.25-1.35a5.12,5.12,0,0,0,1.82.49c1.07.14,1.67.06,2.18.42A3.2,3.2,0,0,1,20.46,61c.62,1.28.7,2.77,1.35,4a8.92,8.92,0,0,0,3.3-5.23C25.72,57,24.53,56.57,23.32,54.36Z"/></g><path class="cls-6" d="M12.73,54.3a1.77,1.77,0,0,0,.16.3c-.11-.1-.17-.16-.18-.15l-.18-.13c-.1-.09-.21-.23-.37-.4a4.73,4.73,0,0,1-.43-.66,1.94,1.94,0,0,1-.22-.8A2.84,2.84,0,0,1,12,50.92c.26-.39.51-.61.47-.65a1.71,1.71,0,0,0-.67.54,2.77,2.77,0,0,0-.72,1.65,2.37,2.37,0,0,0,.18,1,5.27,5.27,0,0,0,.42.75c.17.21.31.39.42.5l.19.15a4,4,0,0,0,.77.5l.4.2c.15.06.32.1.48.15a4.8,4.8,0,0,0,1.08.2A2.2,2.2,0,0,0,17,55.35s0-.06,0-.09l0,.1a2,2,0,0,0,.26.38,3,3,0,0,0,.37.32,2.42,2.42,0,0,0,1,.4,2.15,2.15,0,0,0,1.5-.24,10.16,10.16,0,0,1-1.4-.14,2,2,0,0,1-1-.67,3,3,0,0,1-.63-1c-.2-.5-.25-1-.32-1.19l.09,0c.23,0,.49.1.53,0s-.14-.23-.34-.39-.47-.25-.47-.25l-.32,0v0l0,0h-.21c-.28,0-.54.1-.53.17s.26.15.47.21l.15.06a1.72,1.72,0,0,1-.14.37,2.77,2.77,0,0,1-1.38,1.34,1.16,1.16,0,0,1-.93,0,1,1,0,0,1-.44-.61,2.78,2.78,0,0,1-.12-.57c0-.15,0-.23,0-.23a2.07,2.07,0,0,1,0-.23,2,2,0,0,1,.07-.59,2.76,2.76,0,0,1,.91-1.6A4.59,4.59,0,0,1,16,50a4.59,4.59,0,0,0,1-.24,4,4,0,0,0-1,0,4.66,4.66,0,0,0-2.09.85,3.23,3.23,0,0,0-1.18,1.77,2.19,2.19,0,0,0-.11.68c0,.16,0,.26,0,.26v.26A3.72,3.72,0,0,0,12.73,54.3Zm1.38,1,0,0a1.8,1.8,0,0,0,.79-.18,2.76,2.76,0,0,0,1.41-1.6,2.27,2.27,0,0,0,.09-.38l.1,0,.31,0a2.43,2.43,0,0,0,0,1.28,2.67,2.67,0,0,0,.16.57.72.72,0,0,1-.13.19,2,2,0,0,1-1.68.29A4.49,4.49,0,0,1,14.11,55.27Z"/><path class="cls-6" d="M10.86,55.32A4.55,4.55,0,0,0,12,56.69a4.07,4.07,0,0,0,.67.47,3.17,3.17,0,0,0,.74.35,3.67,3.67,0,0,0,1.84.13,2,2,0,0,0,.85-.38,1.27,1.27,0,0,0,.4-.65c.11-.44,0-.77.09-.77a1.25,1.25,0,0,1,.16.81,1.42,1.42,0,0,1-.39.81,2.3,2.3,0,0,1-1,.55,4.08,4.08,0,0,1-2.15,0,3.65,3.65,0,0,1-.91-.37,4.51,4.51,0,0,1-.73-.57,4.67,4.67,0,0,1-1.09-1.58,2.52,2.52,0,0,1-.08-1.82,1.28,1.28,0,0,1,.51-.69s-.17.29-.27.75A2.43,2.43,0,0,0,10.86,55.32Z"/><path class="cls-6" d="M10,56.37a4.52,4.52,0,0,0,.84,1.44,3.8,3.8,0,0,0,.55.55,1,1,0,0,0,.16.14,1.75,1.75,0,0,0,.46.29,4.62,4.62,0,0,0,1.75.44,1.85,1.85,0,0,0,1.59-.52c.26-.35.25-.69.31-.68a.89.89,0,0,1-.1.79,2,2,0,0,1-1.8.79,5.09,5.09,0,0,1-2-.38,2.52,2.52,0,0,1-.59-.33,1.75,1.75,0,0,1-.2-.16,4.09,4.09,0,0,1-.59-.64,4.91,4.91,0,0,1-.79-1.64,2.67,2.67,0,0,1,.09-1.74,1.35,1.35,0,0,1,.5-.66s-.16.29-.27.72A2.77,2.77,0,0,0,10,56.37Z"/><path class="cls-6" d="M11.22,59.77a2.11,2.11,0,0,0,.53.21,2.39,2.39,0,0,0,.55.17,2.7,2.7,0,0,0,1.26,0,6.32,6.32,0,0,0,1.65-.92,2.52,2.52,0,0,1-1.49,1.28,3.17,3.17,0,0,1-1.52.15,2.74,2.74,0,0,1-.68-.16l-.18-.06a3.18,3.18,0,0,1-.43-.23,2.51,2.51,0,0,1-1-1,2.1,2.1,0,0,1-.1-1.83A5,5,0,0,0,10.32,59,2.42,2.42,0,0,0,11.22,59.77Z"/><path class="cls-7" d="M17.7,49.71a3.55,3.55,0,0,0-1.4-1.18,5,5,0,0,0-3.81.14l.84,1.82a3.57,3.57,0,0,1,1.28-.27A4.8,4.8,0,0,1,17.7,49.71Z"/><path class="cls-7" d="M12.47,57.13a4.72,4.72,0,0,1-.8.21l.31,2a8,8,0,0,0,3.36-1.45A4.27,4.27,0,0,1,12.47,57.13Z"/><g class="cls-8"><path class="cls-7" d="M17.7,49.71a3.55,3.55,0,0,0-1.4-1.18,5,5,0,0,0-3.81.14l.84,1.82a3.57,3.57,0,0,1,1.28-.27A4.8,4.8,0,0,1,17.7,49.71Z"/><path class="cls-7" d="M12.47,57.13a4.72,4.72,0,0,1-.8.21l.31,2a8,8,0,0,0,3.36-1.45A4.27,4.27,0,0,1,12.47,57.13Z"/></g><g class="cls-8"><path class="cls-7" d="M17.7,49.71a3.55,3.55,0,0,0-1.4-1.18,5,5,0,0,0-3.81.14l.84,1.82a3.57,3.57,0,0,1,1.28-.27A4.8,4.8,0,0,1,17.7,49.71Z"/><path class="cls-7" d="M12.47,57.13a4.72,4.72,0,0,1-.8.21l.31,2a8,8,0,0,0,3.36-1.45A4.27,4.27,0,0,1,12.47,57.13Z"/></g><path class="cls-7" d="M.08,47.75c-.46.3,1.26,5,1.4,5.48.4,1.34.8,2.67,1.18,4,.55,1.89.6,3.27,2.6,4.06a6.83,6.83,0,0,0,3,.46,7.63,7.63,0,0,0,1.94-.41,4.57,4.57,0,0,0,1.43-.55c1-.84.94-2.62,1.13-3.79.23-1.42.46-2.84.7-4.27s.41-2.55.62-3.83a8.3,8.3,0,0,0,.27-1.62S8.1,42.48.08,47.75Z"/><path class="cls-9" d="M9,60.37A6.28,6.28,0,0,1,6.32,60C4.54,59.25,4.5,58,4,56.34c-.34-1.2-.7-2.39-1-3.58-.09-.31-.94-2.64-1.23-4l-.07,0c-.32-.1-.6-.21-.88-.31-.19.64,1.18,4.4,1.3,4.8.35,1.19.71,2.38,1,3.58.49,1.68.53,2.91,2.32,3.62a6.24,6.24,0,0,0,2.67.41,6.85,6.85,0,0,0,1.73-.37A4.2,4.2,0,0,0,11.13,60c.06,0,.1-.12.15-.17l-.55.16A6.85,6.85,0,0,1,9,60.37Z"/><path class="cls-10" d="M14.35,47.29a11.11,11.11,0,0,0-3.2-1.51c2.27,5.42-.4,13.1-8,13.17A3.25,3.25,0,0,0,5.26,61.3a6.83,6.83,0,0,0,3,.46,7.63,7.63,0,0,0,1.94-.41,4.57,4.57,0,0,0,1.43-.55c1-.84.94-2.62,1.13-3.79.23-1.42.46-2.84.7-4.27s.41-2.55.62-3.83A8.3,8.3,0,0,0,14.35,47.29Z"/><path class="cls-10" d="M.08,47.75a.26.26,0,0,0-.07.13,13.8,13.8,0,0,0,6.5,1.47c3.15,0,6-.44,7.86-2a.14.14,0,0,0,0-.09S8.1,42.48.08,47.75Z"/><path class="cls-11" d="M1.56,48.56a15.34,15.34,0,0,0,4.95.79,15,15,0,0,0,6.68-1.21A12.39,12.39,0,0,0,1.56,48.56Z"/><path class="cls-12" d="M1.56,48.56a15.34,15.34,0,0,0,4.95.79,15,15,0,0,0,6.68-1.21A12.39,12.39,0,0,0,1.56,48.56Z"/><path class="cls-13" d="M58.86,52.61c-.4-.23-2.1-4.22-7.11-4.23s-5.71.24-5.71.24L37,71.93s-10.69-14.78-13-19c0,0-.33,7.84-5.33,11.5,0,0,11.08,20.08,19.15,22.21S58.86,52.61,58.86,52.61Z"/><path class="cls-14" d="M51.75,48.38c-5,0-5.71.24-5.71.24l-.86,2.21c4.11,2.7,5.08,8.63,2.89,12.85-.86,1.65-1.93,3.89-3.4,5.09-2.41,2-5.74,2.37-8.55,3.51a9.94,9.94,0,0,1-10.3-2.07,22,22,0,0,1-5.28-7.68,9.78,9.78,0,0,1-1.86,1.83C23,71.45,31.83,85.05,37.77,86.62c8.07,2.13,21.09-34,21.09-34C58.46,52.38,56.76,48.39,51.75,48.38Z"/><path class="cls-3" d="M39.09,76.19A16,16,0,0,0,37.64,73c-.48-.77-.81-1.22-.81-1.22L37.46,73a26.3,26.3,0,0,1,1.25,3.26,22.1,22.1,0,0,1,.71,3.4c.07.9.11,1.45.11,1.45a14,14,0,0,0,.08-1.46A13.32,13.32,0,0,0,39.09,76.19Z"/><path class="cls-3" d="M38.47,75.48a7.49,7.49,0,0,0-.72-2.14,5.82,5.82,0,0,0-.48-.8A23.8,23.8,0,0,1,38,75.61a9.78,9.78,0,0,1,.14,2.25,3.33,3.33,0,0,1-.12.71l-.05.27.12-.26a3,3,0,0,0,.28-.74A5.82,5.82,0,0,0,38.47,75.48Z"/><path class="cls-13" d="M52.23,176.94c0,.51-.75,5.22-.75,5.22S39.57,190.75,40.7,192s12.22-4.34,13.85-6.63l1.58-8.56Z"/><path class="cls-14" d="M52.23,176.94c0,.51-.75,5.22-.75,5.22l-.08.05a3.9,3.9,0,0,1-1,3.56A5.06,5.06,0,0,1,48.36,188a5.12,5.12,0,0,1-.58.28,6.29,6.29,0,0,1-3,1.3,4.46,4.46,0,0,1-2.34-.25c-1.31,1.24-2.13,2.25-1.79,2.62,1.12,1.24,12.22-4.34,13.85-6.63l1.58-8.56Z"/><path class="cls-13" d="M82.19,180.57c0,.51.55,5.24.55,5.24s11.58,9,10.41,10.22-12.05-4.8-13.59-7.15l-1.26-8.61Z"/><path class="cls-14" d="M91.94,193.84a5.85,5.85,0,0,1-3.17-.55,13.48,13.48,0,0,1-5.87-4.95,3.32,3.32,0,0,1-.2-2.91c-.13-1.12-.51-4.44-.51-4.86l-3.89-.3,1.26,8.61C81.1,191.23,92,197.22,93.15,196,93.45,195.72,92.91,194.9,91.94,193.84Z"/><path class="cls-3" d="M52.51,97.74s-1.6,29.13-1.79,33.18-.75,10.63-1,15.7,1.29,27,1.84,31.56a4.58,4.58,0,0,0,4.57,0s3.18-19.4,3.79-27,5-26.93,5-26.93,6.14,21.1,6.71,25.19,5.89,31.76,5.89,31.76,4.14,3.74,5.86-.49c0,0-1-23.15-1.33-31.55s-3.53-27.84-3.07-32.38-1.83-15.32-1.87-19.89S56,93.84,52.51,97.74Z"/><path class="cls-15" d="M82,147.75a6.32,6.32,0,0,1-7-1.18c-6.46-6.27-6.41-17.25-6.72-25.58-.11-3,3-5.44,5.83-5.31.24,0,.46,0,.68.07a5.64,5.64,0,0,1,4.19.82c.4-4.65-1.84-15.2-1.88-19.71s-21.19-3-24.67.88c0,0-.47,8.63-.94,17.14,2.7-.44,5.54,1.21,7,3.68,3,4.92,1.82,10.2,1.35,15.58-.41,4.68-.07,10.35-3.28,14.18-1.7,2-4.55,3.15-6.92,2.13.23,8.13,1.36,23.91,1.82,27.73a4.58,4.58,0,0,0,4.57,0s3.18-19.4,3.79-27,5-26.93,5-26.93,6.14,21.1,6.71,25.19,5.89,31.76,5.89,31.76,4.14,3.74,5.86-.49c0,0-1-23.15-1.33-31.55C82.1,148.7,82.07,148.24,82,147.75Z"/><path class="cls-16" d="M60.85,112a8.26,8.26,0,0,0-1.7-.71,5.83,5.83,0,0,1-.83-.23,2.27,2.27,0,0,1,.87,0,7.43,7.43,0,0,1,1.81.59,11.07,11.07,0,0,1,1.63,1c.41.32.67.56.67.56a13.81,13.81,0,0,1,1.78,2.13,8.35,8.35,0,0,1,1.22,2.47c-.06,0-.66-1.2-1.49-2.28a15.44,15.44,0,0,0-1.83-2s-.24-.23-.63-.56A10.46,10.46,0,0,0,60.85,112Zm1.7,3.53c.35.26.57.44.57.44l.57.45a14.27,14.27,0,0,1,1.18,1c.82.82,1.48,1.78,1.54,1.75a7.47,7.47,0,0,0-1.29-2A12.65,12.65,0,0,0,64,116.07l-.55-.49-.61-.42c-.36-.26-.89-.54-1.4-.83a9,9,0,0,0-2.18-.87c0,.06,1,.56,2,1.16C61.72,115,62.22,115.25,62.55,115.52Zm10,34.4c-.45-1.66-1.12-3.86-1.78-6.06-1.34-4.39-2.63-8.79-2.63-8.79s-.32-1.1-.79-2.75-1-3.87-1.59-6.08-1-4.48-1.19-6.18c-.14-.85-.25-1.55-.33-2a4,4,0,0,0-.16-.78,7.13,7.13,0,0,0,.06.78c.06.5.14,1.22.24,2.07.11,1.18.37,2.6.66,4.11l-.21.43c-.15.37-.42.89-.65,1.55a43.89,43.89,0,0,0-1.54,4.88c-.44,1.8-.8,3.63-1,5l-.38,2.29-1,7.38c-.25,1.84-.53,3.67-.79,5-.11.69-.25,1.25-.32,1.65a3.15,3.15,0,0,0-.09.64,5.16,5.16,0,0,0,.19-.61c.1-.4.26-1,.4-1.64.31-1.36.65-3.2,1-5,.55-3.68,1.11-7.36,1.11-7.36s.14-.91.34-2.29.54-3.19.94-5a50.22,50.22,0,0,1,1.38-4.9c.2-.66.44-1.19.57-1.57.06-.16.1-.27.13-.37.13.66.26,1.33.38,2,.53,2.23,1,4.47,1.5,6.13l.75,2.76s1.34,4.4,2.77,8.76c.7,2.19,1.42,4.37,1.92,6l.63,2a5.84,5.84,0,0,0,.27.74,5.12,5.12,0,0,0-.17-.77C73,151.45,72.83,150.75,72.6,149.92ZM80.77,145c.27,2.5.53,5,.53,5s.07.63.17,1.57.2,2.19.3,3.44.14,2.51.12,3.46A11.78,11.78,0,0,0,82,160a9.65,9.65,0,0,0,.13-1.57c.07-.95,0-2.21,0-3.47s-.1-2.53-.2-3.47-.13-1.58-.13-1.58-.31-2.5-.68-5c-.18-1.25-.35-2.49-.49-3.43a9.36,9.36,0,0,0-.27-1.55,11.86,11.86,0,0,0,.09,1.58C80.5,142.51,80.63,143.76,80.77,145ZM77,110.39c0-.07-1.2-.89-2.34-1.81a25.9,25.9,0,0,1-2.14-2l-.61-.68-.29-.32-.3-.4c-.2-.27-.43-.56-.64-.86-.81-1.22-1.33-2.6-1.41-2.57a4.11,4.11,0,0,0,.26.89,13,13,0,0,0,.87,1.86c.19.32.41.62.6.92l.29.42.29.34.6.72a22,22,0,0,0,2.27,2c.62.41,1.22.85,1.72,1.11A4.31,4.31,0,0,0,77,110.39Zm-22.29-6.5a9.86,9.86,0,0,0,0-1.47,5.54,5.54,0,0,0-.47-2.06c-.07,0,.16,1,.13,2.07a10.79,10.79,0,0,1-.13,1.41c0,.38-.09.63-.09.63s0,.25-.11.63-.2.88-.32,1.38c-.29,1-.76,1.91-.7,2a6.21,6.21,0,0,0,1-1.84,13.15,13.15,0,0,0,.43-1.39l.15-.65S54.65,104.28,54.69,103.89Zm4.24.53c0,.37.06.62.06.62l0,.16c0,.11.07.26.11.44a11.39,11.39,0,0,0,.42,1.31,5.8,5.8,0,0,0,.33.66c0,.11.11.21.16.3a1.5,1.5,0,0,0,.18.24c.23.3.39.48.42.46a2.13,2.13,0,0,0-.26-.55,2.15,2.15,0,0,1-.14-.26l-.12-.3c-.08-.22-.19-.43-.25-.66a11.22,11.22,0,0,1-.31-1.29c0-.18-.06-.32-.08-.43a.91.91,0,0,1,0-.16l-.1-.6c-.07-.35-.09-.83-.15-1.31-.06-1,0-1.94-.08-2a6.49,6.49,0,0,0-.26,2C58.89,103.55,58.88,104.05,58.93,104.42Zm2.59.63a14.21,14.21,0,0,0,.61,2,7.32,7.32,0,0,0,1,1.83c.07,0-.4-1-.71-1.94a18.43,18.43,0,0,1-.47-2s0-.25-.11-.63-.12-.89-.19-1.39c-.1-1-.1-2.07-.17-2.07a8.08,8.08,0,0,0-.17,2.08A16,16,0,0,0,61.52,105.05ZM52.84,176.4c0-.79-.14-1.91-.08-3.28,0-2.71.29-6.32.42-10,0-1.81.11-3.63.12-5.33s0-3.29,0-4.65c0-2.72,0-4.53,0-4.53s0-.45,0-1.24V142c0-.78,0-1.6.05-2.44s0-1.73,0-2.62.09-1.78.14-2.68l.15-2.7c0-.22,0-.44,0-.66s0-.44.07-.65c0-.43.09-.86.14-1.28.09-.84.17-1.66.25-2.43,0-.39.09-.76.12-1.12s.12-.71.18-1c.23-1.34.41-2.45.54-3.24.07-.38.11-.69.14-.9a1.86,1.86,0,0,0,0-.33,1.29,1.29,0,0,0-.08.32c-.05.2-.11.51-.19.9-.15.77-.37,1.88-.63,3.22-.07.33-.13.68-.2,1s-.09.73-.14,1.12c-.1.77-.2,1.59-.3,2.43-.05.42-.1.85-.16,1.28,0,.22,0,.44-.08.66s0,.44,0,.66c-.07.89-.13,1.79-.19,2.69s-.14,1.81-.17,2.7S53,138.66,53,139.5s-.05,1.67-.07,2.45,0,1.51,0,2.19c0,1.36,0,2.49,0,3.28v1.24s0,1.82,0,4.54c0,1.36,0,2.94,0,4.64s0,3.51-.06,5.32c-.08,3.62-.36,7.24-.27,10,0,1.36.13,2.49.18,3.28,0,.4.06.71.08.92a1.64,1.64,0,0,0,0,.32,1.37,1.37,0,0,0,0-.33C52.87,177.11,52.86,176.8,52.84,176.4ZM82,178.85c0-.21-.1-.51-.19-.9s-.15-.86-.24-1.4-.16-1.17-.23-1.84c-.15-1.35-.24-2.93-.28-4.63,0-.85,0-1.72-.06-2.62l0-1.34c0-.45-.06-.91-.08-1.36q-.09-1.37-.18-2.7c-.06-.9-.11-1.77-.22-2.62-.19-1.69-.37-3.27-.52-4.62-.39-2.69-.64-4.49-.64-4.49l-.19-1.23c-.13-.78-.32-1.89-.54-3.23-.11-.67-.25-1.4-.35-2.16s-.22-1.58-.33-2.42-.23-1.7-.35-2.58-.19-1.79-.28-2.68l-.53-5.29c-.19-1.68-.31-3.26-.52-4.6l-.46-3.25c-.06-.39-.11-.7-.14-.91a2.92,2.92,0,0,0-.06-.32,1.19,1.19,0,0,0,0,.33c0,.21.06.52.1.91.09.79.22,1.91.37,3.26s.27,2.92.43,4.61l.47,5.29.24,2.69c.11.88.22,1.75.33,2.59s.21,1.66.3,2.43.23,1.5.33,2.17c.22,1.34.39,2.45.52,3.23s.18,1.23.18,1.23.27,1.79.67,4.48c.17,1.35.36,2.92.56,4.6.12.84.18,1.72.25,2.61s.14,1.79.21,2.69c0,.45.08.9.1,1.35s0,.9,0,1.34c0,.9.06,1.77.09,2.62.07,1.7.19,3.29.36,4.64.09.68.17,1.3.28,1.84s.18,1,.29,1.4l.23.89a2.46,2.46,0,0,0,.1.31A1.55,1.55,0,0,0,82,178.85Z"/><path class="cls-2" d="M57.42,48.73c.17-.37.32-.75.47-1.13a6.37,6.37,0,0,0-.11,2.07S57.62,49.32,57.42,48.73Z"/><path class="cls-15" d="M51.87,109.34l.64-11.6c3.48-3.9,24.63-5.46,24.67-.88,0,2.53.74,7,1.29,11.22a22.18,22.18,0,0,1-17.75-4.63A18.9,18.9,0,0,1,51.87,109.34Z"/><path class="cls-13" d="M85.59,48.13s-9.23-5.89-20-5.89-16.66,3.84-19.22,5.89-1.54,21.28,1,27.69a62.54,62.54,0,0,1,3.33,15.12c.25,3.07-.64,14.22-.64,14.22a19,19,0,0,0,10.63-5.89,23.38,23.38,0,0,0,19,4.1,152.62,152.62,0,0,1-1.54-21.66C78.41,72.23,85.33,53.26,85.59,48.13Z"/><path class="cls-14" d="M50.73,90.94a70,70,0,0,0-1.48-9A18.81,18.81,0,0,0,63,84.12c8.52-1.88,14.92-10.69,16.22-19a54.26,54.26,0,0,0,0-18.81,12.24,12.24,0,0,0-.32-1.39l.72.29.2.08.49.2.25.11.41.18.26.11.35.16.26.12.32.15.25.12.29.14.23.12.27.13.21.11.24.13.2.1.21.11.18.1.19.11.15.08.16.09.13.08.14.08.1.06.12.07.07,0,.09.05.06,0,.06,0h0c-.26,5.13-7.18,24.1-7.44,33.58a152.62,152.62,0,0,0,1.54,21.66l-1.24.21-.36,0-.88.11-.35,0-1,.07H75.7l-1.18,0c0-.43.07-.86.07-1.3v-.1a12.07,12.07,0,0,0-24.14,0v.1a11.92,11.92,0,0,0,.26,2.48l-.58.11h0S51,94,50.73,90.94Z"/><path class="cls-3" d="M47.4,75.69a3.77,3.77,0,0,0-.09-.59c-.08-.37-.18-.89-.31-1.52s-.26-1.37-.4-2.16-.32-1.62-.41-2.48c-.2-1.69-.45-3.39-.5-4.67s-.16-2.13-.16-2.13,0-.21-.05-.58,0-.91,0-1.54,0-1.39,0-2.18.08-1.65.12-2.51.14-1.7.2-2.5.13-1.54.2-2.18.1-1.17.13-1.54a2.42,2.42,0,0,0,0-.59,4.55,4.55,0,0,0-.11.58c-.06.37-.14.9-.23,1.53s-.19,1.38-.28,2.18-.21,1.64-.27,2.5S45.1,57,45,57.82s0,1.56,0,2.2,0,1.19,0,1.56,0,.59,0,.59.08.85.19,2.14.37,3,.62,4.69c.11.85.32,1.68.47,2.47s.31,1.53.49,2.15.3,1.14.4,1.51A2.66,2.66,0,0,0,47.4,75.69Z"/><path class="cls-3" d="M60.74,99.27c.14,0,0-5.27,0-5.27s0-1.31-.09-2.62a16.76,16.76,0,0,0-.18-2.63,19.89,19.89,0,0,0-.16,2.63c0,.66,0,1.32,0,1.81s0,.82,0,.82S60.61,99.28,60.74,99.27Z"/><path class="cls-17" d="M73,42.24s-4.1,10.51-6.15,15.12-2.57,14.87-3.34,17.17-2.47,11-2.47,11a45.06,45.06,0,0,1-6.75-15.57c-2-9.23,0-21.53,3.58-26.4S68.16,39.42,73,42.24Z"/><path class="cls-2" d="M73,42.24s-4.1,10.51-6.15,15.12-2.57,14.87-3.34,17.17-2.47,11-2.47,11a45.06,45.06,0,0,1-6.75-15.57c-2-9.23,0-21.53,3.58-26.4S68.16,39.42,73,42.24Z"/><path class="cls-7" d="M65.59,46.34s-1.28,3.2-3.07,4.23c0,0,.51,7,.77,12.43S60.9,86.88,60.9,86.88s-4.28-12.09-5-17.47,3.85-19.1,3.85-19.1-1.92-.77-1.41-4.61S64.82,39.16,65.59,46.34Z"/><path class="cls-10" d="M59.92,66.53c.34-4.78,1.64-9.72.4-14.46a2.11,2.11,0,0,0-.8-1.21c.11-.35.18-.55.18-.55A2.89,2.89,0,0,1,58.28,48a4.18,4.18,0,0,0,2,.73,3.18,3.18,0,0,0,1.92-.49,3.07,3.07,0,0,0,1.4-2.45A3.29,3.29,0,0,0,63,43.67a2.36,2.36,0,0,0-1.34-1,2.24,2.24,0,0,0-1.72.22l-.28.18c2-1.93,5.37-2,5.93,3.29,0,0-1.28,3.2-3.07,4.23,0,0,.51,7,.77,12.43S60.9,86.88,60.9,86.88s-.7-2-1.58-4.65C59.66,77,59.55,71.76,59.92,66.53Z"/><path class="cls-14" d="M52.46,51.3c4.78-11.68,7.47-9.76,7.47-9.76A53.08,53.08,0,0,0,56.17,64.7a103.84,103.84,0,0,0,4.64,23.63c.44-5.21,1.6-17.83,3.17-25.27,2-9.55,8.84-18,7.83-22.81,0,0,4.61,2.41,4.44,7s-1.85,14.32-3.7,16.35-5.71,1-5.71,1,3.53,5.79,2.18,9.7a51,51,0,0,1-3.75,7.73c-.82,1.5-1.65,3-2.47,4.5s-1.1,2.89-2.15,4.09C60,89.38,58.47,88.26,57.58,87a31.93,31.93,0,0,1-2.68-4.69,45,45,0,0,1-3.21-9.18c-1.39-6,1.41-9.58,1.41-9.58C50.88,63,49.1,59.5,52.46,51.3Z"/><path class="cls-3" d="M71.81,40.25s4.61,2.32,4.44,6.77-1.85,13.8-3.7,15.75-5.71,1-5.71,1,3.53,5.58,2.18,9.34-5.71,10.59-8.4,15.74c0,0,1.34-17.41,3.36-26.61S72.82,44.85,71.81,40.25Z"/><path class="cls-15" d="M65.49,66.78A11.71,11.71,0,0,0,64,62.16l.06-.26a10.35,10.35,0,0,0,5-2.48c3.77-3,4.64-7.63,5.14-12.12a8.28,8.28,0,0,0-2.3-5.93,4.58,4.58,0,0,0-.09-1.12s4.61,2.32,4.44,6.77-1.85,13.8-3.7,15.75-5.71,1-5.71,1,3.53,5.58,2.18,9.34-5.71,10.59-8.4,15.74c0,0,.11-1.42.31-3.67C64.09,79.57,66.2,73.25,65.49,66.78Z"/><path class="cls-3" d="M61.13,87.47a96.47,96.47,0,0,1-5-23.68,49.5,49.5,0,0,1,3.76-22.3s-2.69-1.85-7.47,9.4c-3.36,7.9-1.58,11.27.64,11.79,0,0-2.8,3.45-1.41,9.23C52.85,76.73,56,85,61,88.87Z"/><path class="cls-15" d="M55.5,72.36c-.4-1.91-1.2-6.94-3.4-7.84a7.94,7.94,0,0,1,1-1.84,2.93,2.93,0,0,1-1.93-1.58c1.72-1.27,2.67-3.88,3.11-6a25.07,25.07,0,0,1,1.56-5.84,63.1,63.1,0,0,0,3.52-7.88v0a1,1,0,0,1,.57.11,49.5,49.5,0,0,0-3.76,22.3,96.47,96.47,0,0,0,5,23.68L61,88.87a19.49,19.49,0,0,1-4.42-5.16C57.21,80,56.21,75.76,55.5,72.36Z"/><path class="cls-17" d="M70.81,37.11a5.22,5.22,0,0,1,.55,7.69,13.61,13.61,0,0,1-6.54,5.39s1.2-4.87-2.56-7.78c0,0-5,2.31-4.48,7.26a13.31,13.31,0,0,1-1-6.58C57.31,39.85,63.46,34.55,70.81,37.11Z"/><path class="cls-2" d="M59,43a.28.28,0,0,0,0-.09,5.83,5.83,0,0,0-.5-2.88,11.59,11.59,0,0,1,12.3-2.94,5.46,5.46,0,0,1,1.94,4.82,2.11,2.11,0,0,0-1.6-.73c-2.66-.07-5.34,0-6.59,2.86-.12.27-.22.53-.31.8a6.83,6.83,0,0,0-2-2.45,9.28,9.28,0,0,0-3.39,2.94A6.26,6.26,0,0,0,59,43Z"/><path class="cls-18" d="M62.75,41.62a9.23,9.23,0,0,1-3-.79c0-.07,1.53.38,3.08.45a14.55,14.55,0,0,0,2.12,0l.69-.09.26,0,.25,0a5.2,5.2,0,0,0,.68-.13,9,9,0,0,0,2-.72A7.27,7.27,0,0,0,70.43,39a6.81,6.81,0,0,1,.67-.7,2.87,2.87,0,0,1-.53.83,6.68,6.68,0,0,1-1.66,1.42,8.78,8.78,0,0,1-2,.85c-.28.09-.53.13-.7.17l-.27.05-.27,0-.72.06A13.86,13.86,0,0,1,62.75,41.62Z"/><path class="cls-18" d="M58.44,45.62c.08-.19.18-.34.23-.45l.09-.17s.15-.24.41-.57a5.78,5.78,0,0,1,1.12-1.07,4.58,4.58,0,0,1,1.38-.67,3.85,3.85,0,0,1,.49-.11,1.51,1.51,0,0,0-.17-.1c-.36-.23-.64-.32-.63-.37a.66.66,0,0,1,.21,0,2.26,2.26,0,0,1,.51.18,3.68,3.68,0,0,1,1.3,1,6.53,6.53,0,0,1,.91,1.38c.1.2.17.38.22.5a1.24,1.24,0,0,1,.08.19,10,10,0,0,1,.46,2.33,7.07,7.07,0,0,1,0,1.62,1.82,1.82,0,0,1-.19.72,3.62,3.62,0,0,1,0-.73,9.26,9.26,0,0,0-.11-1.58,10.53,10.53,0,0,0-.57-2.2,1.44,1.44,0,0,0-.07-.18c0-.12-.11-.29-.18-.48a6.87,6.87,0,0,0-.77-1.36,4.84,4.84,0,0,0-.87-.88l-.52.21a5.48,5.48,0,0,0-1.23.77,6.1,6.1,0,0,0-1,1.06c-.23.33-.36.56-.36.56l-.09.15c0,.1-.15.24-.24.42a10.3,10.3,0,0,0-.58,1.34c-.36,1-.54,2.09-.61,2.09a6.65,6.65,0,0,1,.28-2.19A11.25,11.25,0,0,1,58.44,45.62Z"/><path class="cls-18" d="M56.69,44.4a13.15,13.15,0,0,1,.13-1.4c.07-.38.13-.63.13-.63s.07-.25.21-.61a6.29,6.29,0,0,1,.68-1.25,5,5,0,0,1,1-1,1.71,1.71,0,0,1,.55-.33s-.17.21-.43.47a6.62,6.62,0,0,0-.81,1.07,6.78,6.78,0,0,0-.54,1.21c-.11.35-.17.59-.17.59s-.07.23-.15.59A11.91,11.91,0,0,0,57,44.43a17.13,17.13,0,0,1-.24,2A7.93,7.93,0,0,1,56.69,44.4Z"/><path class="cls-18" d="M67.21,48.74c.55-.47,1.28-1.11,2-1.8a16.42,16.42,0,0,0,1.71-2,10.5,10.5,0,0,0,.65-1,8,8,0,0,0,.55-1,5.44,5.44,0,0,0,.52-2.5,4.39,4.39,0,0,0-.31-1.32,4.92,4.92,0,0,0-.61-1c-.44-.57-.81-.88-.78-.92a1.15,1.15,0,0,1,.28.19,4.42,4.42,0,0,1,.64.62,4.73,4.73,0,0,1,.71,1,4.41,4.41,0,0,1,.41,1.42,5.48,5.48,0,0,1-.45,2.69,8.76,8.76,0,0,1-.55,1.11,11,11,0,0,1-.7,1,17.68,17.68,0,0,1-1.83,2,22,22,0,0,1-2.07,1.71,5,5,0,0,1-1,.65A10.19,10.19,0,0,1,67.21,48.74Z"/><path class="cls-13" d="M86.23,48.34c-.64-.41-1.37.47-2.11,1.37a23.59,23.59,0,0,0-1.78,2.76,27.6,27.6,0,0,0-2.57,5.74c-1.66,5.22-2.6,10.11-.17,15.19,1.93,4.06,4,9,3.72,13.51-.18,2.79-1.91,5.39-3.69,7.56a51.68,51.68,0,0,1-5.76,6.08c-.82.72-1.58,1.51-2.45,2.18-.46.36-2.13,1-2.27,1.55-.31,1.22,3.38,4.31,4.31,5.07a11.46,11.46,0,0,0,5,2.6S94.38,94.8,95.23,87.71c.42-3.5-.63-7.32-1.32-10.72C92.63,70.83,91,64.72,89.39,58.63c-.65-2.37-1.31-4.75-2-7.11A18.64,18.64,0,0,0,86.73,49,1.69,1.69,0,0,0,86.23,48.34Z"/><path class="cls-14" d="M93.91,77V77c-.28-1.34-.58-2.68-.89-4-.14-.62-.28-1.25-.43-1.88-.09-.36-.18-.72-.26-1.08l-.12-.49c-.6-2.47-1.24-5-1.87-7.32-.2-.79-.42-1.58-.63-2.36-.11-.39-.21-.78-.31-1.17a.19.19,0,0,1,0-.07q-1-3.56-2-7.08h0c-.35-1.24-.63-2.19-.8-2.76h0a1,1,0,0,0-.16-.22l0,0a1.14,1.14,0,0,0-.17-.15c-.64-.41-1.37.47-2.11,1.37a23.59,23.59,0,0,0-1.78,2.76,27.6,27.6,0,0,0-2.57,5.74l-.27.87c0,.11-.07.22-.1.33l-.15.53-.12.4-.12.45c0,.15-.07.3-.11.45s-.06.23-.08.34c-.09.35-.16.69-.23,1l0,.21c0,.2-.08.4-.11.59s0,.15,0,.23l-.09.61s0,.1,0,.14a19.67,19.67,0,0,0-.16,2.86v.07a15,15,0,0,0,.37,3,35.49,35.49,0,0,1,.14-5.54c.29-2.74,1.64-10.62,6.17-8.67,3.8,1.63,3.39,6.82,4.15,9.88a28.92,28.92,0,0,1,.79,5.52,40.75,40.75,0,0,1,.77,4.91c.24,3.17-.2,6.76-3.79,8.1a3.38,3.38,0,0,1-3.56-.66c0,.25.07.51.09.77a.07.07,0,0,1,0,0c0,.24,0,.47,0,.71a2,2,0,0,1,0,.25c0,.17,0,.35,0,.52s0,.53,0,.8a8.67,8.67,0,0,1-.47,2.25,6,6,0,0,1,.77.1A5.75,5.75,0,0,1,85,89.08,3.14,3.14,0,0,1,88.31,92c.06,2.29-1.31,4.62-2.52,6.54A29.49,29.49,0,0,1,81,104.65c-2.14,1.92-4.81,3-7.43,1.13-1.66-1.18-1.35-3-.39-4.55-.56.51-1.11,1-1.71,1.5-.31.24-1.18.62-1.75,1l-.47.44a.93.93,0,0,0,0,.1v.1a20.14,20.14,0,0,0,4.35,5l.28.22a12.41,12.41,0,0,0,4.4,2.29l.27.06,0,0,0,0,.08-.08.07-.08,0-.06.13-.14.85-1a.94.94,0,0,0,.1-.1l.29-.33a1.29,1.29,0,0,1,.16-.17c.09-.11.19-.23.3-.34s.12-.15.19-.22l.32-.36.2-.24.35-.4.16-.18.78-.92.23-.25.35-.42.3-.36.35-.41.33-.4.35-.42.34-.42.36-.44.36-.44.35-.44c.13-.16.25-.32.38-.47s.23-.29.34-.43l.47-.6.44-.57.5-.65.3-.4.41-.55.32-.43.38-.52.32-.44.37-.52.3-.43.37-.54.28-.41.39-.59.23-.35c.18-.28.36-.56.53-.84a.86.86,0,0,0,.1-.16c.17-.28.34-.55.5-.83l.18-.31.33-.58a3.79,3.79,0,0,0,.18-.34l.28-.53.17-.34c.09-.17.17-.34.24-.5s.1-.22.15-.33a5.32,5.32,0,0,0,.21-.5l.12-.29c.07-.18.13-.35.18-.52s.06-.16.08-.23a7.5,7.5,0,0,0,.32-1.4C95.47,85.72,94.88,81.74,93.91,77Z"/><path class="cls-3" d="M88.14,85.54a17.4,17.4,0,0,0-1.87,1.07A11.27,11.27,0,0,0,84.63,88a20.15,20.15,0,0,0-1.58,1.9c-1,1.35-1.9,2.77-2.65,3.8a18.78,18.78,0,0,1-1.33,1.68,4.31,4.31,0,0,1-.42.42l-1.13,1.06c-1,.87-2.17,2-3.39,3.23s-2.61,2.24-3.57,3.09c-.48.41-.86.78-1.12,1.05a2.6,2.6,0,0,1-.4.42,2.19,2.19,0,0,1,.32-.48,15.44,15.44,0,0,1,1.06-1.13c.93-.89,2.29-1.94,3.44-3.17s2.4-2.44,3.32-3.31l1.1-1.07a3.63,3.63,0,0,0,.4-.42A17.26,17.26,0,0,0,80,93.48c.77-1,1.7-2.4,2.75-3.75a20.24,20.24,0,0,1,1.66-1.88,10.91,10.91,0,0,1,1.74-1.39,5.34,5.34,0,0,1,.78-.45,4.1,4.1,0,0,1,.63-.28A2.27,2.27,0,0,1,88.14,85.54Z"/><path class="cls-3" d="M79.19,71.57a2.09,2.09,0,0,1-.25-.46,7,7,0,0,1-.43-1.3,12.77,12.77,0,0,1-.16-4.12c.15-1.5.45-3,.67-4.08s.4-1.83.4-1.83l.13-.51c.07-.32.22-.77.39-1.31a25.37,25.37,0,0,1,1.58-3.85,26.71,26.71,0,0,1,2.22-3.56c.34-.46.65-.83.86-1.09s.34-.4.36-.39a18.46,18.46,0,0,1-1.06,1.58,31.59,31.59,0,0,0-2.05,3.6,24.94,24.94,0,0,0-1.46,3.83c-.16.54-.29,1-.36,1.3l-.11.5s-.19.72-.44,1.82-.58,2.55-.77,4a13.78,13.78,0,0,0,0,4.06A18.1,18.1,0,0,0,79.19,71.57Z"/><g class="cls-19"><path class="cls-20" d="M77.54,112.12a5.63,5.63,0,0,1-.87-.34,18.7,18.7,0,0,1-1.83-.93,27,27,0,0,1-2.46-1.68,27.82,27.82,0,0,1-2.17-2,18.13,18.13,0,0,1-1.29-1.59,6,6,0,0,1-.51-.78,4.91,4.91,0,0,1,.61.7A18.35,18.35,0,0,0,70.37,107a29,29,0,0,0,2.2,2s1.15.94,2.39,1.74c.64.37,1.26.78,1.76,1A6.05,6.05,0,0,1,77.54,112.12Z"/></g><path class="cls-12" d="M70.18,17.52c3.72-.62,7.28-1.88,9.51-5.55a7.64,7.64,0,0,1-1,2s-.7,5.09-1.22,7.29a3.71,3.71,0,0,0-2.72,1.51,3.66,3.66,0,0,0-1,2.54l-2.54-.52L72,18.54A6,6,0,0,1,70.18,17.52Z"/><path class="cls-4" d="M48.93,19s-3.27-2.47-4,.15.3,9.35,2.85,7.8S48.93,19,48.93,19Z"/><path class="cls-21" d="M48.93,19a7.31,7.31,0,0,0-1.35-.77,1.44,1.44,0,0,0-1.19,1.19c-.55,2-.1,6.26,1.24,7.61l.15-.08C50.32,25.37,48.93,19,48.93,19Z"/><path class="cls-6" d="M47.21,26.14a13.36,13.36,0,0,0,.33-1.82,8,8,0,0,0-.08-1.83l-.1-.56a5.46,5.46,0,0,0-.42-1.18,3.72,3.72,0,0,0-.74-1c-.25-.24-.45-.36-.43-.39a1.8,1.8,0,0,1,.51.3,3.55,3.55,0,0,1,.85,1,5.16,5.16,0,0,1,.5,1.22c.09.35.13.58.13.58a7.45,7.45,0,0,1,0,1.9A4.94,4.94,0,0,1,47.21,26.14Z"/><path class="cls-6" d="M46.09,24.93a1.87,1.87,0,0,1,0-.78,4.82,4.82,0,0,1,.1-.54l.08-.24a.91.91,0,0,1,.12-.23,2.14,2.14,0,0,0,.13-.22l.21-.22a1.09,1.09,0,0,1,.7-.37s-.33.22-.54.51l-.15.22a2.09,2.09,0,0,1-.1.21,1,1,0,0,0-.08.22s0,.08-.09.21a4.73,4.73,0,0,0-.16.49A4.15,4.15,0,0,1,46.09,24.93Z"/><path class="cls-4" d="M60.88,3.38s-8,1.43-10.26,6.55-1.83,13.41-1.83,13.41a26.94,26.94,0,0,0,.07,8.2,5.14,5.14,0,0,0,2.27,4.05c2.16,1.38,5.4,1.14,8,1.35,1.62.78.14,2.39.78,3.92,3.82,1.85,7.11.49,9.57-1.3,1.59-1.15.71-5.82,3.57-8.62a2,2,0,0,0,.24-.35s4.62,1.91,7.11-1.77,1.27-9.34-4.12-7.2C76.31,21.62,78.52,3.74,60.88,3.38Z"/><g class="cls-5"><path class="cls-6" d="M75.72,25.29c-1,1.54-.75,3.38.44,4.11s2.14,0,3.08-1.59,1.53-3.27.34-4S76.66,23.75,75.72,25.29Z"/></g><path class="cls-6" d="M75.43,25.74a5.76,5.76,0,0,1,.35-.6,4.81,4.81,0,0,1,.45-.51,4.55,4.55,0,0,1,1.22-.87,3,3,0,0,1,1.45-.33,1.26,1.26,0,0,1,.65.17s-.27,0-.64,0A3.1,3.1,0,0,0,77.6,24a4.39,4.39,0,0,0-1.06.88,4.92,4.92,0,0,0-.39.49,5,5,0,0,0-.35.52l-.07.15h0a1.51,1.51,0,0,1,.75-.17,1.7,1.7,0,0,1,.76.23,1.58,1.58,0,0,1,.22.16l.08.06.06.08a1.17,1.17,0,0,1,.15.22,1.52,1.52,0,0,1,.22.77,1.39,1.39,0,0,1-.2.75c-.12.17-.21.26-.24.25s0-.15.08-.32a1.55,1.55,0,0,0,0-.65,1.25,1.25,0,0,0-.25-.57,1.67,1.67,0,0,0-.19-.21l0-.05A1.08,1.08,0,0,0,77,26.5a1.38,1.38,0,0,0-.57-.27,1.55,1.55,0,0,0-.65,0l-.17,0a3.82,3.82,0,0,0-.28.94,3.57,3.57,0,0,0,0,.73,3.4,3.4,0,0,0,.16.63c.15.35.31.56.28.59a1.34,1.34,0,0,1-.44-.52,2.94,2.94,0,0,1-.25-.66,3.55,3.55,0,0,1-.06-.81A3.93,3.93,0,0,1,75.43,25.74Z"/><g class="cls-5"><path class="cls-6" d="M54.85,25a1.5,1.5,0,0,0,1.75,1,1.26,1.26,0,0,0,1.23-1.43s1.24,1.09,1.19,1.63S53.72,28.35,54.85,25Z"/></g><path class="cls-6" d="M59,26.1s-.12-.16-.29-.37a3.29,3.29,0,0,0-.74-.68,3.34,3.34,0,0,0-.9-.41,2,2,0,0,0-.43-.09l-.12,0-.3,0a1.25,1.25,0,0,0-.84.29,1.55,1.55,0,0,0-.41.84c-.06.27-.06.46-.1.46s-.08-.18-.09-.48a1.57,1.57,0,0,1,.37-1.05,1.31,1.31,0,0,1,.51-.37,2.54,2.54,0,0,1,.53-.13,2.36,2.36,0,0,1,.38,0h.15a2.33,2.33,0,0,1,.49.15,2.88,2.88,0,0,1,1,.56,2.53,2.53,0,0,1,.7.84C59,25.89,59.05,26.09,59,26.1Z"/><path class="cls-21" d="M50.17,11.12c.13-.39.28-.79.45-1.19,2.24-5.12,10.26-6.55,10.26-6.55,17.64.36,15.43,18.24,15.43,18.24l.32-.11-.17.78a3.71,3.71,0,0,0-2.72,1.51c-1.19,1.52,0,1.53,0,1.53l-3.17-.44.4-5.34s-4.23-1.29-4.8-6.88a30.61,30.61,0,0,1-11.69-1.15A13.37,13.37,0,0,1,50.17,11.12Z"/><path class="cls-11" d="M78.7,14s-.7,5.09-1.22,7.29a3.71,3.71,0,0,0-2.72,1.51,8.21,8.21,0,0,0-1.49,3.31l-2.46-.25.62-7.26s-3.68-1.34-4.25-6.93A30.51,30.51,0,0,1,55.49,10.5a12.79,12.79,0,0,1-4.87-.57S49,13.69,49.2,16.24a23.39,23.39,0,0,1-.37,5.93l-1.18-.86.44-3.51a6.54,6.54,0,0,1,.29-7.75S42,7.22,47.74.13a10.85,10.85,0,0,0,8.3,1C60.63-.15,74.7-1.45,76.36,5.68,76.36,5.68,82.45,8.42,78.7,14Z"/><path class="cls-12" d="M47.68.21C52.06,5.76,60.09,8.75,66.83,6c.31-.13.6-.27.88-.42A5.27,5.27,0,0,0,71.25,1c2.56.8,4.55,2.25,5.11,4.66a7.56,7.56,0,0,1,1.38.87,28,28,0,0,1-10.38,6.24c-.07-.36-.14-.73-.18-1.13A30.51,30.51,0,0,1,55.49,10.5a12.79,12.79,0,0,1-4.87-.57S49,13.69,49.2,16.24a23.39,23.39,0,0,1-.37,5.93l-1.18-.86.44-3.51a6.54,6.54,0,0,1,.29-7.75S42,7.24,47.68.21Z"/><path class="cls-12" d="M73.1,15c3.25.46,4.94-.49,5.72-1.19L78.7,14s-.7,5.09-1.22,7.29a3.71,3.71,0,0,0-2.72,1.51,8.21,8.21,0,0,0-1.49,3.31l-2.46-.25L71,23.23,72,18.54s-4.23-1.29-4.8-6.88C67.18,11.66,68.19,14.29,73.1,15Z"/><path class="cls-12" d="M49.2,16.24a23.39,23.39,0,0,1-.37,5.93l-1.18-.86.44-3.51a6.55,6.55,0,0,1,.27-7.73,3.28,3.28,0,0,0,2.26-.14S49,13.69,49.2,16.24Z"/><path class="cls-22" d="M51.45,7.54A12.11,12.11,0,0,1,50,6a9.81,9.81,0,0,1-.94-1.59,5.17,5.17,0,0,1-.28-.68,4.76,4.76,0,0,1-.18-.53,1.69,1.69,0,0,1-.1-.48s.23.67.73,1.61a11.58,11.58,0,0,0,1,1.51,14.14,14.14,0,0,0,1.42,1.49A15.22,15.22,0,0,0,54.89,9.4a15.66,15.66,0,0,0,1.61.7s.65.28,1.65.59a22.66,22.66,0,0,0,3.78.82,21.25,21.25,0,0,0,3.87.17c1.06-.06,1.76-.19,1.76-.15a1.62,1.62,0,0,1-.47.13,9.68,9.68,0,0,1-1.28.2,19,19,0,0,1-3.92,0A22.34,22.34,0,0,1,58,11.12c-1-.3-1.7-.57-1.7-.57a15.61,15.61,0,0,1-1.64-.75A15.2,15.2,0,0,1,51.45,7.54Z"/><path class="cls-22" d="M50.55,9.49l-.23-.14-.21-.16a6.47,6.47,0,0,1-.53-.45,8.07,8.07,0,0,1-1.35-1.61,8.26,8.26,0,0,1-.88-1.89,3.37,3.37,0,0,1-.22-.92,4.43,4.43,0,0,1,.39.85,10.1,10.1,0,0,0,1,1.77,7.87,7.87,0,0,0,1.36,1.47,6.25,6.25,0,0,0,.52.4l.2.14.21.14c.14.08.32.22.56.34a8.63,8.63,0,0,0,1.86.76c1.41.42,2.91.45,2.91.53a3.42,3.42,0,0,1-.94,0,10.44,10.44,0,0,1-2.06-.25,9,9,0,0,1-2-.7C50.9,9.7,50.69,9.57,50.55,9.49Z"/><path class="cls-22" d="M45.61,3.43c.08,0,0,1.29.35,2.51a6.08,6.08,0,0,0,.6,1.59,2.82,2.82,0,0,0,.29.47,1.8,1.8,0,0,0,.12.17,1.59,1.59,0,0,0,.13.16,2.82,2.82,0,0,0,.36.41,4,4,0,0,0,1.39.91,6.57,6.57,0,0,0,1.66.43,2.66,2.66,0,0,1,.79.11,2.81,2.81,0,0,1-.8.07A5.86,5.86,0,0,1,48.73,10a4.25,4.25,0,0,1-1.57-.91,2.87,2.87,0,0,1-.43-.43l-.15-.17-.12-.2a3.83,3.83,0,0,1-.3-.53A6.23,6.23,0,0,1,45.63,6,7.09,7.09,0,0,1,45.61,3.43Z"/><path class="cls-22" d="M75.77,4.68a4.78,4.78,0,0,0-.59-1.07,5.11,5.11,0,0,0-1-1,7.82,7.82,0,0,0-2.35-1.15c-.69-.22-1.16-.32-1.16-.32S70.21,1,69.49.91A26,26,0,0,0,66.83.58c-1-.09-2-.12-2.69-.16A7.51,7.51,0,0,1,62.91.33a5.82,5.82,0,0,1,1.23-.1c.74,0,1.72,0,2.71,0a23.94,23.94,0,0,1,2.71.24c.74.1,1.23.22,1.23.22A12.15,12.15,0,0,1,72,1.06,8.07,8.07,0,0,1,74.4,2.37a4.89,4.89,0,0,1,1,1.09,4.27,4.27,0,0,1,.54,1.16,4,4,0,0,1,.12.5,2.08,2.08,0,0,1,0,.39c0,.21,0,.34,0,.34S76,5.36,75.77,4.68Z"/><path class="cls-22" d="M53,2.46S52.6,2.4,52,2.27a13.21,13.21,0,0,1-2-.61,8.4,8.4,0,0,1-1.83-1A2.72,2.72,0,0,1,47.53,0a6.74,6.74,0,0,1,.79.5,9.76,9.76,0,0,0,1.85.84,13.79,13.79,0,0,0,2,.5L53,2A26.23,26.23,0,0,0,56,2.3c1.49.08,3,0,3,0a12.24,12.24,0,0,1-3,.3A21.73,21.73,0,0,1,53,2.46Z"/><path class="cls-22" d="M73,4.5l-.32-.27a11.65,11.65,0,0,0-1-.89,10.66,10.66,0,0,1-1.12-.82,3.63,3.63,0,0,1,1.31.54A8.93,8.93,0,0,1,73,3.87l.31.32a5.73,5.73,0,0,1,.6.8,3.11,3.11,0,0,1,.38.91c.07.26,0,.45,0,.45s-.08-.16-.19-.39a3.82,3.82,0,0,0-.49-.78A7.29,7.29,0,0,0,73,4.5Z"/><path class="cls-22" d="M72.3,6.1A6.42,6.42,0,0,0,71,4.71a8.38,8.38,0,0,0-1.69-.94c-.5-.19-.84-.3-.84-.3L68.2,3.4a6.09,6.09,0,0,0-.62-.19,16.08,16.08,0,0,0-1.93-.38c-1.42-.2-2.87-.15-2.88-.22a10.68,10.68,0,0,1,2.92-.12,15.66,15.66,0,0,1,2,.29c.27.05.49.13.65.17l.24.07s.35.12.86.34a9.06,9.06,0,0,1,1.73,1.08A5.92,5.92,0,0,1,72.46,6a2.75,2.75,0,0,1,.34.85A5.64,5.64,0,0,1,72.3,6.1Z"/><path class="cls-22" d="M79,10.44s-.09-.17-.22-.4a4.81,4.81,0,0,0-.51-.81,6.73,6.73,0,0,0-.93-1L77,7.91a3.33,3.33,0,0,0-.77-.52,1.58,1.58,0,0,0-.88-.2c-.25,0-.41.09-.43,0s0,0,.09-.09A1,1,0,0,1,75.36,7a1.72,1.72,0,0,1,1,.07,3.5,3.5,0,0,1,.91.49l.37.3A6.05,6.05,0,0,1,78.57,9,4.2,4.2,0,0,1,79,10,.8.8,0,0,1,79,10.44Z"/><path class="cls-22" d="M75.3,11a3.12,3.12,0,0,0,0-.35A5.78,5.78,0,0,0,75,9.59a6.6,6.6,0,0,0-.51-1c-.16-.27-.29-.43-.26-.46s.2.1.41.34a4.91,4.91,0,0,1,.67,1,5.29,5.29,0,0,1,.42,1.13,2.71,2.71,0,0,1,.08.39c0,.1,0,.15,0,.15a4.63,4.63,0,0,1,0,.56,2.44,2.44,0,0,1-.43,1.17,2.07,2.07,0,0,1-1,.69c-.32.07-.53.08-.54.05a2,2,0,0,1,.48-.23,2,2,0,0,0,.8-.7,2.25,2.25,0,0,0,.27-1c0-.29,0-.49,0-.49S75.31,11.11,75.3,11Z"/><path class="cls-22" d="M74.67,14.87s.35.08.86.12a3.24,3.24,0,0,0,.86-.05,3.66,3.66,0,0,0,.93-.32,4.37,4.37,0,0,0,1.38-1.21,5.54,5.54,0,0,0,.45-.71,4.48,4.48,0,0,0,.36-.75,4.87,4.87,0,0,0,.34-1.81,4.45,4.45,0,0,0-.14-1,3.7,3.7,0,0,0-.34-.8c-.25-.44-.51-.69-.48-.72a1.77,1.77,0,0,1,.64.62,3.16,3.16,0,0,1,.43.82,4.37,4.37,0,0,1,.22,1,5,5,0,0,1-.26,2,5.13,5.13,0,0,1-.35.84,5.2,5.2,0,0,1-.53.75,4.5,4.5,0,0,1-1.57,1.24,4.05,4.05,0,0,1-1,.29,3.42,3.42,0,0,1-.92,0A2,2,0,0,1,74.67,14.87Z"/><path class="cls-22" d="M67.72,13.85a9,9,0,0,0,.78,1.55,6.76,6.76,0,0,0,1.11,1.3,2.8,2.8,0,0,0,.43.36l.17.13s.24.19.63.44a7.35,7.35,0,0,0,1.56.7,8.52,8.52,0,0,0,1.7.29,3.76,3.76,0,0,1,.8.06,2.48,2.48,0,0,1-.8.13,6.86,6.86,0,0,1-1.78-.16A6.49,6.49,0,0,1,70.63,18a6.69,6.69,0,0,1-.71-.44l-.17-.14c-.11-.1-.28-.23-.45-.41a6.76,6.76,0,0,1-1.09-1.45,7.27,7.27,0,0,1-.67-1.67,2.34,2.34,0,0,1-.11-.8A3.23,3.23,0,0,1,67.72,13.85Z"/><path class="cls-22" d="M47.41,11.84a4.87,4.87,0,0,1,.68-1.25,1.5,1.5,0,0,1,.46-.46s-.13.23-.31.56A6.58,6.58,0,0,0,47.73,12a8.12,8.12,0,0,0-.26,1.33c0,.37,0,.62,0,.62a1.08,1.08,0,0,0,0,.16c0,.11,0,.27,0,.45a5.69,5.69,0,0,0,.18,1.33,4,4,0,0,0,.55,1.23,4.44,4.44,0,0,1,.37.52s-.25-.11-.51-.4A3.6,3.6,0,0,1,47.28,16a5.66,5.66,0,0,1-.3-1.42c0-.19,0-.36,0-.47v-.18s0-.27.07-.66A7.87,7.87,0,0,1,47.41,11.84Z"/><path class="cls-21" d="M59.16,36.94c-2.63-.21-5.87,0-8-1.35a5.14,5.14,0,0,1-2.27-4.05,18.54,18.54,0,0,1-.36-3.66,16.2,16.2,0,0,0,1.37,5C51.48,36,56.57,36.79,64.19,36s8.69-5.87,8.69-5.87L73,31c-2.76,2.82-1.92,7.41-3.49,8.55a12.1,12.1,0,0,1-3.46,1.8c-.94-1.74-2.21-3.53-3.33-3.32s-1.84,1.74-2.21,3.07l-.57-.25C59.3,39.33,60.78,37.72,59.16,36.94Z"/><path class="cls-11" d="M48,18.91c.06,0,1.21,0,1.27,0l0,.15-.07-.13.12,8.57s2.14-1.66,8.45-1.06A26.67,26.67,0,0,1,67.9,29.26s.57-5.32,3.52-8.09l5.94.18c-1.19.52-3.8,2.37-3.85,4.83-.08,3.4.21,3.85.21,3.85.54.92-1.68,4.53-2.35,5.14a12,12,0,0,1-4.92,2.68c-3.43.93-8.45.61-11.92.1-7.26-1.09-7.81-3.88-7.72-7.6A69.78,69.78,0,0,1,48,18.91Z"/><path class="cls-12" d="M46.81,30.35A69.78,69.78,0,0,1,48,18.91c.06,0,1.21,0,1.27,0l0,.15-.07-.13.07,5.34A6.22,6.22,0,0,0,48.49,31c2.06,4.08,6.2,5.32,10.34,5.13,2.78-.13,5.22-.19,7.72-1.61a9.15,9.15,0,0,0,3.58-4.24,9.69,9.69,0,0,0,1-4,3.82,3.82,0,0,0-1.38-2.85c.11-.2.23-.39.35-.58l0,0c.12-.18.24-.37.37-.54l0-.05c.13-.17.26-.34.4-.5,0,0,0,0,0,0,.15-.16.3-.32.46-.47l.72,0,4.7.14h.52c-1.19.52-3.8,2.37-3.85,4.83-.08,3.4.21,3.85.21,3.85.54.92-1.68,4.53-2.35,5.14a12,12,0,0,1-4.92,2.68c-3.43.93-8.45.61-11.92.1l-.66-.11C47.23,36.69,46.73,34,46.81,30.35Z"/><path class="cls-11" d="M62.34,17.27s.14,0,.28-.07a2,2,0,0,1,.52-.14,2,2,0,0,1,.51,0l.22.06a2.28,2.28,0,0,1,.72.2c.36.15.64.46.73.42s-.07-.51-.45-.83a2.52,2.52,0,0,0-.86-.48h-.32a1.84,1.84,0,0,0-.68.14,1.39,1.39,0,0,0-.55.39C62.35,17.13,62.31,17.24,62.34,17.27Z"/><path class="cls-11" d="M50.83,17.15c.11,0,.3-.3.58-.48a1.45,1.45,0,0,1,.4-.17c.12,0,.19-.05.19,0l.18-.05a.44.44,0,0,1,.2,0,2,2,0,0,1,.25,0c.33,0,.67.19.74.11s-.19-.41-.62-.59a2.23,2.23,0,0,0-.32-.09.81.81,0,0,0-.3,0h-.3l-.27.13a1.6,1.6,0,0,0-.49.4C50.77,16.69,50.75,17.14,50.83,17.15Z"/><path class="cls-13" d="M54.28,20.17c-.05,0-.17.26-.28.68s-.2,1-.35,1.48A2.23,2.23,0,0,1,53,23.42l-.35.18c-.06,0-.09,0-.1,0a1,1,0,0,1-.49.06A1.68,1.68,0,0,1,51,23c-.67-.81-1-1.91-1.15-1.87a3.62,3.62,0,0,0,.6,2.25,2.38,2.38,0,0,0,1.38,1.16,2.41,2.41,0,0,0,.67.05l.24-.05.06,0a.39.39,0,0,0,.2-.09c.13-.08.31-.2.51-.35a2.88,2.88,0,0,0,.78-1.6,10.09,10.09,0,0,0,.06-1.59C54.36,20.47,54.35,20.19,54.28,20.17Z"/><path class="cls-13" d="M62.25,21.19c-.07,0-.11.32-.17.78a8.26,8.26,0,0,0,0,1.76,2.89,2.89,0,0,0,.74,1.76l.28.26a1.49,1.49,0,0,0,.14.12l.16.07a1.42,1.42,0,0,0,.26.1l.29,0a1.89,1.89,0,0,0,.72-.12,3.54,3.54,0,0,0,1.47-1.19,4.5,4.5,0,0,0,1.06-2.31c-.12-.05-.71,1.05-1.56,1.87a2.89,2.89,0,0,1-1.24.8,1.1,1.1,0,0,1-.52,0l-.14-.05c-.05,0-.16-.11-.32-.21a2.17,2.17,0,0,1-.69-1.25A14.28,14.28,0,0,1,62.45,22C62.39,21.5,62.31,21.19,62.25,21.19Z"/><path class="cls-13" d="M54.35,27.59c.25.37,2.65,1.54,5.91.56,0,0-1,3.24-3.65,3.73S54.35,27.59,54.35,27.59Z"/><path class="cls-6" d="M60.72,27.77s0,.05-.12.12a2.13,2.13,0,0,1-.37.25,4.16,4.16,0,0,1-1.29.42,6.48,6.48,0,0,1-3.85-.47A4,4,0,0,1,54,27.38a1.79,1.79,0,0,1-.31-.33c-.06-.08-.1-.13-.09-.14s.18.17.47.37a4.41,4.41,0,0,0,1.15.6,7.55,7.55,0,0,0,1.85.43,7.64,7.64,0,0,0,1.89,0A4.23,4.23,0,0,0,60.17,28C60.5,27.9,60.7,27.75,60.72,27.77Z"/><path class="cls-6" d="M57.17,32.57a1.64,1.64,0,0,1-.82.5,1.78,1.78,0,0,1-.68,0L55.35,33a1.62,1.62,0,0,1-.73-.67,1.13,1.13,0,0,1-.21-.64.46.46,0,0,1,.08-.3,1.49,1.49,0,0,0,.31.82,1.47,1.47,0,0,0,.68.51,1.64,1.64,0,0,0,.83.12C56.75,32.79,57.14,32.52,57.17,32.57Z"/></g></g></g></svg>