<svg xmlns="http://www.w3.org/2000/svg" viewBox="0 0 97.49 198.38"><defs><style>.cls-1{isolation:isolate;}.cls-2,.cls-6{fill:#d2e4ff;}.cls-11,.cls-13,.cls-15,.cls-2,.cls-9{mix-blend-mode:multiply;}.cls-3{fill:#fad0bf;}.cls-4,.cls-7{fill:#fa7296;}.cls-11,.cls-17,.cls-4{opacity:0.2;}.cls-11,.cls-12,.cls-5,.cls-9{fill:#1d255b;}.cls-8{fill:#1b205e;}.cls-9{opacity:0.4;}.cls-10{fill:#4052a0;}.cls-12,.cls-15{opacity:0.5;}.cls-13{fill:#c87568;opacity:0.8;}.cls-14,.cls-15{fill:#cc5252;}.cls-16{fill:#65a1ff;}.cls-18{fill:#963e35;}.cls-19{fill:#ba5443;}</style></defs><g class="cls-1"><g id="Layer_2" data-name="Layer 2"><g id="OBJECTS"><path class="cls-2" d="M80.32,190.88c0,4.14-14.23,7.5-31.78,7.5s-31.79-3.36-31.79-7.5,14.23-7.5,31.79-7.5S80.32,186.73,80.32,190.88Z"/><polygon class="cls-3" points="71.8 27.61 74.3 30.69 69.05 34.86 66.3 31.19 71.8 27.61"/><polygon class="cls-4" points="71.8 27.61 74.3 30.69 69.05 34.86 66.3 31.19 71.8 27.61"/><path class="cls-5" d="M72.85,25.56a1.67,1.67,0,0,1-.35,2.35l-6.27,4.63a1.67,1.67,0,0,1-2.35-.35l-9.39-12.7a1.69,1.69,0,0,1,.36-2.36l6.26-4.63a1.69,1.69,0,0,1,2.36.36Z"/><rect class="cls-6" x="58.74" y="15.03" width="8.87" height="15.23" rx="1.34" transform="translate(-1.09 41.99) rotate(-36.47)"/><path class="cls-3" d="M70.66,23s-4.53-.28-6.34-2.65S60.59,14,61.67,13.39s5.47,1.09,8.17,3.65,2.3,7.22,2.3,7.22Z"/><path class="cls-4" d="M64,13.59a3.61,3.61,0,0,0-2.28-.2c-1.08.58.84,4.57,2.65,7S70.66,23,70.66,23l1.48,1.27a12.1,12.1,0,0,0-.7-4.76A7.83,7.83,0,0,1,64,13.59Z"/><path class="cls-7" d="M70.05,19.86a9.48,9.48,0,0,1-.94-.26A10.61,10.61,0,0,0,67,19.26a2.52,2.52,0,0,0-1.83.4.92.92,0,0,0-.14.67,1.22,1.22,0,0,0,.36.69,5,5,0,0,0,1.76,1,14.42,14.42,0,0,0,2,.57,5,5,0,0,1,1,.19A7.38,7.38,0,0,1,67,22.45a5.2,5.2,0,0,1-2-1,1.79,1.79,0,0,1-.58-1V20.1a1.33,1.33,0,0,1,.35-.84,2.84,2.84,0,0,1,2.29-.44A6.11,6.11,0,0,1,70.05,19.86Z"/><path class="cls-7" d="M70.7,18.48a13.44,13.44,0,0,0-2.4-1.4,5,5,0,0,0-1.81-.35,3.05,3.05,0,0,0-.81.08,2.64,2.64,0,0,0-.8.19,2,2,0,0,0-1.23,1.11,1.44,1.44,0,0,0,.54,1.53c.4.33.73.48.71.53a1.89,1.89,0,0,1-.85-.33,2.15,2.15,0,0,1-.67-.7A1.52,1.52,0,0,1,63.22,18a2.45,2.45,0,0,1,1.44-1.52,3.28,3.28,0,0,1,.91-.28,3.73,3.73,0,0,1,.94,0,5.8,5.8,0,0,1,4.19,2.33Z"/><path class="cls-7" d="M66.76,14.93a9.93,9.93,0,0,0-2-.42,2.47,2.47,0,0,0-1.25.25,2,2,0,0,0-.45.31s-.05,0-.11.1a1.36,1.36,0,0,0-.24.3,1.73,1.73,0,0,0-.24,1.2c.09,1,.78,1.81.68,1.87a3,3,0,0,1-1.11-1.8,2.18,2.18,0,0,1,.16-1.55,2,2,0,0,1,.3-.44,1.11,1.11,0,0,1,.14-.15,2.53,2.53,0,0,1,.64-.37,2.88,2.88,0,0,1,1.52-.16A3.14,3.14,0,0,1,66.76,14.93Z"/><path class="cls-8" d="M64.38,46.27c-.17.13,6.83,4.13,11.08,6.25a55.33,55.33,0,0,0,8,3.25s-12.75-16.25-16-20.12c0,0,2.25-6.38,7.63-6.13,0,0,19.37,20.25,22.37,29.92.67,7.83-9.83,9.33-21,7.08-9.71-2-12.75-4.25-12.75-4.25Z"/><path class="cls-9" d="M83.07,48.11C78,42.78,72.4,38.07,71.38,30.54a11.32,11.32,0,0,0-3.92,5.11c3.25,3.87,16,20.12,16,20.12a55.33,55.33,0,0,1-8-3.25c-4.25-2.12-11.25-6.12-11.08-6.25l-.67,16s3,2.29,12.75,4.25c11.14,2.25,21.62.76,21-7C92,56.9,87.39,52.64,83.07,48.11Z"/><path class="cls-10" d="M85.5,57.53a17.64,17.64,0,0,1-1.67-1.62c-.39-.45-.62-.76-.62-.76l.12.24a4.15,4.15,0,0,0,.34.64,8.14,8.14,0,0,0,1.58,1.8,12.37,12.37,0,0,0,2,1.36c.54.3.88.46.88.46Z"/><path class="cls-10" d="M84.64,58.09c-.38-.7-.83-1.29-1-1.79s-.4-.78-.4-.78.07.33.22.85a7.49,7.49,0,0,0,.87,1.94,7.07,7.07,0,0,0,1.46,1.57c.43.33.7.52.7.52l-.57-.67A17.06,17.06,0,0,1,84.64,58.09Z"/><path class="cls-8" d="M61,177c0,.51.75,5.21.75,5.21s11.9,8.59,10.78,9.83-12.22-4.34-13.85-6.64l-1.58-8.55Z"/><path class="cls-9" d="M61,177c0,.51.75,5.21.75,5.21l.07.06a4,4,0,0,0,1,3.56,5.08,5.08,0,0,0,2.08,2.26,5.14,5.14,0,0,0,.58.27,6.26,6.26,0,0,0,3,1.31,4.48,4.48,0,0,0,2.34-.26c1.3,1.25,2.12,2.26,1.79,2.63-1.13,1.24-12.22-4.34-13.85-6.64l-1.58-8.55Z"/><path class="cls-8" d="M31,180.59c0,.51-.55,5.24-.55,5.24s-11.58,9-10.4,10.23,12-4.8,13.59-7.16l1.25-8.61Z"/><path class="cls-9" d="M21.25,193.87a5.88,5.88,0,0,0,3.17-.55,13.55,13.55,0,0,0,5.87-5,3.29,3.29,0,0,0,.19-2.9c.13-1.13.51-4.44.51-4.87l3.89-.3-1.25,8.61c-1.55,2.36-12.42,8.35-13.59,7.16C19.73,195.75,20.28,194.92,21.25,193.87Z"/><path class="cls-10" d="M60.67,97.77s1.61,29.12,1.79,33.18.75,10.63,1,15.69-1.28,27-1.83,31.57a4.61,4.61,0,0,1-4.57,0s-3.19-19.4-3.79-27-5.06-26.93-5.06-26.93-6.13,21.1-6.7,25.19-5.9,31.75-5.9,31.75-4.14,3.75-5.86-.49c0,0,1-23.15,1.33-31.54s3.54-27.84,3.07-32.39S36,101.45,36,96.88,57.19,93.87,60.67,97.77Z"/><path class="cls-11" d="M31.14,147.78a6.34,6.34,0,0,0,7-1.18c6.45-6.27,6.4-17.25,6.71-25.58.11-3-3-5.45-5.83-5.31a5.05,5.05,0,0,0-.68.07,5.64,5.64,0,0,0-4.19.81C33.73,112,36,101.4,36,96.88s21.19-3,24.67.89c0,0,.48,8.62.94,17.14-2.7-.44-5.54,1.21-7,3.68-3,4.92-1.82,10.2-1.35,15.58.41,4.68.07,10.34,3.28,14.17,1.71,2,4.55,3.16,6.92,2.14-.23,8.13-1.36,23.91-1.81,27.73a4.61,4.61,0,0,1-4.57,0s-3.19-19.4-3.79-27-5.06-26.93-5.06-26.93-6.13,21.1-6.7,25.19-5.9,31.75-5.9,31.75-4.14,3.75-5.86-.49c0,0,1-23.15,1.33-31.54C31.08,148.73,31.11,148.26,31.14,147.78Z"/><path class="cls-12" d="M50.83,113.07c-.38.32-.62.55-.62.55a14.39,14.39,0,0,0-1.83,2c-.83,1.07-1.44,2.3-1.5,2.27a8.66,8.66,0,0,1,1.22-2.46,13.6,13.6,0,0,1,1.78-2.14s.26-.23.68-.55a9.71,9.71,0,0,1,1.62-1,7.08,7.08,0,0,1,1.82-.59,2.68,2.68,0,0,1,.86-.06,5.12,5.12,0,0,1-.82.24,8.26,8.26,0,0,0-1.7.71A9.38,9.38,0,0,0,50.83,113.07Zm1.11,1.58c1-.6,2-1.1,2-1.17a9.3,9.3,0,0,0-2.18.88c-.51.29-1,.57-1.39.83l-.61.42s-.23.19-.56.49a14.06,14.06,0,0,0-1.15,1.16,7.82,7.82,0,0,0-1.29,2c.07,0,.72-.92,1.54-1.74.43-.39.83-.8,1.19-1.06l.56-.45.57-.43C51,115.27,51.46,115,51.94,114.65ZM40,152a4.18,4.18,0,0,0-.18.77,5.36,5.36,0,0,0,.27-.75l.63-2c.5-1.65,1.22-3.83,1.92-6,1.43-4.37,2.77-8.76,2.77-8.76s.3-1.11.76-2.77,1-3.89,1.5-6.13c.12-.67.25-1.34.37-2,0,.09.07.21.13.36.13.39.37.92.57,1.58a50,50,0,0,1,1.38,4.89c.4,1.81.73,3.63.94,5s.34,2.29.34,2.29l1.12,7.35c.3,1.84.63,3.67.94,5,.14.69.31,1.25.41,1.64a2.29,2.29,0,0,0,.19.61,4,4,0,0,0-.1-.63c-.07-.4-.2-1-.31-1.65-.26-1.37-.54-3.21-.8-5.05-.49-3.68-1-7.37-1-7.37s-.16-.92-.39-2.29-.6-3.2-1-5A45.29,45.29,0,0,0,49,126.21c-.24-.66-.5-1.18-.66-1.55l-.2-.43c.28-1.51.55-2.94.65-4.11.1-.86.18-1.57.24-2.07a5,5,0,0,0,.06-.78,4.79,4.79,0,0,0-.16.77c-.07.49-.19,1.2-.32,2-.21,1.7-.75,3.93-1.19,6.17s-1.09,4.44-1.6,6.08-.79,2.75-.79,2.75-1.28,4.41-2.63,8.8c-.66,2.2-1.33,4.39-1.78,6.06C40.36,150.78,40.17,151.47,40,152Zm-7.28-10.37a12.64,12.64,0,0,0,.08-1.57,12.92,12.92,0,0,0-.27,1.55c-.13.94-.31,2.18-.49,3.42-.37,2.49-.68,5-.68,5s0,.63-.13,1.57-.14,2.21-.2,3.47,0,2.53,0,3.47a10.8,10.8,0,0,0,.12,1.58,11.88,11.88,0,0,0,.06-1.58c0-.94.07-2.2.12-3.45s.18-2.51.3-3.45.17-1.56.17-1.56l.54-5C32.55,143.78,32.69,142.53,32.76,141.59ZM37,110c.49-.27,1.1-.7,1.71-1.12a22,22,0,0,0,2.28-2l.6-.72.29-.35.28-.42c.2-.29.42-.59.61-.91a11.5,11.5,0,0,0,.86-1.87,4.11,4.11,0,0,0,.26-.89c-.08,0-.6,1.36-1.41,2.58-.21.3-.43.58-.64.86l-.29.39-.3.33-.61.67a26.75,26.75,0,0,1-2.13,2c-1.14.93-2.38,1.75-2.34,1.81A3.82,3.82,0,0,0,37,110Zm21.51-5.41.16.64a12.89,12.89,0,0,0,.42,1.39,6.44,6.44,0,0,0,1,1.85c.06,0-.41-1-.69-1.95a11.41,11.41,0,0,1-.32-1.38c-.07-.38-.12-.63-.12-.63s0-.25-.09-.64a12.66,12.66,0,0,1-.13-1.4c0-1,.2-2,.13-2.07a5.64,5.64,0,0,0-.46,2.06,11.43,11.43,0,0,0,0,1.46C58.53,104.31,58.55,104.58,58.55,104.58Zm-4.24-1.5a6.77,6.77,0,0,0-.25-2c-.07,0,0,1-.09,1.95,0,.48-.08,1-.15,1.32l-.1.59a1,1,0,0,1,0,.17c0,.1-.05.25-.08.43a10.63,10.63,0,0,1-.31,1.28c-.06.24-.17.45-.24.66a2.45,2.45,0,0,0-.12.31l-.14.25a2.12,2.12,0,0,0-.27.56s.19-.16.42-.46a2.51,2.51,0,0,0,.19-.24c.05-.1.1-.2.16-.3a6.72,6.72,0,0,0,.32-.66,8.47,8.47,0,0,0,.42-1.31c.05-.18.08-.33.11-.44a.65.65,0,0,0,0-.17s0-.25.06-.62A11,11,0,0,0,54.31,103.08Zm-2.47-.1a8.45,8.45,0,0,0-.16-2.09c-.07,0-.08,1-.18,2.07a14,14,0,0,1-.19,1.4c-.06.38-.11.63-.11.63a19.35,19.35,0,0,1-.46,2c-.32,1-.79,1.91-.72,2a6.68,6.68,0,0,0,1-1.83,15.53,15.53,0,0,0,.62-2A17.06,17.06,0,0,0,51.84,103Zm8.47,74.37a1.37,1.37,0,0,0,0,.33,1.19,1.19,0,0,0,0-.32c0-.22,0-.53.08-.92,0-.79.2-1.92.17-3.29.09-2.72-.18-6.35-.27-10,0-1.82-.06-3.63-.06-5.33s0-3.28,0-4.64l.05-4.53v-1.24c0-.8,0-1.92,0-3.28,0-.68,0-1.42,0-2.19s-.05-1.6-.08-2.45,0-1.72-.08-2.61-.11-1.8-.17-2.7-.12-1.81-.18-2.69c0-.23,0-.45,0-.67s0-.44-.08-.65c-.05-.43-.11-.86-.16-1.29-.1-.84-.2-1.65-.3-2.42,0-.39-.09-.76-.14-1.13s-.13-.71-.19-1c-.27-1.33-.48-2.44-.64-3.22q-.12-.58-.18-.9a1.56,1.56,0,0,0-.09-.31s0,.11,0,.32.08.52.14.91c.13.78.32,1.9.54,3.23.06.33.12.68.18,1s.08.74.12,1.13c.08.77.17,1.58.26,2.42,0,.42.09.85.13,1.29,0,.21,0,.43.08.65l0,.66c0,.89.11,1.79.16,2.69s.12,1.8.13,2.69,0,1.77.06,2.61,0,1.67,0,2.44,0,1.51,0,2.19v3.28c0,.79,0,1.24,0,1.24s0,1.81,0,4.53c0,1.36,0,2.95,0,4.65s.08,3.51.12,5.33c.13,3.62.46,7.24.42,10,.06,1.36-.06,2.49-.08,3.28C60.33,176.83,60.32,177.14,60.31,177.35ZM31.1,179.2a2,2,0,0,0,.1-.31c.05-.21.13-.51.23-.89s.19-.86.29-1.41.19-1.16.28-1.83c.17-1.36.29-2.94.36-4.64,0-.85.07-1.73.1-2.62,0-.45,0-.89,0-1.35s.07-.9.1-1.35l.21-2.69c.07-.89.13-1.76.25-2.6.2-1.69.4-3.26.56-4.61.41-2.68.68-4.47.68-4.47l.18-1.23c.12-.78.3-1.9.51-3.24.1-.67.23-1.39.33-2.16s.2-1.59.31-2.43.21-1.71.32-2.6.17-1.78.25-2.69c.16-1.8.31-3.6.46-5.29s.25-3.26.43-4.61.29-2.46.38-3.25c0-.39.07-.7.09-.91s0-.33,0-.33a1.76,1.76,0,0,0-.07.32c0,.21-.08.52-.14.91l-.46,3.24c-.21,1.35-.33,2.92-.51,4.61s-.36,3.48-.54,5.28c-.09.9-.18,1.8-.27,2.68s-.24,1.75-.36,2.59l-.32,2.41c-.11.77-.25,1.49-.36,2.16-.22,1.34-.4,2.46-.53,3.24s-.2,1.23-.2,1.23-.25,1.79-.63,4.48c-.16,1.36-.33,2.94-.52,4.63-.12.84-.17,1.72-.22,2.61s-.13,1.8-.19,2.7c0,.46-.07.91-.08,1.36s0,.91,0,1.35c0,.89,0,1.77,0,2.62-.05,1.7-.14,3.28-.28,4.63-.08.67-.14,1.29-.24,1.83s-.15,1-.24,1.41-.15.69-.19.9A1.55,1.55,0,0,0,31.1,179.2Z"/><path class="cls-13" d="M42.74,17.15c-3.74-.64-7.32-1.92-9.56-5.63a7.64,7.64,0,0,0,1,2s.68,5.13,1.19,7.35a3.76,3.76,0,0,1,2.74,1.54,3.66,3.66,0,0,1,1,2.56l2.57-.51-.78-6.33A6.11,6.11,0,0,0,42.74,17.15Z"/><path class="cls-2" d="M55.76,48.76c-.16-.38-.32-.75-.47-1.13a6.65,6.65,0,0,1,.12,2.07S55.56,49.34,55.76,48.76Z"/><path class="cls-11" d="M61.31,109.37l-.64-11.6c-3.48-3.9-24.62-5.46-24.67-.89,0,2.54-.74,7-1.29,11.22a22.13,22.13,0,0,0,17.75-4.62A19.06,19.06,0,0,0,61.31,109.37Z"/><path class="cls-8" d="M27.6,48.16s9.22-5.89,20-5.89,15.48,2.95,18,5,2.72,22.16.16,28.57A61.79,61.79,0,0,0,62.46,91c-.26,3.08.64,14.23.64,14.23a19,19,0,0,1-10.64-5.9,23.32,23.32,0,0,1-19,4.1A150.79,150.79,0,0,0,35,81.74C34.77,72.25,27.85,53.29,27.6,48.16Z"/><path class="cls-9" d="M62.46,91a68.12,68.12,0,0,1,1.47-9,18.84,18.84,0,0,1-13.78,2.15c-8.53-1.89-13.72-10.73-15-19a86.62,86.62,0,0,1-1.2-18.79,5.89,5.89,0,0,1,.32-1.38l-.72.29-.19.07-.5.21-.25.11-.4.17-.26.12-.36.16-.26.12-.32.15-.25.12-.28.14-.24.12-.26.13-.22.11-.24.12-.19.11-.22.11-.17.1-.19.1-.15.09-.16.09-.14.07-.13.08-.11.06-.12.07-.07,0-.09.05-.05,0-.07,0h0l0,0c.25,5.13,7.17,24.09,7.43,33.58a150.79,150.79,0,0,1-1.54,21.65c.42.09.84.16,1.24.22l.36,0,.89.1.34,0,1,.06h.18c.4,0,.8,0,1.19,0a11.07,11.07,0,0,1-.08-1.3v-.09a12.08,12.08,0,0,1,24.15,0v.09a11.93,11.93,0,0,1-.27,2.48c.3.07.5.1.58.11h.05S62.2,94,62.46,91Z"/><path class="cls-10" d="M65.39,76.31a4,4,0,0,1,.09-.58c.08-.37.19-.89.32-1.52s.27-1.37.41-2.16.33-1.62.42-2.48c.21-1.69.47-3.38.53-4.67s.16-2.13.16-2.13,0-.21.06-.58,0-.9,0-1.54,0-1.38,0-2.18-.07-1.65-.11-2.5-.13-1.7-.18-2.5S67,51.92,67,51.29s-.1-1.18-.13-1.55a2.69,2.69,0,0,1,0-.59,4.55,4.55,0,0,1,.11.58c0,.37.13.9.22,1.53s.18,1.38.27,2.18.2,1.65.25,2.5.12,1.72.17,2.52,0,1.55,0,2.2,0,1.18,0,1.56,0,.58,0,.58l-.2,2.14c-.08,1.29-.38,3-.64,4.69-.11.85-.33,1.68-.48,2.47s-.32,1.53-.5,2.15-.3,1.14-.4,1.5A2.67,2.67,0,0,1,65.39,76.31Z"/><path class="cls-10" d="M52.44,99.3c-.13,0,0-5.27,0-5.27s.05-1.31.09-2.62a18.12,18.12,0,0,1,.18-2.63,18.1,18.1,0,0,1,.16,2.63c0,.65,0,1.31,0,1.81s0,.82,0,.82S52.57,99.3,52.44,99.3Z"/><path class="cls-6" d="M40.16,42.27s4.1,10.51,6.15,15.12,2.56,14.86,3.33,17.17,2.48,11,2.48,11A45.07,45.07,0,0,0,58.87,70c2.05-9.23,0-21.53-3.59-26.4S45,39.45,40.16,42.27Z"/><path class="cls-2" d="M40.16,42.27s4.1,10.51,6.15,15.12,2.56,14.86,3.33,17.17,2.48,11,2.48,11A45.07,45.07,0,0,0,58.87,70c2.05-9.23,0-21.53-3.59-26.4S45,39.45,40.16,42.27Z"/><path class="cls-14" d="M47.59,46.37s1.28,3.2,3.08,4.23c0,0-.52,7-.77,12.43s2.39,23.88,2.39,23.88,4.27-12.09,5-17.48-3.85-19.09-3.85-19.09,1.93-.77,1.41-4.61S48.36,39.19,47.59,46.37Z"/><path class="cls-15" d="M53.26,66.56c-.34-4.78-1.64-9.72-.39-14.47a2.09,2.09,0,0,1,.79-1.21c-.11-.34-.18-.54-.18-.54A2.86,2.86,0,0,0,54.9,48a4.35,4.35,0,0,1-2,.73A3.15,3.15,0,0,1,51,48.22a3.1,3.1,0,0,1-1.41-2.45,3.34,3.34,0,0,1,.64-2.07,2.4,2.4,0,0,1,1.33-1,2.28,2.28,0,0,1,1.73.23l.27.17c-2-1.92-5.37-2-5.93,3.3,0,0,1.28,3.2,3.08,4.23,0,0-.52,7-.77,12.43s2.39,23.88,2.39,23.88.69-2,1.57-4.66C53.52,77,53.64,71.78,53.26,66.56Z"/><path class="cls-9" d="M60.72,51.33c-4.78-11.69-7.47-9.76-7.47-9.76A53.06,53.06,0,0,1,57,64.72a104.13,104.13,0,0,1-4.63,23.64c-.44-5.22-1.61-17.83-3.18-25.27-2-9.55-8.83-18-7.83-22.81,0,0-4.61,2.4-4.44,7s1.85,14.33,3.7,16.36,5.72,1,5.72,1-3.54,5.79-2.19,9.69a51.51,51.51,0,0,0,3.75,7.73c.82,1.51,1.66,3,2.47,4.51s1.1,2.89,2.15,4.09c.7-1.29,2.19-2.41,3.07-3.67a31.55,31.55,0,0,0,2.68-4.69,45.45,45.45,0,0,0,3.21-9.18c1.39-6-1.41-9.59-1.41-9.59C62.31,63,64.08,59.53,60.72,51.33Z"/><path class="cls-10" d="M41.37,40.28s-4.61,2.31-4.44,6.77,1.85,13.79,3.7,15.74,5.72,1,5.72,1-3.54,5.57-2.19,9.34,5.72,10.58,8.41,15.74c0,0-1.35-17.42-3.37-26.61S40.37,44.88,41.37,40.28Z"/><path class="cls-11" d="M47.7,66.81a11.49,11.49,0,0,1,1.49-4.62l-.06-.26a10.37,10.37,0,0,1-5-2.49c-3.77-3-4.63-7.62-5.14-12.11a8.33,8.33,0,0,1,2.3-5.93,5.09,5.09,0,0,1,.09-1.12s-4.61,2.31-4.44,6.77,1.85,13.79,3.7,15.74,5.72,1,5.72,1-3.54,5.57-2.19,9.34,5.72,10.58,8.41,15.74c0,0-.11-1.43-.32-3.67C49.1,79.6,47,73.27,47.7,66.81Z"/><path class="cls-10" d="M52.05,87.5a96.62,96.62,0,0,0,5-23.69,49.43,49.43,0,0,0-3.76-22.29s2.69-1.85,7.47,9.4c3.36,7.89,1.59,11.26-.64,11.79,0,0,2.8,3.45,1.41,9.22-1.15,4.83-4.31,13.13-9.27,17Z"/><path class="cls-11" d="M57.68,72.39c.4-1.92,1.2-7,3.4-7.85a7.71,7.71,0,0,0-1-1.83A2.94,2.94,0,0,0,62,61.12c-1.71-1.26-2.67-3.87-3.11-6a25.2,25.2,0,0,0-1.56-5.84,65.08,65.08,0,0,1-3.51-7.87s0,0,0,0a1,1,0,0,0-.57.11A49.43,49.43,0,0,1,57,63.81a96.62,96.62,0,0,1-5,23.69l.17,1.39a19.44,19.44,0,0,0,4.42-5.15C56,80.05,57,75.79,57.68,72.39Z"/><path class="cls-6" d="M42.38,37.14a5.21,5.21,0,0,0-.56,7.69,13.57,13.57,0,0,0,6.54,5.38s-1.2-4.87,2.56-7.77c0,0,5,2.3,4.49,7.26a13.36,13.36,0,0,0,1-6.58C55.88,39.87,49.73,34.58,42.38,37.14Z"/><path class="cls-2" d="M54.18,43.05s0-.06,0-.09a5.78,5.78,0,0,1,.51-2.89,11.6,11.6,0,0,0-12.3-2.93,5.44,5.44,0,0,0-2,4.81A2.13,2.13,0,0,1,42,41.23c2.65-.08,5.33,0,6.59,2.86.11.26.21.53.3.79a6.88,6.88,0,0,1,2-2.44,9.27,9.27,0,0,1,3.4,2.94A6.26,6.26,0,0,1,54.18,43.05Z"/><path class="cls-16" d="M50.44,41.65a9.51,9.51,0,0,0,3-.79c0-.07-1.52.38-3.07.45a16,16,0,0,1-2.12,0l-.69-.09a1.44,1.44,0,0,1-.26,0l-.26,0A6.37,6.37,0,0,1,46.4,41a8.32,8.32,0,0,1-2-.72A7,7,0,0,1,42.75,39a7.79,7.79,0,0,0-.67-.71,2.86,2.86,0,0,0,.53.83,6.45,6.45,0,0,0,1.66,1.42,8.13,8.13,0,0,0,2,.85,4.05,4.05,0,0,0,.7.17l.27.06.27,0,.72.07A14,14,0,0,0,50.44,41.65Z"/><path class="cls-16" d="M54.74,45.65a3.88,3.88,0,0,0-.23-.46,1.57,1.57,0,0,1-.09-.17s-.15-.24-.41-.57a6,6,0,0,0-1.11-1.06,5,5,0,0,0-1.38-.68l-.49-.1.16-.11c.36-.23.64-.32.63-.36s-.08,0-.21,0a2,2,0,0,0-.51.18,3.77,3.77,0,0,0-1.3,1,6.67,6.67,0,0,0-.91,1.38c-.09.2-.16.37-.22.49l-.08.19a10,10,0,0,0-.46,2.33,7.76,7.76,0,0,0,0,1.63,1.67,1.67,0,0,0,.19.71,3.54,3.54,0,0,0,0-.73,9.15,9.15,0,0,1,.11-1.57,10.93,10.93,0,0,1,.58-2.2l.06-.19c0-.11.11-.28.19-.48a7,7,0,0,1,.76-1.35,5.67,5.67,0,0,1,.87-.89l.52.22a5.76,5.76,0,0,1,1.24.77,6,6,0,0,1,1,1.06c.23.32.36.55.36.55l.09.16c.06.1.15.24.24.41a12,12,0,0,1,.59,1.35c.36,1,.53,2.09.61,2.08a6.77,6.77,0,0,0-.29-2.18A9.9,9.9,0,0,0,54.74,45.65Z"/><path class="cls-16" d="M56.5,44.43c0-.51-.08-1-.14-1.4a4,4,0,0,0-.13-.63,4.48,4.48,0,0,0-.21-.61,6.45,6.45,0,0,0-.67-1.25,4.79,4.79,0,0,0-1-1,1.84,1.84,0,0,0-.55-.33s.16.2.42.46a6.49,6.49,0,0,1,.81,1.07,6.19,6.19,0,0,1,.54,1.22c.11.35.17.58.17.58s.07.24.15.6.17.84.24,1.34a15.64,15.64,0,0,0,.23,2A8.1,8.1,0,0,0,56.5,44.43Z"/><path class="cls-16" d="M46,48.77C45.42,48.3,44.69,47.65,44,47a18.4,18.4,0,0,1-1.71-2,10.5,10.5,0,0,1-.65-1,8.63,8.63,0,0,1-.55-1,5.27,5.27,0,0,1-.51-2.49,4.24,4.24,0,0,1,.31-1.33,5.09,5.09,0,0,1,.61-1c.43-.57.8-.89.77-.92a1.15,1.15,0,0,0-.28.19,5.56,5.56,0,0,0-.64.61A5.19,5.19,0,0,0,40.66,39a4.34,4.34,0,0,0-.4,1.41,5.65,5.65,0,0,0,.44,2.7,8.76,8.76,0,0,0,.55,1.11,9.5,9.5,0,0,0,.71,1,16,16,0,0,0,1.83,2,19.32,19.32,0,0,0,2.07,1.7,5.51,5.51,0,0,0,1,.66A6.59,6.59,0,0,0,46,48.77Z"/><path class="cls-10" d="M31.61,91.29A10.66,10.66,0,0,0,34.55,80S28.38,83.32,31.61,91.29Z"/><path class="cls-8" d="M27.71,48.15c.33.32,4.63.92,5.94,5.76A9.29,9.29,0,0,1,32,62.13L14.76,74.28S29.85,78.86,34.55,80c0,0-4.11,3-2.94,11.26,0,0-27.07-6.68-31.23-13.91S27.71,48.15,27.71,48.15Z"/><path class="cls-9" d="M34.55,80c-4.7-1.17-19.79-5.75-19.79-5.75L32,62.13a9.29,9.29,0,0,0,1.69-8.22,7.86,7.86,0,0,0-5.45-5.55A6.82,6.82,0,0,1,29.27,56c-3.64,8.22-10.89,14.75-20,16.13A7.62,7.62,0,0,1,2.86,70h0c-.28.37-.55.74-.8,1.1l0,0c-.24.35-.47.7-.67,1a.25.25,0,0,0,0,.07c-.19.32-.37.64-.52,1,0,0,0,.1-.07.15-.13.28-.25.55-.35.82,0,.08,0,.15-.07.23A6.34,6.34,0,0,0,.12,75a1.75,1.75,0,0,0,0,.32,3.31,3.31,0,0,0-.06.53,2.72,2.72,0,0,0,0,.42,2.21,2.21,0,0,0,0,.37s0,0,0,0a3,3,0,0,0,.27.67c.12.2.26.41.41.62l.23.27.27.31c.12.13.25.27.39.4l.16.15.55.49a7.89,7.89,0,0,1,3.52-1.41c9.31-1.4,21.07,4.1,24.77,12.85l.26.06h0l.23.06.43.1C30.44,83,34.55,80,34.55,80Z"/><path class="cls-10" d="M10.1,73.38a16,16,0,0,1,3.51.56c.86.26,1.39.46,1.39.46l-1.44-.27a29.17,29.17,0,0,0-3.47-.35,21.25,21.25,0,0,0-3.46.2l-1.43.27s.51-.21,1.38-.46A13.12,13.12,0,0,1,10.1,73.38Z"/><path class="cls-10" d="M11,73.8a7.34,7.34,0,0,1,2.25.13,6.17,6.17,0,0,1,.9.25,26.36,26.36,0,0,0-3.16.1,9.79,9.79,0,0,0-2.2.46,3.22,3.22,0,0,0-.66.3,2,2,0,0,0-.24.12L8.06,75a3,3,0,0,1,.63-.46A5.73,5.73,0,0,1,11,73.8Z"/><path class="cls-10" d="M32.74,60.05A10.41,10.41,0,0,0,33,58v-.93a19.82,19.82,0,0,0-.45-2.93,9.34,9.34,0,0,0-.94-2.79c-.08,0,.32,1.43.51,2.87a24,24,0,0,1,.26,2.88s0,.36,0,.9a10,10,0,0,1-.14,2,4.11,4.11,0,0,1-.67,1.79,2.37,2.37,0,0,1-.42.48c-.11.12-.17.19-.16.21s.09,0,.23-.1a1.9,1.9,0,0,0,.54-.43A4.17,4.17,0,0,0,32.74,60.05Z"/><path class="cls-3" d="M40.22,77.69c-4.52-1-7.08,4.9-7.08,4.9l-.43-.15a12.27,12.27,0,0,0-1.26,4.73c1.39.63,3.39,1.43,4.23,1.31,1.36-.19,1.52-3.6,1.52-3.6s5.31,3.26,7.66.62S44.74,78.69,40.22,77.69Z"/><path class="cls-4" d="M45.36,84.77a2.26,2.26,0,0,0,.18-.39,1.87,1.87,0,0,0,.07-.22,2.66,2.66,0,0,0,.1-.38l0-.23c0-.13,0-.26,0-.4s0-.14,0-.21,0-.29,0-.43a1.29,1.29,0,0,1,0-.19,4,4,0,0,0-.14-.46s0-.1-.05-.15a4.59,4.59,0,0,0-.24-.5.37.37,0,0,0,0-.11,6.65,6.65,0,0,0-.36-.56l0,0c-2.36,3.68-8.14,5-11.58,1.91a.33.33,0,0,1,0,.06l0,.11-.43-.15a12.27,12.27,0,0,0-1.26,4.73h0l.46.21.15.06.38.16.19.08.38.15.18.07.54.19,0,0,.48.15.16,0,.33.08.16,0,.29,0h.46c1.36-.19,1.52-3.6,1.52-3.6s5.31,3.26,7.66.62a3.75,3.75,0,0,0,.4-.54A1.74,1.74,0,0,0,45.36,84.77Z"/><path class="cls-7" d="M37.69,82.25c0,.06.78.28,1.49.67a7.94,7.94,0,0,1,.93.6l.29.21.11.09.38.32a7,7,0,0,1,.79.77c.52.62.86,1.36.92,1.34a4.53,4.53,0,0,0-.71-1.51,8.69,8.69,0,0,0-.76-.86c-.24-.21-.39-.36-.39-.36l-.12-.08-.32-.21a8.22,8.22,0,0,0-1-.55A4.62,4.62,0,0,0,37.69,82.25Z"/><path class="cls-7" d="M38.77,80s1,.42,2,.93a12,12,0,0,1,1.84,1.15s.22.15.53.41a5.08,5.08,0,0,1,1,1.09A3.42,3.42,0,0,1,44.66,85a6.46,6.46,0,0,0,.05.68A1.71,1.71,0,0,0,44.8,85a3.39,3.39,0,0,0-.44-1.49,5.73,5.73,0,0,0-1-1.21c-.31-.28-.53-.45-.53-.45s-.24-.17-.59-.39a14.35,14.35,0,0,0-1.37-.7A8.29,8.29,0,0,0,38.77,80Z"/><path class="cls-7" d="M39.08,78.33s.31.07.75.2a12.59,12.59,0,0,1,3.09,1.36,7.16,7.16,0,0,1,.63.43,5.4,5.4,0,0,1,.62.45A5.31,5.31,0,0,1,45.27,82a2.43,2.43,0,0,1,.37,1.57c0,.45-.19.74-.16.75s.05-.06.12-.18a2.35,2.35,0,0,0,.19-.54,2.49,2.49,0,0,0-.29-1.72,5.07,5.07,0,0,0-1.11-1.36,7.28,7.28,0,0,0-.62-.5s-.26-.18-.68-.41a10.56,10.56,0,0,0-1.57-.74,9.46,9.46,0,0,0-1.66-.47A2.21,2.21,0,0,0,39.08,78.33Z"/><path class="cls-7" d="M35.34,84.2s.29.21.61.37.64.25.64.25l.66.16a2.08,2.08,0,0,0,.68.16s-.27-.23-.58-.41l-.65-.26L36,84.32C35.71,84.23,35.37,84.15,35.34,84.2Z"/><path class="cls-7" d="M32.78,86.12c.06,0,.08-1,.26-1.87A12.21,12.21,0,0,1,33.37,83c.12-.33.19-.55.19-.55a10,10,0,0,1,.8-1.69c.5-.8,1.18-1.46,1.14-1.5a5.41,5.41,0,0,0-1.36,1.35,9.93,9.93,0,0,0-.93,1.71L33,82.9a10.63,10.63,0,0,0-.26,1.3A6.59,6.59,0,0,0,32.78,86.12Z"/><path class="cls-13" d="M42.9,17.42c-3.71-.64-7.27-1.91-9.48-5.59a7.78,7.78,0,0,0,1,2s.68,5.08,1.19,7.28a3.7,3.7,0,0,1,2.71,1.53,3.61,3.61,0,0,1,1,2.54l2.54-.51-.76-6.27A6.12,6.12,0,0,0,42.9,17.42Z"/><path class="cls-3" d="M52.27,3.32s8,1.47,10.22,6.6,1.78,13.41,1.78,13.41a27.27,27.27,0,0,1-.11,8.21,5.16,5.16,0,0,1-2.29,4c-2.16,1.36-5.4,1.11-8,1.31-1.63.77-.15,2.39-.8,3.91-3.83,1.84-7.11.46-9.56-1.34-1.59-1.16-.68-5.82-3.53-8.64a1.53,1.53,0,0,1-.24-.34s-4.63,1.89-7.1-1.81-1.23-9.34,4.14-7.18C36.75,21.49,34.63,3.61,52.27,3.32Z"/><g class="cls-17"><path class="cls-7" d="M37.34,25.16c.93,1.55.72,3.39-.47,4.11s-2.13-.06-3.07-1.6-1.51-3.28-.32-4S36.4,23.62,37.34,25.16Z"/></g><path class="cls-7" d="M37.61,25.62a4.09,4.09,0,0,0-.34-.6,4.29,4.29,0,0,0-.45-.52,4.39,4.39,0,0,0-1.22-.87,2.89,2.89,0,0,0-1.44-.33,1.17,1.17,0,0,0-.65.16s.26,0,.64,0a3.14,3.14,0,0,1,1.3.44,4.39,4.39,0,0,1,1.06.88,4.92,4.92,0,0,1,.39.49,4,4,0,0,1,.34.53s0,.1.08.15h0a1.41,1.41,0,0,0-.75-.17,1.58,1.58,0,0,0-.76.22,2,2,0,0,0-.22.15l-.08.07-.06.08a.89.89,0,0,0-.16.22,1.59,1.59,0,0,0-.22.77,1.44,1.44,0,0,0,.19.74c.13.18.22.27.24.25s0-.14-.07-.32a1.54,1.54,0,0,1,0-.65,1.38,1.38,0,0,1,.25-.56,1.08,1.08,0,0,1,.19-.21l.05-.05a1.26,1.26,0,0,1,.16-.13,1.39,1.39,0,0,1,.56-.26,1.56,1.56,0,0,1,.65,0l.17.05a3.74,3.74,0,0,1,.28.93,3.67,3.67,0,0,1,0,.74,2.53,2.53,0,0,1-.17.62c-.14.36-.3.57-.28.59s.24-.15.44-.51a2.67,2.67,0,0,0,.26-.66,3.55,3.55,0,0,0,.06-.81A3.7,3.7,0,0,0,37.61,25.62Z"/><g class="cls-17"><path class="cls-7" d="M58.2,25a1.51,1.51,0,0,1-1.75,1,1.27,1.27,0,0,1-1.23-1.44S54,25.64,54,26.18,59.32,28.32,58.2,25Z"/></g><path class="cls-7" d="M54,26.05s.12-.16.29-.37a2.93,2.93,0,0,1,.75-.67A3.29,3.29,0,0,1,56,24.6a2,2,0,0,1,.43-.09l.12,0,.31,0a1.22,1.22,0,0,1,.83.3,1.52,1.52,0,0,1,.41.83c0,.27.06.47.1.47a1,1,0,0,0,.09-.48,1.61,1.61,0,0,0-.37-1.06,1.34,1.34,0,0,0-.51-.37,2.4,2.4,0,0,0-.53-.13,2.36,2.36,0,0,0-.38,0h-.14a2.6,2.6,0,0,0-.5.14,3.56,3.56,0,0,0-1,.56,2.53,2.53,0,0,0-.7.84C54,25.84,54,26,54,26.05Z"/><path class="cls-8" d="M48.22,22.7c.05,1.17.7,2.09,1.44,2.06s1.3-1,1.25-2.18-.7-2.1-1.44-2.06S48.17,21.53,48.22,22.7Z"/><path class="cls-8" d="M59.58,22.26c.06,1.17.7,2.09,1.44,2.06s1.31-1,1.26-2.18-.7-2.09-1.45-2.06S59.53,21.09,59.58,22.26Z"/><path class="cls-4" d="M62.94,11.11c-.13-.39-.28-.79-.45-1.19-2.21-5.13-10.22-6.6-10.22-6.6-17.64.29-15.52,18.17-15.52,18.17l-.31-.11c.06.29.11.55.17.78a3.72,3.72,0,0,1,2.71,1.53c1.18,1.52,0,1.52,0,1.52l3.18-.42-.39-5.34s4.24-1.27,4.83-6.86a30.59,30.59,0,0,0,11.7-1.11A13.22,13.22,0,0,0,62.94,11.11Z"/><path class="cls-18" d="M34.4,13.86s.68,5.08,1.19,7.28a3.7,3.7,0,0,1,2.71,1.53A8,8,0,0,1,39.77,26l2.47-.24-.59-7.27s3.69-1.32,4.28-6.91a30.64,30.64,0,0,0,11.69-1.1,13,13,0,0,0,4.87-.55s1.57,3.77,1.4,6.31a23.59,23.59,0,0,0,.34,5.93l1.19-.85L65,17.8A6.56,6.56,0,0,0,64.74,10s6.44-2.79.68-9.91a10.9,10.9,0,0,1-8.31,1C52.54-.21,38.47-1.56,36.78,5.55,36.78,5.55,30.67,8.26,34.4,13.86Z"/><path class="cls-13" d="M65.48.21C61.08,5.74,53,8.69,46.3,5.88a8.72,8.72,0,0,1-.87-.42A5.26,5.26,0,0,1,41.91.91c-2.57.8-4.56,2.23-5.13,4.64a7.42,7.42,0,0,0-1.39.87,28.1,28.1,0,0,0,10.35,6.29c.08-.36.14-.74.19-1.14a30.64,30.64,0,0,0,11.69-1.1,13,13,0,0,0,4.87-.55s1.57,3.77,1.4,6.31a23.59,23.59,0,0,0,.34,5.93l1.19-.85L65,17.8A6.56,6.56,0,0,0,64.74,10S71.12,7.27,65.48.21Z"/><path class="cls-13" d="M40,14.87c-3.26.45-4.94-.51-5.72-1.21l.12.2s.68,5.08,1.19,7.28a3.7,3.7,0,0,1,2.71,1.53A8,8,0,0,1,39.77,26l2.47-.24L42,23.13l-.92-4.7s4.24-1.27,4.83-6.86C45.93,11.57,44.91,14.2,40,14.87Z"/><path class="cls-13" d="M63.89,16.23a23.59,23.59,0,0,0,.34,5.93l1.19-.85L65,17.8a6.55,6.55,0,0,0-.23-7.73,3.33,3.33,0,0,1-2.27-.15S64.06,13.69,63.89,16.23Z"/><path class="cls-19" d="M61.68,7.52A12,12,0,0,0,63.09,6a9.92,9.92,0,0,0,1-1.59,5.71,5.71,0,0,0,.28-.67,3.4,3.4,0,0,0,.18-.54,1.5,1.5,0,0,0,.11-.48s-.24.68-.74,1.61a10.15,10.15,0,0,1-1,1.5,11.75,11.75,0,0,1-1.43,1.49,14.76,14.76,0,0,1-3.22,2.1c-.95.46-1.62.7-1.62.7s-.64.26-1.65.58a23.86,23.86,0,0,1-3.78.8,21.08,21.08,0,0,1-3.87.15c-1.06-.06-1.76-.2-1.76-.16a1.41,1.41,0,0,0,.47.14,11.87,11.87,0,0,0,1.27.2,19.69,19.69,0,0,0,3.93,0,22.4,22.4,0,0,0,3.86-.72c1-.3,1.71-.56,1.71-.56a16.8,16.8,0,0,0,1.64-.75A14.63,14.63,0,0,0,61.68,7.52Z"/><path class="cls-19" d="M62.57,9.47l.23-.13L63,9.18a5.13,5.13,0,0,0,.53-.45A7.81,7.81,0,0,0,64.9,7.12a8.27,8.27,0,0,0,.89-1.88A3.37,3.37,0,0,0,66,4.32a4.43,4.43,0,0,0-.39.85,10.59,10.59,0,0,1-1,1.77A8.48,8.48,0,0,1,63.26,8.4a4.88,4.88,0,0,1-.53.4l-.2.14-.21.13a4.48,4.48,0,0,1-.56.34,9.42,9.42,0,0,1-1.86.76c-1.42.41-2.92.43-2.91.51a3.52,3.52,0,0,0,.93.06A10.35,10.35,0,0,0,60,10.49a8.16,8.16,0,0,0,2-.69A6.09,6.09,0,0,0,62.57,9.47Z"/><path class="cls-19" d="M67.54,3.43c-.08,0-.06,1.29-.37,2.51a5.94,5.94,0,0,1-.6,1.59,3.7,3.7,0,0,1-.29.47l-.12.17L66,8.34a2.51,2.51,0,0,1-.37.4,4.14,4.14,0,0,1-1.4.91,6.9,6.9,0,0,1-1.65.42,2.91,2.91,0,0,0-.79.1,2.85,2.85,0,0,0,.8.08A5.75,5.75,0,0,0,64.38,10,4.2,4.2,0,0,0,66,9.07a3.4,3.4,0,0,0,.43-.44l.15-.17.13-.2A4.24,4.24,0,0,0,67,7.74,6,6,0,0,0,67.5,6,7.12,7.12,0,0,0,67.54,3.43Z"/><path class="cls-19" d="M37.38,4.56A4.36,4.36,0,0,1,38,3.49a5.17,5.17,0,0,1,1-1,8.14,8.14,0,0,1,2.35-1.14c.69-.21,1.17-.31,1.17-.31S43,.94,43.66.81,45.35.56,46.33.49s2-.11,2.69-.14A7.51,7.51,0,0,0,50.25.26,5.82,5.82,0,0,0,49,.16c-.74,0-1.73,0-2.71,0a24.56,24.56,0,0,0-2.72.23c-.73.1-1.22.22-1.22.22s-.49.11-1.2.35a8,8,0,0,0-2.42,1.3,4.89,4.89,0,0,0-1,1.09A4.49,4.49,0,0,0,37.2,4.5a3.48,3.48,0,0,0-.12.49,2.08,2.08,0,0,0,0,.39c0,.22,0,.34,0,.34S37.12,5.23,37.38,4.56Z"/><path class="cls-19" d="M60.18,2.44l.93-.19a12.14,12.14,0,0,0,2-.61,7.87,7.87,0,0,0,1.84-1A3,3,0,0,0,65.63,0a8.11,8.11,0,0,0-.8.49A9.65,9.65,0,0,1,63,1.33a13.74,13.74,0,0,1-2,.49L60.11,2a24.92,24.92,0,0,1-2.94.3c-1.49.07-3,0-3,0a12.54,12.54,0,0,0,3,.31A21.71,21.71,0,0,0,60.18,2.44Z"/><path class="cls-19" d="M40.14,4.39l.31-.27a10.13,10.13,0,0,1,1-.88,12.06,12.06,0,0,0,1.12-.82A3.72,3.72,0,0,0,41.31,3a8.93,8.93,0,0,0-1.17.81l-.32.32a5.58,5.58,0,0,0-.6.79,3.16,3.16,0,0,0-.39.91c-.06.27,0,.45,0,.45s.09-.16.2-.39a3.93,3.93,0,0,1,.49-.78A6,6,0,0,1,40.14,4.39Z"/><path class="cls-19" d="M40.84,6A6.41,6.41,0,0,1,42.18,4.6a8.57,8.57,0,0,1,1.7-.93c.5-.19.83-.29.83-.29L45,3.31a5.38,5.38,0,0,1,.62-.19,14.6,14.6,0,0,1,1.92-.37c1.43-.19,2.88-.14,2.89-.2a10.25,10.25,0,0,0-2.92-.14,15.8,15.8,0,0,0-2,.28c-.27.05-.49.13-.65.17l-.25.06s-.34.13-.85.35A7.62,7.62,0,0,0,42,4.34a5.61,5.61,0,0,0-1.3,1.55,2.47,2.47,0,0,0-.34.85S40.53,6.43,40.84,6Z"/><path class="cls-19" d="M34.11,10.3s.09-.17.21-.4a6.32,6.32,0,0,1,.52-.81,6.51,6.51,0,0,1,.94-1l.31-.29a3.68,3.68,0,0,1,.77-.52,1.57,1.57,0,0,1,.88-.19c.25,0,.41.09.43,0s0,0-.09-.09a1,1,0,0,0-.31-.15,1.65,1.65,0,0,0-1,.07,3.22,3.22,0,0,0-.91.48,4.71,4.71,0,0,0-.37.3,6.48,6.48,0,0,0-.9,1.17,3.83,3.83,0,0,0-.4.94C34.07,10.1,34.08,10.3,34.11,10.3Z"/><path class="cls-19" d="M37.81,10.9c0-.08,0-.21,0-.36a5.7,5.7,0,0,1,.3-1.07,6.6,6.6,0,0,1,.51-1c.16-.27.29-.43.27-.46s-.2.1-.42.34a4.91,4.91,0,0,0-.67,1,5.43,5.43,0,0,0-.42,1.12,2,2,0,0,0-.08.4c0,.09,0,.15,0,.15a4.65,4.65,0,0,0,0,.56,2.37,2.37,0,0,0,.43,1.17,1.94,1.94,0,0,0,1,.69,1.24,1.24,0,0,0,.54.06s-.19-.12-.47-.23a2,2,0,0,1-.8-.71,2.13,2.13,0,0,1-.27-1c0-.3,0-.49,0-.49S37.8,11,37.81,10.9Z"/><path class="cls-19" d="M38.43,14.75s-.35.08-.86.12a3.13,3.13,0,0,1-1.79-.39,4.22,4.22,0,0,1-1.37-1.21,4.82,4.82,0,0,1-.45-.71,4.38,4.38,0,0,1-.36-.76,4.78,4.78,0,0,1-.33-1.8,4.37,4.37,0,0,1,.14-1,4.28,4.28,0,0,1,.34-.8c.26-.44.51-.69.48-.72a1.89,1.89,0,0,0-.63.62,3.31,3.31,0,0,0-.44.82,4.37,4.37,0,0,0-.23,1,5.52,5.52,0,0,0,.61,2.81,4.91,4.91,0,0,0,.52.76,4.62,4.62,0,0,0,1.57,1.24,3.62,3.62,0,0,0,1,.29,3.14,3.14,0,0,0,.93,0A1.94,1.94,0,0,0,38.43,14.75Z"/><path class="cls-19" d="M45.38,13.76a8.59,8.59,0,0,1-.78,1.54,6.83,6.83,0,0,1-1.12,1.3,4.26,4.26,0,0,1-.43.36l-.17.13s-.25.19-.64.44a7.64,7.64,0,0,1-1.56.69A7.77,7.77,0,0,1,39,18.5a4,4,0,0,0-.8.06,2.32,2.32,0,0,0,.8.13,6.85,6.85,0,0,0,1.79-.15,7.12,7.12,0,0,0,1.7-.63c.43-.24.7-.43.7-.43l.18-.15a4.76,4.76,0,0,0,.44-.41,6.39,6.39,0,0,0,1.1-1.44,7.16,7.16,0,0,0,.68-1.67,2.32,2.32,0,0,0,.11-.8A3.89,3.89,0,0,0,45.38,13.76Z"/><path class="cls-19" d="M65.7,11.84A4.87,4.87,0,0,0,65,10.59c-.23-.32-.43-.48-.45-.46s.12.23.3.56A6,6,0,0,1,65.38,12a7.81,7.81,0,0,1,.25,1.33c0,.37,0,.62,0,.62v.16c0,.11,0,.27,0,.45a5.74,5.74,0,0,1-.19,1.33,4,4,0,0,1-.56,1.23c-.21.3-.39.48-.36.52a1.63,1.63,0,0,0,.51-.41A3.9,3.9,0,0,0,65.82,16a6.58,6.58,0,0,0,.3-1.42c0-.19,0-.36,0-.47v-.18s0-.27-.07-.65A7.63,7.63,0,0,0,65.7,11.84Z"/><path class="cls-4" d="M53.84,36.89c2.63-.2,5.87,0,8-1.31a5.16,5.16,0,0,0,2.29-4,18.71,18.71,0,0,0,.38-3.66,16.52,16.52,0,0,1-1.39,5c-1.62,3.07-6.72,3.88-14.33,3.07S40.15,30,40.15,30L40,30.9c2.76,2.83,1.89,7.41,3.46,8.56a12,12,0,0,0,3.45,1.82c1-1.73,2.23-3.53,3.34-3.31s1.83,1.75,2.2,3.08c.19-.08.38-.15.57-.25C53.69,39.28,52.21,37.66,53.84,36.89Z"/><path class="cls-18" d="M47.78,17.34c0-.05.14,0,.29,0a1.62,1.62,0,0,0,.53,0,1.71,1.71,0,0,0,.47-.18l.2-.12a2.36,2.36,0,0,0,.63-.41c.29-.25.46-.63.56-.62s.09.5-.17.93a2.41,2.41,0,0,1-.68.71l-.3.11a2.08,2.08,0,0,1-.69.08,1.42,1.42,0,0,1-.64-.21C47.82,17.48,47.75,17.38,47.78,17.34Z"/><path class="cls-18" d="M62.44,15.57c-.11,0-.3-.3-.57-.48a1.49,1.49,0,0,0-.41-.17.58.58,0,0,0-.18,0l-.19-.05a.4.4,0,0,0-.2,0h-.24c-.34,0-.68.19-.75.11s.2-.41.63-.59c.1,0,.22-.06.32-.09a1.09,1.09,0,0,1,.3,0l.3,0,.27.13a1.6,1.6,0,0,1,.49.4C62.5,15.11,62.52,15.56,62.44,15.57Z"/><path class="cls-18" d="M65.05,18.91l-1.26,0,0,.16a1.42,1.42,0,0,0,.07-.14l-.16,8.57s-2.13-1.67-8.44-1.09a26.7,26.7,0,0,0-10.16,2.8s-.54-5.32-3.48-8.11l-5.94.16c1.18.53,3.78,2.39,3.83,4.84.06,3.41-.24,3.86-.24,3.86-.54.91,1.67,4.53,2.34,5.15a12.15,12.15,0,0,0,4.91,2.7c3.43.94,8.44.65,11.91.14,7.27-1,7.83-3.84,7.76-7.55A70,70,0,0,0,65.05,18.91Z"/><path class="cls-13" d="M66.22,30.36a70,70,0,0,0-1.17-11.45l-1.26,0,0,.16a1.42,1.42,0,0,0,.07-.14l-.1,5.35A6.19,6.19,0,0,1,64.53,31C62.45,35,58.31,36.25,54.17,36c-2.77-.13-5.21-.2-7.71-1.63a9.16,9.16,0,0,1-3.56-4.26,9.67,9.67,0,0,1-1-4,3.85,3.85,0,0,1,1.38-2.85c-.1-.2-.22-.39-.34-.58l0,0a5.14,5.14,0,0,0-.37-.54l0-.05c-.13-.17-.27-.34-.41-.5a.08.08,0,0,0,0,0,5.11,5.11,0,0,0-.45-.48l-.73,0-4.7.12h-.51c1.18.53,3.78,2.39,3.83,4.84.06,3.41-.24,3.86-.24,3.86-.54.91,1.67,4.53,2.34,5.15a12.15,12.15,0,0,0,4.91,2.7c3.43.94,8.44.65,11.91.14l.66-.1C65.77,36.69,66.28,34,66.22,30.36Z"/><path class="cls-8" d="M58.59,29a3.16,3.16,0,0,0-3.17-.57c-.78.27-1.86,1.1-1.79,2.18s1.61.73,2.22.6a5.82,5.82,0,0,1,1.3-.23c.56,0,1.28.39,1.78-.07S59,29.36,58.59,29Z"/></g></g></g></svg>