<svg xmlns="http://www.w3.org/2000/svg" viewBox="0 0 106.85 198.07"><defs><style>.cls-1{isolation:isolate;}.cls-12,.cls-2{fill:#d2e4ff;}.cls-14,.cls-16,.cls-17,.cls-2,.cls-7,.cls-9{mix-blend-mode:multiply;}.cls-3{fill:#fad0bf;}.cls-4,.cls-5{fill:#fa7296;}.cls-18,.cls-4,.cls-9{opacity:0.2;}.cls-6{fill:#1b205e;}.cls-11,.cls-7,.cls-9{fill:#1d255b;}.cls-16,.cls-7{opacity:0.4;}.cls-8{fill:#4052a0;}.cls-10,.cls-14{opacity:0.5;}.cls-13,.cls-14{fill:#cc5252;}.cls-15{fill:#65a1ff;}.cls-17{fill:#c87568;opacity:0.8;}.cls-19{fill:#963e35;}.cls-20{fill:#ba5443;}</style></defs><g class="cls-1"><g id="Layer_2" data-name="Layer 2"><g id="OBJECTS"><path class="cls-2" d="M73.87,190.57c0,4.14-14.23,7.5-31.79,7.5s-31.79-3.36-31.79-7.5,14.24-7.5,31.79-7.5S73.87,186.43,73.87,190.57Z"/><path class="cls-3" d="M100.61,22a11.67,11.67,0,0,0,2.5-8.5s4.67-5.66,3.33-7.83-4,3.83-4,3.83c1-2.22,2.23-6.07.59-8.24a1.77,1.77,0,0,0-.87-.68c-.36-.11-.72,0-1.07-.06C99.15,0,98.34,1.84,97.83,3.4a21.59,21.59,0,0,0-.74,2.73,7.92,7.92,0,0,1-.15-2,9.93,9.93,0,0,0-.56-1.61c-.22-.89-.6-2.3-1.77-2.21-2.17.16-1.17,9.5-1.17,9.5s-2.11-4.2-3.5-3.09c-1.66,1.34,2.34,8.09,2.5,10.09a5.81,5.81,0,0,1-.66,3.33S97.78,23.8,100.61,22Z"/><path class="cls-4" d="M92.44,16.8c-.16-2-4.16-8.75-2.5-10.09,1.39-1.11,3.5,3.09,3.5,3.09A43.78,43.78,0,0,1,93.25,4c2.1,3.24,5.39,5.83,9.26,5.31,0,.06-.05.11-.07.16l.08-.16a8,8,0,0,0,1.88-.47,6.37,6.37,0,0,0,2.16-1.39c-.52,2.2-2.7,5.07-3.3,5.83a4.86,4.86,0,0,0-9.35,1.86v.17a4.92,4.92,0,0,0,4.87,4.87,4.86,4.86,0,0,0,3.85-2,12.08,12.08,0,0,1-2,3.75c-2.83,1.84-8.83-1.83-8.83-1.83A5.81,5.81,0,0,0,92.44,16.8Z"/><path class="cls-5" d="M95.36,10.41A2.39,2.39,0,0,0,95,10.2a4.13,4.13,0,0,1,1.15-.29,6.31,6.31,0,0,1,1.66.06c.44.08.74.16.74.16a8.68,8.68,0,0,1,2.14,1,5.34,5.34,0,0,1,1.23,1.07c.29.34.4.62.37.63s-.21-.2-.54-.47a6.47,6.47,0,0,0-1.28-.88,8.65,8.65,0,0,0-1.42-.62l-.67-.21-.68-.19a6.8,6.8,0,0,0-1.53-.17A5.55,5.55,0,0,0,95.36,10.41Z"/><path class="cls-5" d="M93.53,9.88s.31.13.77.31a6.33,6.33,0,0,1,1.53.89A6.87,6.87,0,0,1,97,12.38c.26.4.41.68.41.68a5.71,5.71,0,0,1,.36.71,6.32,6.32,0,0,1,.49,1.68,6.13,6.13,0,0,1,0,1.78,3.34,3.34,0,0,0-.13.82,2,2,0,0,0,.37-.77,5.48,5.48,0,0,0,.24-1.87,7.13,7.13,0,0,0-.4-1.86c-.19-.49-.35-.8-.35-.8a7.86,7.86,0,0,0-.5-.71,6.24,6.24,0,0,0-1.38-1.31A5.49,5.49,0,0,0,94.37,10,2,2,0,0,0,93.53,9.88Z"/><path class="cls-5" d="M91.86,15.8a4,4,0,0,0-.29-1.12l-.85-2.37A19.05,19.05,0,0,1,90,9.94c0-.33-.1-.61-.13-.8s0-.3,0-.3,0-.1,0-.29a2.94,2.94,0,0,1,0-.78c0-.3.13-.68.35-.79s.66.06,1,.31a7.25,7.25,0,0,1,1.67,1.78c.38.56.53,1,.57,1a5.3,5.3,0,0,0-2-3.11,2.93,2.93,0,0,0-.63-.4l-.4-.1a1.13,1.13,0,0,0-.44.07,1.46,1.46,0,0,0-.71,1.18,3.6,3.6,0,0,0-.05.88c0,.21,0,.33,0,.33a1.27,1.27,0,0,0,0,.32c0,.21.11.5.18.84a16.8,16.8,0,0,0,.85,2.41c.35.85.75,1.68,1,2.3A4.88,4.88,0,0,0,91.86,15.8Z"/><path class="cls-5" d="M100.86.57a1.86,1.86,0,0,1,.9-.08A2.31,2.31,0,0,1,103,2a4.55,4.55,0,0,1,.23,1.07,4.13,4.13,0,0,1,.07,1,3.86,3.86,0,0,1,0,.93,2.32,2.32,0,0,1,0,.26,3.3,3.3,0,0,1-.08.68,10.05,10.05,0,0,1-.55,2,11.73,11.73,0,0,1-.94,1.88,3.68,3.68,0,0,0-.5.84s.3-.25.7-.69A9.81,9.81,0,0,0,103,8.08,10.19,10.19,0,0,0,103.67,6a3.44,3.44,0,0,0,.12-.72c0-.17,0-.27,0-.27a4.56,4.56,0,0,0,0-1,4.44,4.44,0,0,0-.14-1,4.43,4.43,0,0,0-.32-1.14c-.32-.73-.88-1.47-1.55-1.59A1,1,0,0,0,100.86.57Z"/><path class="cls-5" d="M93.17,5.69a5,5,0,0,0,.12-1.22,11,11,0,0,1,.41-2.61A2.13,2.13,0,0,1,94.39.79c.34-.24.59-.23.8,0a3.11,3.11,0,0,1,.56.93l.14.3c0,.1.08.22.14.35l0,.11a.41.41,0,0,1,0,.1c0,.08.05.16.08.25a21.9,21.9,0,0,1,.58,2.6,10.88,10.88,0,0,1,.16,2.65c0,.18,0,.34,0,.49l-.1.36c0,.21-.07.34,0,.34s.08-.09.17-.29l.16-.37c0-.15.06-.32.1-.5a9.5,9.5,0,0,0,0-2.74,17.45,17.45,0,0,0-.47-2.7l-.06-.26,0-.14,0-.11-.14-.37-.12-.32-.16-.32a2.57,2.57,0,0,0-.61-.79,1,1,0,0,0-.72-.28,1.23,1.23,0,0,0-.76.32,2.49,2.49,0,0,0-.8,1.34,9.42,9.42,0,0,0-.23,2.74A5,5,0,0,0,93.17,5.69Z"/><path class="cls-5" d="M98.11,2.48s.21-.36.6-.81a6,6,0,0,1,.7-.74,1.7,1.7,0,0,1,.9-.48c.29,0,.54.24.64.52A3.29,3.29,0,0,1,101,2c0,.61-.09,1-.09,1s0,.44-.07,1.06c0,.31,0,.68-.1,1.07s-.12.8-.18,1.22c-.31,1.66-.71,3.31-.63,3.33a19.59,19.59,0,0,0,1-3.23c.09-.42.18-.84.26-1.24s.11-.78.15-1.1c.09-.65.12-1.06.12-1.06s0-.41,0-1.08a3.54,3.54,0,0,0-.17-1.18A1.38,1.38,0,0,0,101,.2a.84.84,0,0,0-.68-.19A2,2,0,0,0,99.2.67a5.3,5.3,0,0,0-.66.85,3.15,3.15,0,0,0-.35.68C98.12,2.37,98.09,2.47,98.11,2.48Z"/><path class="cls-5" d="M103.4,12.5A5.62,5.62,0,0,0,105,11a15.24,15.24,0,0,0,.89-1.26l.33-.62.08-.18a3.34,3.34,0,0,0,.18-.48A8.12,8.12,0,0,0,106.83,7a2.68,2.68,0,0,0-.21-1.57c-.26-.44-.67-.36-.64-.33s.3.09.43.44a2.85,2.85,0,0,1,0,1.39,8.72,8.72,0,0,1-.42,1.4,2.52,2.52,0,0,1-.2.43l-.08.16-.27.61c-.19.34-.44.82-.74,1.27C104.1,11.65,103.33,12.42,103.4,12.5Z"/><path class="cls-6" d="M69.78,53.63s4.66.42,10.66-9.33S91.11,18.13,91.11,18.13s2.75,3.25,11.25,3.5c0,0-4.92,19.92-10.42,29.42S73.86,71.8,68.11,72.3Z"/><path class="cls-7" d="M68.78,64.72C85.73,59.14,96,39,97.32,21a27.07,27.07,0,0,0,5,.59S97.44,41.55,91.94,51.05,73.86,71.8,68.11,72.3Z"/><path class="cls-6" d="M54.86,171.41c-.27.43-2.29,4.74-2.29,4.74s5.1,13.77,3.48,14.17-7.73-10.42-7.8-13.23l3.45-8Z"/><path class="cls-7" d="M54.86,171.41c-.27.43-2.29,4.74-2.29,4.74l0,.09a4,4,0,0,0-1.17,3.5,5,5,0,0,0,.46,3,6.16,6.16,0,0,0,.33.55,6.27,6.27,0,0,0,1.72,2.73A4.42,4.42,0,0,0,56,187.14c.4,1.76.51,3.06,0,3.18-1.63.4-7.73-10.42-7.8-13.23l3.45-8Z"/><path class="cls-6" d="M20.48,169.35c-.43.27-4.16,3.24-4.16,3.24s-1.53,14.6-3.16,14.24S10.85,174.07,12,171.51l6.64-5.62Z"/><path class="cls-7" d="M20.48,169.35c-.43.27-4.16,3.24-4.16,3.24a.51.51,0,0,1,0,.09,4,4,0,0,0-2.6,2.61,5.08,5.08,0,0,0-.93,2.93,4.6,4.6,0,0,0,.05.64,6.33,6.33,0,0,0,.33,3.2A4.45,4.45,0,0,0,14.55,184c-.43,1.75-.91,3-1.39,2.86-1.64-.37-2.31-12.76-1.13-15.32l6.64-5.62Z"/><path class="cls-8" d="M65.43,107.13s4.56,18.8,5.4,33.31-15.58,31.84-15.58,31.84a5.13,5.13,0,0,1-5-2.56s8.93-17.4,9-24.4S54,121,54,121s-2.72,21-11.1,33.14-22.42,16.27-22.42,16.27-4.5.2-5.21-3.56c0,0,14.88-12.59,17.93-17.31s6.34-41.45,6.34-41.45,15.82-13.38,26.77-1"/><path class="cls-9" d="M33.24,149.55c3-4.72,6.34-41.45,6.34-41.45s15.82-13.38,26.77-1l-.92,0s.58,2.41,1.37,6.16a5.34,5.34,0,0,0-.82.47c-5.25,3.69-6.34,11.49-5.69,17.48.57,5.39,3,12.43,9.86,11.28l.23-.05.45,0c-.62,14.05-15.58,29.84-15.58,29.84a5.13,5.13,0,0,1-5-2.56s8.93-17.4,9-24.4S54,121,54,121s-.15,1.09-.46,2.89a16.32,16.32,0,0,0-1.11-5.9,5.46,5.46,0,0,0-7.57-2.6c-4.06,2.09-4.47,8.74-4.89,12.66-.57,5.44-2.06,10.11-.26,15.53a4.94,4.94,0,0,0,7.44,2.71,47.42,47.42,0,0,1-4.25,7.85c-8.38,12.16-22.42,16.27-22.42,16.27s-4.5.2-5.21-3.56C15.31,166.86,30.19,154.27,33.24,149.55Z"/><g class="cls-10"><path class="cls-11" d="M67.73,145.67a55.36,55.36,0,0,1-4,10.88c-.78,1.6-1.48,3.15-2.27,4.52-.38.7-.74,1.37-1.1,2s-.75,1.23-1.1,1.81l-1,1.63c-.33.51-.68,1-1,1.41a23.37,23.37,0,0,1-1.66,2.18l-1.55,1.76,1.59-1.73A21.33,21.33,0,0,0,57.39,168c.32-.43.67-.89,1-1.39l1-1.62c.36-.58.75-1.17,1.13-1.8l1.12-2c.8-1.37,1.53-2.91,2.32-4.51a53.64,53.64,0,0,0,4-10.92,39.53,39.53,0,0,0,.69-11.58,69.57,69.57,0,0,0-1.66-9.33c-.63-2.62-1.21-4.73-1.59-6.19s-.6-2.26-.6-2.26.2.81.55,2.28.9,3.58,1.49,6.21a72.63,72.63,0,0,1,1.56,9.32A40.33,40.33,0,0,1,67.73,145.67Z"/><path class="cls-11" d="M42.82,150.58a33.11,33.11,0,0,1-7.33,8.59c-1.35,1.1-2.68,2.09-4,3l-1.81,1.33L28,164.68l-1.61,1c-.52.29-1,.52-1.5.76l-2.41,1.2-2.06,1,2.08-1L25,166.49c.47-.23,1-.45,1.52-.74l1.64-.94,1.72-1.16,1.83-1.31c1.28-.89,2.62-1.88,4-3a32.92,32.92,0,0,0,7.42-8.63c.48-.89,1-1.76,1.41-2.64s.79-1.79,1.15-2.68.61-1.79.9-2.66l.74-2.58c.48-1.68.93-3.28,1.33-4.78s.8-2.89,1.08-4.19.56-2.45.8-3.48.31-1.93.42-2.66l.37-2.26s-.15.8-.41,2.26l-.48,2.65c-.25,1-.53,2.17-.85,3.46s-.7,2.67-1.13,4.17-.89,3.08-1.37,4.76l-.76,2.58c-.29.86-.6,1.74-.9,2.63s-.76,1.75-1.15,2.65S43.3,149.69,42.82,150.58Z"/></g><g class="cls-10"><path class="cls-11" d="M53.61,122.13s.63-.77,1.36-1.42a13.8,13.8,0,0,1,1.59-1.13,17,17,0,0,1,1.73-.93c.9-.4,1.83-.72,1.82-.77a3,3,0,0,0-.61.13c-.36.09-.83.27-1.3.43a16,16,0,0,0-1.8.87,12.58,12.58,0,0,0-1.58,1.24,7.65,7.65,0,0,0-.88,1A2.29,2.29,0,0,0,53.61,122.13Z"/><path class="cls-11" d="M54.11,121.13a16.09,16.09,0,0,0,1.47-1.33c.73-.68,1.48-1.31,1.48-1.31a16.25,16.25,0,0,1,1.56-1.19c.82-.54,1.75-.87,1.74-.92a2.91,2.91,0,0,0-.6.16,8.33,8.33,0,0,0-1.26.57,15.88,15.88,0,0,0-1.64,1.14s-.75.67-1.43,1.39A16.89,16.89,0,0,0,54.11,121.13Z"/><path class="cls-11" d="M57.36,115.38s.07,0,.17-.13a3.13,3.13,0,0,0,.41-.41,5.49,5.49,0,0,0,.9-1.49,8.31,8.31,0,0,0,.52-2.49,15.31,15.31,0,0,0-.16-2.53c-.11-.62-.23-1.24-.35-1.7a3.43,3.43,0,0,0-.24-.75,5.76,5.76,0,0,0,.12.78c.08.46.17,1.08.25,1.7a16.81,16.81,0,0,1,.07,2.48,8.63,8.63,0,0,1-.42,2.43,5.69,5.69,0,0,1-.79,1.5C57.57,115.14,57.34,115.36,57.36,115.38Z"/><path class="cls-11" d="M54.36,115.13a4.42,4.42,0,0,0,.5-.64,7.67,7.67,0,0,0,.83-1.6,11.31,11.31,0,0,0,.4-1.76c.07-.48.11-.81.11-.81a24.42,24.42,0,0,0,0-2.61c-.06-.65-.12-1.29-.18-1.78a4.23,4.23,0,0,0-.12-.8,4.4,4.4,0,0,0,0,.81c0,.49,0,1.14.08,1.78,0,1.3,0,2.58,0,2.58s0,.32-.08.79a11.38,11.38,0,0,1-.34,1.73A14.83,14.83,0,0,1,54.36,115.13Z"/><path class="cls-11" d="M42.36,114.88a1.11,1.11,0,0,0,.26,0,3.47,3.47,0,0,0,.69,0,5.18,5.18,0,0,0,2-.54,6.78,6.78,0,0,0,1.7-1.27c.4-.42.64-.73.64-.73a9.89,9.89,0,0,0,1.36-2.75,8.26,8.26,0,0,0,.36-2.08,3.64,3.64,0,0,0,0-.69.9.9,0,0,0,0-.26s0,.38-.07,1a9.25,9.25,0,0,1-.45,2,9.93,9.93,0,0,1-1.4,2.64s-.22.3-.59.71a7,7,0,0,1-1.6,1.28,5.39,5.39,0,0,1-2,.61C42.74,114.88,42.36,114.85,42.36,114.88Z"/><path class="cls-11" d="M64.36,107.63a2.65,2.65,0,0,0-.27.55,4.56,4.56,0,0,0-.32,1.32,5.17,5.17,0,0,0,.12,1.37c.1.36.16.61.16.61a5.84,5.84,0,0,0,1.12,1.65,4.9,4.9,0,0,0,1.12.77,2.31,2.31,0,0,0,.57.23A10.79,10.79,0,0,1,65.33,113a6.12,6.12,0,0,1-1-1.61s-.07-.22-.17-.56a5.21,5.21,0,0,1-.18-1.29A10.53,10.53,0,0,1,64.36,107.63Z"/></g><path class="cls-2" d="M60.31,53.11c-.17-.37-.32-.74-.47-1.13A6.41,6.41,0,0,1,60,54.06S60.11,53.7,60.31,53.11Z"/><path class="cls-9" d="M39.16,112.56c.27-2.74.42-4.46.42-4.46s15.82-13.38,26.77-1l-.92,0s.68,2.79,1.55,7A18.92,18.92,0,0,1,57,108,22.21,22.21,0,0,1,39.16,112.56Z"/><path class="cls-6" d="M32.14,52.52s9.23-5.9,20-5.9,16.66,3.85,19.23,5.9,1.53,21.27-1,27.68A62.74,62.74,0,0,0,67,95.32c-.26,3.08.64,14.23.64,14.23A19,19,0,0,1,57,103.65a23.31,23.31,0,0,1-19,4.1,151.53,151.53,0,0,0,1.53-21.66C39.32,76.61,32.4,57.64,32.14,52.52Z"/><path class="cls-7" d="M67,95.32a68.57,68.57,0,0,1,1.48-9,18.82,18.82,0,0,1-13.79,2.16c-8.53-1.89-14.92-10.7-16.22-19a54.26,54.26,0,0,1,0-18.81q.14-.7.33-1.38l-.73.28-.19.08-.49.21-.26.11-.4.17-.26.12-.35.16-.26.12-.32.15-.25.12L35,51l-.23.11-.27.14-.21.11-.24.12-.2.11-.21.11-.18.09-.19.11-.15.08L33,52l-.13.08-.14.08-.11.06-.11.07-.08,0-.08.06-.06,0-.06,0h0l0,0c.26,5.12,7.18,24.09,7.43,33.57A151.53,151.53,0,0,1,38,107.75c.42.09.83.16,1.24.22l.35,0,.89.1c.12,0,.23,0,.35,0,.33,0,.65.06,1,.07H42c.4,0,.79,0,1.18,0a11.2,11.2,0,0,1-.07-1.3v-.1a12.07,12.07,0,0,1,24.14,0v.1a11.29,11.29,0,0,1-.27,2.48,5.43,5.43,0,0,0,.59.11h0S66.74,98.4,67,95.32Z"/><path class="cls-8" d="M70.33,80.07a3.76,3.76,0,0,1,.09-.58c.07-.37.18-.9.31-1.53s.26-1.36.4-2.15.32-1.63.4-2.48c.21-1.7.46-3.39.51-4.68l.15-2.13s0-.21.06-.58,0-.9,0-1.54,0-1.38,0-2.18-.08-1.65-.13-2.5S72,58,72,57.22s-.13-1.55-.2-2.18-.1-1.17-.14-1.55a5.19,5.19,0,0,1,0-.59,2.56,2.56,0,0,1,.12.58c.06.37.13.9.23,1.53s.19,1.38.28,2.18.21,1.65.26,2.5.13,1.71.19,2.51,0,1.56,0,2.21,0,1.18,0,1.55,0,.59,0,.59l-.2,2.14c-.07,1.29-.36,3-.61,4.69-.11.85-.33,1.69-.48,2.48s-.31,1.52-.48,2.14-.3,1.15-.4,1.51A2.41,2.41,0,0,1,70.33,80.07Z"/><path class="cls-8" d="M57,103.65c-.13,0,0-5.27,0-5.27L57,95.76a19.86,19.86,0,0,1,.18-2.62,16.41,16.41,0,0,1,.16,2.62c0,.66,0,1.32.05,1.81s0,.83,0,.83S57.12,103.66,57,103.65Z"/><path class="cls-12" d="M44.7,46.62s4.1,10.51,6.15,15.13,2.57,14.86,3.33,17.17,2.48,11,2.48,11A45.06,45.06,0,0,0,63.41,74.3c2-9.22,0-21.53-3.59-26.4S49.57,43.8,44.7,46.62Z"/><path class="cls-2" d="M44.7,46.62s4.1,10.51,6.15,15.13,2.57,14.86,3.33,17.17,2.48,11,2.48,11A45.06,45.06,0,0,0,63.41,74.3c2-9.22,0-21.53-3.59-26.4S49.57,43.8,44.7,46.62Z"/><path class="cls-13" d="M52.13,50.72s1.29,3.21,3.08,4.23c0,0-.51,7-.77,12.43s2.39,23.88,2.39,23.88,4.28-12.09,5-17.47S58,54.7,58,54.7s1.92-.77,1.41-4.62S52.9,43.55,52.13,50.72Z"/><path class="cls-14" d="M57.81,70.92c-.34-4.79-1.65-9.73-.4-14.47a2.15,2.15,0,0,1,.8-1.21L58,54.7a2.9,2.9,0,0,0,1.42-2.37,4.18,4.18,0,0,1-2,.73,3.08,3.08,0,0,1-3.33-2.93,3.34,3.34,0,0,1,.64-2.07,2.42,2.42,0,0,1,1.34-1,2.3,2.3,0,0,1,1.72.22l.28.18c-2-1.92-5.37-2-5.94,3.29,0,0,1.29,3.21,3.08,4.23,0,0-.51,7-.77,12.43s2.39,23.88,2.39,23.88.7-2,1.57-4.65C58.06,81.38,58.18,76.14,57.81,70.92Z"/><path class="cls-7" d="M65.27,55.69c-4.78-11.69-7.48-9.77-7.48-9.77a52.91,52.91,0,0,1,3.76,23.16,104.13,104.13,0,0,1-4.63,23.64c-.44-5.22-1.6-17.84-3.17-25.28-2-9.55-8.84-18-7.83-22.8,0,0-4.61,2.4-4.44,7S43.32,66,45.17,68s5.72,1,5.72,1-3.53,5.78-2.19,9.69a52,52,0,0,0,3.75,7.73c.82,1.5,1.66,3,2.48,4.5s1.1,2.89,2.14,4.1c.7-1.3,2.19-2.41,3.08-3.67a34,34,0,0,0,2.68-4.69A45.32,45.32,0,0,0,66,77.51c1.38-6-1.41-9.58-1.41-9.58C66.85,67.39,68.63,63.89,65.27,55.69Z"/><path class="cls-8" d="M45.92,44.64S41.31,47,41.48,51.41s1.84,13.79,3.69,15.74,5.72,1,5.72,1-3.53,5.57-2.19,9.33,5.72,10.59,8.41,15.75c0,0-1.34-17.42-3.36-26.61S44.91,49.23,45.92,44.64Z"/><path class="cls-9" d="M52.24,71.16a11.61,11.61,0,0,1,1.5-4.61l-.07-.27a10.24,10.24,0,0,1-5-2.48c-3.78-3-4.64-7.63-5.14-12.11a8.28,8.28,0,0,1,2.29-5.93,5.08,5.08,0,0,1,.1-1.12S41.31,47,41.48,51.41s1.84,13.79,3.69,15.74,5.72,1,5.72,1-3.53,5.57-2.19,9.33,5.72,10.59,8.41,15.75c0,0-.11-1.43-.31-3.67C53.64,84,51.53,77.63,52.24,71.16Z"/><path class="cls-8" d="M56.6,91.86a96.34,96.34,0,0,0,4.95-23.69,49.27,49.27,0,0,0-3.76-22.29s2.7-1.86,7.48,9.39c3.36,7.9,1.58,11.27-.64,11.79,0,0,2.79,3.46,1.41,9.23-1.16,4.82-4.32,13.13-9.27,17Z"/><path class="cls-9" d="M62.22,76.74c.41-1.91,1.2-6.94,3.41-7.84a7.94,7.94,0,0,0-1-1.84,2.9,2.9,0,0,0,1.92-1.58c-1.71-1.27-2.66-3.88-3.1-6a25.71,25.71,0,0,0-1.56-5.84,63.62,63.62,0,0,1-3.52-7.87v0a.93.93,0,0,0-.58.11,49.27,49.27,0,0,1,3.76,22.29A96.34,96.34,0,0,1,56.6,91.86l.17,1.39a19.51,19.51,0,0,0,4.42-5.16C60.52,84.41,61.51,80.14,62.22,76.74Z"/><path class="cls-12" d="M46.92,41.5a5.21,5.21,0,0,0-.55,7.69,13.57,13.57,0,0,0,6.53,5.38s-1.19-4.87,2.57-7.78c0,0,5,2.31,4.48,7.27a13.26,13.26,0,0,0,1-6.58C60.42,44.23,54.27,38.93,46.92,41.5Z"/><path class="cls-2" d="M58.73,47.41a.28.28,0,0,1,0-.09,5.67,5.67,0,0,1,.5-2.89,11.57,11.57,0,0,0-12.3-2.93A5.43,5.43,0,0,0,45,46.31a2.11,2.11,0,0,1,1.6-.73c2.66-.07,5.33,0,6.59,2.87.12.26.21.53.31.79a6.62,6.62,0,0,1,2-2.45,9.4,9.4,0,0,1,3.39,2.94A6.2,6.2,0,0,1,58.73,47.41Z"/><path class="cls-15" d="M55,46A9.33,9.33,0,0,0,58,45.21a30.16,30.16,0,0,1-3.08.45,13.26,13.26,0,0,1-2.12,0l-.69-.09-.26,0-.26,0a5.81,5.81,0,0,1-.67-.14,8.22,8.22,0,0,1-2-.72,7.27,7.27,0,0,1-1.69-1.25,5.76,5.76,0,0,0-.67-.7,3.44,3.44,0,0,0,.54.83,6.8,6.8,0,0,0,1.65,1.42,8.7,8.7,0,0,0,2,.85c.29.09.54.13.71.17l.27.06a1.87,1.87,0,0,0,.27,0l.72.07A12.87,12.87,0,0,0,55,46Z"/><path class="cls-15" d="M59.28,50c-.08-.2-.17-.35-.22-.46L59,49.38a6.17,6.17,0,0,0-.42-.57,6.35,6.35,0,0,0-1.11-1.07,5.11,5.11,0,0,0-1.38-.67,3.54,3.54,0,0,0-.49-.1l.17-.11c.36-.23.64-.32.62-.36s-.07,0-.2,0a2,2,0,0,0-.51.17,4.06,4.06,0,0,0-1.31,1,6.7,6.7,0,0,0-.9,1.38c-.1.21-.17.38-.22.5a1.24,1.24,0,0,0-.08.19,10,10,0,0,0-.46,2.33,7.16,7.16,0,0,0,0,1.63,2,2,0,0,0,.18.71,3.18,3.18,0,0,0,0-.73,10.09,10.09,0,0,1,.1-1.57,11.14,11.14,0,0,1,.58-2.21l.07-.18c0-.12.11-.28.18-.48a6.82,6.82,0,0,1,.77-1.35,4.61,4.61,0,0,1,.87-.89l.52.22a5.64,5.64,0,0,1,1.23.76,5.79,5.79,0,0,1,1,1.07c.22.32.35.55.35.55l.1.16c.05.1.15.23.23.41a8.75,8.75,0,0,1,.59,1.35c.36,1,.54,2.09.61,2.08a6.9,6.9,0,0,0-.28-2.18A9.43,9.43,0,0,0,59.28,50Z"/><path class="cls-15" d="M61,48.79a10.49,10.49,0,0,0-.14-1.4c-.06-.38-.12-.63-.12-.63a5.9,5.9,0,0,0-.22-.61,5.56,5.56,0,0,0-.67-1.26,5.32,5.32,0,0,0-1-1c-.31-.23-.53-.35-.55-.32s.16.2.42.46a6.1,6.1,0,0,1,.82,1.07,6.54,6.54,0,0,1,.54,1.22c.11.34.16.58.16.58s.07.24.16.59.16.85.23,1.34a18.42,18.42,0,0,0,.23,2A7.63,7.63,0,0,0,61,48.79Z"/><path class="cls-15" d="M50.52,53.12c-.56-.47-1.28-1.11-2-1.8a16.42,16.42,0,0,1-1.71-2,11.35,11.35,0,0,1-.65-1,9.47,9.47,0,0,1-.56-1,5.42,5.42,0,0,1-.51-2.49,4.17,4.17,0,0,1,.31-1.33,5.09,5.09,0,0,1,.61-1c.43-.57.81-.89.78-.92s-.11,0-.28.19a4.2,4.2,0,0,0-.65.61,4.56,4.56,0,0,0-.7,1.05,4.35,4.35,0,0,0-.41,1.41,5.58,5.58,0,0,0,.44,2.69,9.46,9.46,0,0,0,.55,1.12,11.78,11.78,0,0,0,.71,1,16.8,16.8,0,0,0,1.83,2,21.8,21.8,0,0,0,2.07,1.7,5.64,5.64,0,0,0,1,.66A7.92,7.92,0,0,0,50.52,53.12Z"/><path class="cls-3" d="M6.24,22.08a11.72,11.72,0,0,1-2.5-8.5S-.92,7.92.41,5.75s4,3.83,4,3.83c-1-2.22-2.22-6.07-.59-8.24A1.79,1.79,0,0,1,4.7.66c.35-.11.72,0,1.06-.06C7.7.11,8.51,2,9,3.52a21.59,21.59,0,0,1,.74,2.73,7.13,7.13,0,0,0,.15-2c0-.59.43-1,.57-1.61.21-.89.59-2.3,1.76-2.21,2.17.16,1.17,9.5,1.17,9.5s2.11-4.2,3.5-3.09c1.67,1.34-2.33,8.09-2.5,10.09a5.76,5.76,0,0,0,.67,3.33S9.08,23.92,6.24,22.08Z"/><path class="cls-4" d="M14.41,16.92c.17-2,4.17-8.75,2.5-10.09-1.39-1.11-3.5,3.09-3.5,3.09a43.78,43.78,0,0,0,.19-5.81C11.51,7.35,8.22,9.94,4.34,9.42l.07.16-.07-.16A8.43,8.43,0,0,1,2.45,9,6.37,6.37,0,0,1,.29,7.56c.52,2.2,2.7,5.07,3.3,5.83a4.92,4.92,0,0,1,4.49-3A4.92,4.92,0,0,1,13,15.25v.17a4.92,4.92,0,0,1-4.87,4.87,4.88,4.88,0,0,1-3.86-2,12.32,12.32,0,0,0,2,3.75c2.84,1.84,8.84-1.83,8.84-1.83A5.76,5.76,0,0,1,14.41,16.92Z"/><path class="cls-5" d="M11.5,10.53l.33-.22A4.43,4.43,0,0,0,10.69,10,6.29,6.29,0,0,0,9,10.09c-.45.08-.74.16-.74.16a8.83,8.83,0,0,0-2.15,1,5.56,5.56,0,0,0-1.23,1.07,1.44,1.44,0,0,0-.37.63s.21-.2.54-.48a6.92,6.92,0,0,1,1.28-.87A9,9,0,0,1,7.78,11l.68-.21.67-.19a6.8,6.8,0,0,1,1.53-.17A5.54,5.54,0,0,1,11.5,10.53Z"/><path class="cls-5" d="M13.33,10c0,.05-.32.13-.78.31A6.29,6.29,0,0,0,11,11.2a6.55,6.55,0,0,0-1.18,1.3c-.27.4-.42.68-.42.68s-.16.27-.36.71a6.71,6.71,0,0,0-.49,1.68,6.42,6.42,0,0,0,0,1.77,3.45,3.45,0,0,1,.13.83,2.17,2.17,0,0,1-.37-.77,5.5,5.5,0,0,1-.23-1.87,6.75,6.75,0,0,1,.4-1.86,5,5,0,0,1,.35-.8,5.08,5.08,0,0,1,.49-.71,6.72,6.72,0,0,1,1.38-1.31,5.37,5.37,0,0,1,1.72-.78A2,2,0,0,1,13.33,10Z"/><path class="cls-5" d="M15,15.92a5,5,0,0,1,.29-1.12c.23-.65.54-1.51.86-2.37a18.85,18.85,0,0,0,.69-2.37c.06-.33.1-.61.13-.8S17,9,17,9s0-.1,0-.29a3.35,3.35,0,0,0,0-.78c0-.3-.14-.68-.35-.79s-.67.06-1,.31A7.2,7.2,0,0,0,14,9.19c-.39.56-.53,1-.58,1a5.36,5.36,0,0,1,2-3.11,2.77,2.77,0,0,1,.64-.4l.39-.1a1.07,1.07,0,0,1,.44.07,1.45,1.45,0,0,1,.72,1.18,3.51,3.51,0,0,1,0,.88V9a1.81,1.81,0,0,1,0,.32c0,.21-.1.5-.17.84a16.8,16.8,0,0,1-.85,2.41c-.36.85-.76,1.68-1,2.3A4.61,4.61,0,0,1,15,15.92Z"/><path class="cls-5" d="M6,.69a1.84,1.84,0,0,0-.9-.08A2.31,2.31,0,0,0,3.9,2.12a4.55,4.55,0,0,0-.23,1.07,4.72,4.72,0,0,0-.07,1,4.63,4.63,0,0,0,0,.93s0,.1,0,.26A4.31,4.31,0,0,0,3.75,6,10.77,10.77,0,0,0,4.3,8a12.63,12.63,0,0,0,.94,1.88c.33.48.54.81.5.84s-.3-.25-.7-.7A10.44,10.44,0,0,1,3.89,8.2a10.84,10.84,0,0,1-.71-2.07,5.91,5.91,0,0,1-.12-.72c0-.17,0-.28,0-.28a4.45,4.45,0,0,1,0-1,4.4,4.4,0,0,1,.13-1A4.9,4.9,0,0,1,3.49,2,2.5,2.5,0,0,1,5,.37,1,1,0,0,1,6,.69Z"/><path class="cls-5" d="M13.68,5.81a6.55,6.55,0,0,1-.12-1.22A10.48,10.48,0,0,0,13.15,2,2.06,2.06,0,0,0,12.46.91c-.34-.24-.59-.23-.79,0a3,3,0,0,0-.57.93l-.13.3c0,.1-.09.22-.15.35l0,.11,0,.1c0,.08-.05.16-.07.25a18.54,18.54,0,0,0-.58,2.6,10.88,10.88,0,0,0-.17,2.64c0,.18,0,.35.05.5s.06.26.09.36.07.33,0,.34S10,9.28,10,9.08s-.1-.23-.16-.37-.06-.32-.1-.5a9.53,9.53,0,0,1,0-2.74,18.83,18.83,0,0,1,.46-2.7c0-.09.05-.17.07-.26a.63.63,0,0,1,0-.14l0-.11c.06-.14.1-.26.14-.37l.13-.32.16-.32a2.51,2.51,0,0,1,.6-.79A1.05,1.05,0,0,1,12,.18a1.28,1.28,0,0,1,.76.32,2.54,2.54,0,0,1,.79,1.34,9.47,9.47,0,0,1,.24,2.74A5.27,5.27,0,0,1,13.68,5.81Z"/><path class="cls-5" d="M8.75,2.6c-.06,0-.21-.36-.61-.81a5.83,5.83,0,0,0-.69-.74,1.77,1.77,0,0,0-.9-.48c-.3,0-.54.24-.64.52a3,3,0,0,0-.09,1c0,.61.08,1,.08,1s0,.44.08,1.06c0,.31,0,.68.09,1.07s.12.8.19,1.22c.3,1.65.71,3.31.63,3.33a18.1,18.1,0,0,1-1-3.23c-.09-.42-.17-.85-.26-1.24s-.1-.78-.15-1.1c-.08-.65-.11-1.06-.11-1.06a9.87,9.87,0,0,1,0-1.08A3.57,3.57,0,0,1,5.48.9,1.45,1.45,0,0,1,5.9.32.87.87,0,0,1,6.58.13,2,2,0,0,1,7.65.79a4.78,4.78,0,0,1,.66.85,3,3,0,0,1,.36.68C8.74,2.49,8.77,2.59,8.75,2.6Z"/><path class="cls-5" d="M3.45,12.62a5.66,5.66,0,0,1-1.63-1.49A13.16,13.16,0,0,1,.93,9.87L.6,9.25.52,9.07a3.67,3.67,0,0,1-.19-.48A8.17,8.17,0,0,1,0,7.07,2.6,2.6,0,0,1,.23,5.5c.27-.44.67-.36.64-.33s-.3.08-.42.44A2.72,2.72,0,0,0,.46,7,9.88,9.88,0,0,0,.88,8.4a3.63,3.63,0,0,0,.2.43L1.17,9l.26.6c.2.35.44.83.74,1.28C2.75,11.77,3.52,12.54,3.45,12.62Z"/><path class="cls-6" d="M36.38,53.22a19.65,19.65,0,0,0-2.23-1.91c-4-2.94-7-7-9.81-11.23-5.74-8.67-8.88-23-8.88-23a15.71,15.71,0,0,1-11,5.41s6.22,18.54,11.5,27A71.28,71.28,0,0,0,30.17,65.7c1.61,1.37,5.34,5.09,7.64,4.34,2.66-.86,2.76-6.16,2.57-8.4A13.17,13.17,0,0,0,36.38,53.22Z"/><g class="cls-16"><path class="cls-11" d="M9.83,21.16a124.4,124.4,0,0,0,7.6,17.94c4,7.47,9.1,17.8,17.16,21.1,2.44,1,4.22-.39,4.89-2.36a12.74,12.74,0,0,1,.9,3.8c.19,2.24.09,7.54-2.57,8.4-2.3.75-6-3-7.64-4.34A71.28,71.28,0,0,1,15.92,49.49c-5.28-8.47-11.5-27-11.5-27A17.44,17.44,0,0,0,9.83,21.16Z"/></g><path class="cls-8" d="M38.39,69.9A4.69,4.69,0,0,0,39,68.74,16.8,16.8,0,0,0,40,66a18.62,18.62,0,0,0,.5-2.92c.06-.81.07-1.35.07-1.35s0-.54-.1-1.35a14.19,14.19,0,0,0-.62-2.9,11.11,11.11,0,0,0-1.29-2.63,4.71,4.71,0,0,0-.84-1A10.53,10.53,0,0,0,38.39,55a13.2,13.2,0,0,1,1.1,2.64A15.36,15.36,0,0,1,40,60.41c0,.78,0,1.31,0,1.31a19.61,19.61,0,0,1-.39,4.16,21.49,21.49,0,0,1-.8,2.77A8.84,8.84,0,0,0,38.39,69.9Z"/><path class="cls-17" d="M45.44,22.62c-3.76-.23-7.44-1.1-10-4.51A7.6,7.6,0,0,0,36.6,20s1.23,5,2,7.12a3.71,3.71,0,0,1,2.86,1.21,3.62,3.62,0,0,1,1.29,2.42L45.2,30l-1.44-6.15A6.21,6.21,0,0,0,45.44,22.62Z"/><path class="cls-3" d="M66.73,21.82s3-2.81,4-.27.68,9.32-2,8.05S66.73,21.82,66.73,21.82Z"/><path class="cls-4" d="M66.73,21.82A7,7,0,0,1,68,20.91,1.42,1.42,0,0,1,69.29,22c.76,1.9.76,6.21-.42,7.7l-.16-.07C66,28.34,66.73,21.82,66.73,21.82Z"/><path class="cls-5" d="M69.19,28.77A12.09,12.09,0,0,1,68.67,27a7.72,7.72,0,0,1-.11-1.83s0-.23,0-.57a6.07,6.07,0,0,1,.29-1.22,3.94,3.94,0,0,1,.63-1.08c.23-.26.41-.41.39-.43a1.75,1.75,0,0,0-.48.35,3.65,3.65,0,0,0-.74,1.08,5.27,5.27,0,0,0-.37,1.26c0,.36-.07.6-.07.6a7.84,7.84,0,0,0,.2,1.88A4.71,4.71,0,0,0,69.19,28.77Z"/><path class="cls-5" d="M70.18,27.46a1.82,1.82,0,0,0-.06-.79,4.15,4.15,0,0,0-.15-.52l-.11-.23a.92.92,0,0,0-.14-.22,2.33,2.33,0,0,0-.16-.2l-.22-.2a1.19,1.19,0,0,0-.74-.3c0,.05.35.19.59.46l.17.2a1.51,1.51,0,0,1,.12.2.82.82,0,0,1,.11.2s0,.08.11.2.14.3.21.47A4.37,4.37,0,0,0,70.18,27.46Z"/><path class="cls-3" d="M53.2,7.58s8.13.58,10.89,5.44,3.23,13.13,3.23,13.13a27.07,27.07,0,0,1,.8,8.17,5.15,5.15,0,0,1-1.84,4.27c-2,1.59-5.24,1.7-7.83,2.18-1.54.95.11,2.4-.36,4-3.62,2.24-7,1.24-9.66-.28-1.7-1-1.32-5.71-4.46-8.2A1.48,1.48,0,0,1,43.7,36s-4.4,2.39-7.26-1-2.25-9.16,3.34-7.59C39.78,27.35,35.7,9.8,53.2,7.58Z"/><g class="cls-18"><path class="cls-5" d="M40.75,30.93c1.11,1.43,1.1,3.28,0,4.13s-2.13.18-3.24-1.25-1.86-3.09-.75-3.94S39.66,29.49,40.75,30.93Z"/></g><path class="cls-5" d="M41.08,31.35a4.41,4.41,0,0,0-.41-.56,4.83,4.83,0,0,0-.5-.46,4.44,4.44,0,0,0-1.3-.74,3.05,3.05,0,0,0-1.48-.17,1.25,1.25,0,0,0-.63.24s.27-.05.65-.06a3,3,0,0,1,1.34.29,4.5,4.5,0,0,1,1.15.76,3.47,3.47,0,0,1,.43.45,5.32,5.32,0,0,1,.41.48l.09.14h0a1.56,1.56,0,0,0-.77-.09,1.68,1.68,0,0,0-.73.31,1.24,1.24,0,0,0-.2.18.36.36,0,0,0-.07.07l-.06.08a1.63,1.63,0,0,0-.13.24,1.52,1.52,0,0,0-.13.79A1.43,1.43,0,0,0,39,34c.14.16.25.24.27.22s0-.14-.11-.31a1.46,1.46,0,0,1-.11-.64,1.37,1.37,0,0,1,.18-.59c.09-.14.17-.22.17-.23l.05,0a.62.62,0,0,1,.14-.15,1.32,1.32,0,0,1,.53-.32,1.49,1.49,0,0,1,.65-.06l.17,0a3.87,3.87,0,0,1,.38.9,3,3,0,0,1,.09.73,2.38,2.38,0,0,1-.1.63c-.1.37-.24.6-.21.62s.21-.18.38-.56a2.4,2.4,0,0,0,.18-.68,2.78,2.78,0,0,0,0-.81A3.66,3.66,0,0,0,41.08,31.35Z"/><g class="cls-18"><path class="cls-5" d="M61.47,28.47a1.51,1.51,0,0,1-1.63,1.19,1.26,1.26,0,0,1-1.37-1.3s-1.12,1.22-1,1.74S63,31.65,61.47,28.47Z"/></g><path class="cls-5" d="M57.45,30s.1-.17.25-.41a3.14,3.14,0,0,1,.66-.74,3.41,3.41,0,0,1,.85-.51,2.12,2.12,0,0,1,.42-.13l.11,0,.3-.06a1.22,1.22,0,0,1,.86.21,1.5,1.5,0,0,1,.51.78c.08.27.1.46.14.46s.06-.2,0-.49a1.6,1.6,0,0,0-.48-1,1.37,1.37,0,0,0-.55-.31,1.78,1.78,0,0,0-.54-.07,3.07,3.07,0,0,0-.38,0l-.14,0a3,3,0,0,0-.47.2,3.18,3.18,0,0,0-.9.65,2.91,2.91,0,0,0-.6.91C57.43,29.77,57.42,30,57.45,30Z"/><path class="cls-4" d="M64.67,14.15c-.18-.38-.37-.76-.58-1.13C61.33,8.16,53.2,7.58,53.2,7.58,35.7,9.8,39.78,27.35,39.78,27.35l-.33-.08c.09.27.17.53.25.75a3.74,3.74,0,0,1,2.86,1.22c1.35,1.39.17,1.52.17,1.52L45.84,30l-1-5.26s4.07-1.73,4-7.36A30.56,30.56,0,0,0,60.43,15,13.3,13.3,0,0,0,64.67,14.15Z"/><path class="cls-19" d="M36.6,20s1.23,5,2,7.12a3.71,3.71,0,0,1,2.86,1.21,8.14,8.14,0,0,1,1.83,3.14l2.42-.5-1.38-7.17s3.52-1.71,3.49-7.34A30.6,30.6,0,0,0,59.31,14.1,13,13,0,0,0,64.09,13s2,3.57,2.08,6.12a23.23,23.23,0,0,0,1,5.85l1.08-1-.8-3.45a6.53,6.53,0,0,0-1.11-7.67s6.1-3.49-.41-9.93a10.88,10.88,0,0,1-8.14,1.92C53.08,4,39,4.24,38.05,11.5,38.05,11.5,32.28,14.86,36.6,20Z"/><path class="cls-17" d="M66,3c-3.76,6-11.44,9.8-18.44,7.74a7,7,0,0,1-.91-.33,5.26,5.26,0,0,1-4-4.13C40.18,7.39,38.35,9,38.05,11.5a7.91,7.91,0,0,0-1.29,1,28.09,28.09,0,0,0,11,5.12,8.65,8.65,0,0,0,.06-1.16A30.6,30.6,0,0,0,59.31,14.1,13,13,0,0,0,64.09,13s2,3.57,2.08,6.12a23.23,23.23,0,0,0,1,5.85l1.08-1-.8-3.45a6.53,6.53,0,0,0-1.11-7.67S72.38,9.43,66,3Z"/><path class="cls-17" d="M42.27,20.41c-3.18.8-5,0-5.81-.58l.14.18s1.23,5,2,7.12a3.71,3.71,0,0,1,2.86,1.21,8.14,8.14,0,0,1,1.83,3.14l2.42-.5-.5-2.59-1.43-4.56s4.07-1.73,4-7.36C47.8,16.47,47.08,19.2,42.27,20.41Z"/><path class="cls-17" d="M66.17,19.14a23.23,23.23,0,0,0,1,5.85l1.08-1-.8-3.45a6.54,6.54,0,0,0-1.08-7.65,3.38,3.38,0,0,1-2.27.1S66.06,16.59,66.17,19.14Z"/><path class="cls-20" d="M63,10.72A11.57,11.57,0,0,0,64.25,9,10.07,10.07,0,0,0,65,7.33c.09-.26.15-.49.21-.71s.09-.39.12-.55a1.64,1.64,0,0,0,.05-.49c-.05,0-.16.7-.56,1.68A10.15,10.15,0,0,1,64,8.86a11.86,11.86,0,0,1-1.25,1.64,15.47,15.47,0,0,1-3,2.44c-.89.56-1.53.87-1.53.87s-.61.34-1.58.76A23.55,23.55,0,0,1,53,15.78a20.67,20.67,0,0,1-3.83.57c-1.06.06-1.77,0-1.77,0a1.5,1.5,0,0,0,.48.08,10.75,10.75,0,0,0,1.3.07,19.54,19.54,0,0,0,3.9-.43A22.23,22.23,0,0,0,56.85,15a17.33,17.33,0,0,0,1.63-.74A15.29,15.29,0,0,0,60,13.31,15.1,15.1,0,0,0,63,10.72Z"/><path class="cls-20" d="M64.12,12.56l.21-.15.19-.19a6.12,6.12,0,0,0,.48-.5A7.53,7.53,0,0,0,66.17,10a9,9,0,0,0,.69-2A3.69,3.69,0,0,0,67,7.07a5.38,5.38,0,0,0-.29.89,10.84,10.84,0,0,1-.81,1.86,7.65,7.65,0,0,1-1.19,1.6,6.19,6.19,0,0,1-.48.46L64,12l-.2.16a5.32,5.32,0,0,1-.52.39,8.91,8.91,0,0,1-1.76,1,29.35,29.35,0,0,1-2.84.83,3.38,3.38,0,0,0,.94-.05,10.45,10.45,0,0,0,2-.47,8.24,8.24,0,0,0,1.88-.9A5.53,5.53,0,0,0,64.12,12.56Z"/><path class="cls-20" d="M68.39,6c-.08,0,.09,1.29-.09,2.53a6.19,6.19,0,0,1-.42,1.65,4,4,0,0,1-.24.5l-.1.18-.11.18a4.11,4.11,0,0,1-.32.44,4,4,0,0,1-1.29,1.05,7.1,7.1,0,0,1-1.6.6,3.29,3.29,0,0,0-.78.19,2.78,2.78,0,0,0,.81,0A5.55,5.55,0,0,0,66,12.85a4.37,4.37,0,0,0,1.48-1.06,3.48,3.48,0,0,0,.37-.48,2.07,2.07,0,0,0,.13-.19l.1-.2a3.11,3.11,0,0,0,.24-.56,6,6,0,0,0,.35-1.77A7.2,7.2,0,0,0,68.39,6Z"/><path class="cls-20" d="M38.53,10.44A4.39,4.39,0,0,1,39,9.32a4.91,4.91,0,0,1,.87-1.08,7.89,7.89,0,0,1,2.22-1.4c.66-.28,1.12-.43,1.12-.43s.45-.17,1.16-.38S46,5.6,47,5.42s1.93-.33,2.66-.44a7.79,7.79,0,0,0,1.21-.22,5.32,5.32,0,0,0-1.23,0c-.74,0-1.72.14-2.7.28a24.69,24.69,0,0,0-2.67.53c-.73.18-1.2.35-1.2.35a12.35,12.35,0,0,0-1.15.48A8.22,8.22,0,0,0,39.65,8a5.23,5.23,0,0,0-.88,1.19,4.37,4.37,0,0,0-.42,1.21,3.34,3.34,0,0,0-.06.51,1.75,1.75,0,0,0,0,.39c0,.22,0,.34,0,.34S38.35,11.14,38.53,10.44Z"/><path class="cls-20" d="M61,5.84l.91-.29a13.18,13.18,0,0,0,1.91-.83A7.63,7.63,0,0,0,65.5,3.53a3,3,0,0,0,.62-.71,5.77,5.77,0,0,0-.74.57,9.52,9.52,0,0,1-1.74,1,13.55,13.55,0,0,1-1.9.71l-.89.24A24.3,24.3,0,0,1,58,6c-1.47.23-3,.29-3,.36a12.94,12.94,0,0,0,3,0A24.52,24.52,0,0,0,61,5.84Z"/><path class="cls-20" d="M41.26,10l.28-.31a10.92,10.92,0,0,1,1-1c.49-.48,1.06-.88,1-.94a3.41,3.41,0,0,0-1.25.68,8.62,8.62,0,0,0-1.08.93l-.28.35a5.79,5.79,0,0,0-.5.85,3.08,3.08,0,0,0-.29.95.77.77,0,0,0,0,.45s.07-.17.16-.41a4.13,4.13,0,0,1,.4-.83A7.23,7.23,0,0,1,41.26,10Z"/><path class="cls-20" d="M42.13,11.49A6.3,6.3,0,0,1,43.32,10,8.07,8.07,0,0,1,44.9,8.85c.48-.24.8-.38.8-.38l.22-.1c.15-.06.34-.16.6-.25a16.11,16.11,0,0,1,1.87-.59c1.4-.34,2.85-.44,2.85-.51a10.26,10.26,0,0,0-2.92.18,15.22,15.22,0,0,0-2,.5,6.2,6.2,0,0,0-.63.24L45.5,8s-.33.16-.81.44a8,8,0,0,0-1.61,1.25A6,6,0,0,0,42,11.41a2.48,2.48,0,0,0-.24.88A6.82,6.82,0,0,0,42.13,11.49Z"/><path class="cls-20" d="M35.92,16.51s.07-.18.17-.42a5.17,5.17,0,0,1,.42-.86,7.08,7.08,0,0,1,.82-1.12l.28-.32a3.34,3.34,0,0,1,.71-.6,1.6,1.6,0,0,1,.85-.29c.25,0,.42,0,.44,0s0,0-.1-.08a1,1,0,0,0-.33-.11,1.62,1.62,0,0,0-1,.18,3.3,3.3,0,0,0-.86.58L37,13.8a6.3,6.3,0,0,0-.76,1.27,3.65,3.65,0,0,0-.3,1C35.86,16.32,35.89,16.51,35.92,16.51Z"/><path class="cls-20" d="M39.67,16.7a1.42,1.42,0,0,1,0-.36,5.68,5.68,0,0,1,.18-1.1,6.83,6.83,0,0,1,.4-1.05c.13-.28.25-.46.21-.49a1.41,1.41,0,0,0-.37.39,5.1,5.1,0,0,0-.56,1.05,5.38,5.38,0,0,0-.3,1.16,2.09,2.09,0,0,0,0,.4c0,.09,0,.15,0,.15a4.84,4.84,0,0,0,.07.56,2.59,2.59,0,0,0,.56,1.11,2,2,0,0,0,1.08.58,1.26,1.26,0,0,0,.55,0,1.69,1.69,0,0,0-.5-.17,2,2,0,0,1-.87-.62,2.16,2.16,0,0,1-.38-1c0-.3,0-.49,0-.49Z"/><path class="cls-20" d="M40.7,20.46s-.34.11-.84.21a3.46,3.46,0,0,1-.87,0,3.29,3.29,0,0,1-1-.23,4.25,4.25,0,0,1-1.5-1.05,5,5,0,0,1-.52-.66,4.47,4.47,0,0,1-.44-.71,4.74,4.74,0,0,1-.53-1.76,4.61,4.61,0,0,1,0-1,3.54,3.54,0,0,1,.24-.83c.21-.47.44-.74.41-.77a1.93,1.93,0,0,0-.57.69,3.42,3.42,0,0,0-.35.86,5.14,5.14,0,0,0-.11,1.06,5.07,5.07,0,0,0,.47,1.93,5.63,5.63,0,0,0,.44.8,5.79,5.79,0,0,0,.6.69,4.5,4.5,0,0,0,1.7,1.06A4,4,0,0,0,39,21a3.19,3.19,0,0,0,.92-.13A2.17,2.17,0,0,0,40.7,20.46Z"/><path class="cls-20" d="M47.5,18.71a8.45,8.45,0,0,1-.61,1.62,6.62,6.62,0,0,1-1,1.42,3.78,3.78,0,0,1-.39.4l-.15.15s-.22.21-.59.5a6.87,6.87,0,0,1-1.47.86,8.07,8.07,0,0,1-1.67.47,3.86,3.86,0,0,0-.78.14,2.34,2.34,0,0,0,.81,0A6.76,6.76,0,0,0,43.44,24a6.9,6.9,0,0,0,1.61-.81c.4-.29.65-.51.65-.51l.16-.17a5.31,5.31,0,0,0,.4-.45,6.63,6.63,0,0,0,.94-1.55,7.23,7.23,0,0,0,.48-1.73,2.52,2.52,0,0,0,0-.82A3.43,3.43,0,0,0,47.5,18.71Z"/><path class="cls-20" d="M67.49,14.58a5.39,5.39,0,0,0-.81-1.18,1.42,1.42,0,0,0-.5-.4s.15.21.35.52a5.57,5.57,0,0,1,.65,1.2,7.82,7.82,0,0,1,.4,1.3l.1.6s0,.06,0,.17,0,.26.06.44a6.3,6.3,0,0,1,0,1.35,4.28,4.28,0,0,1-.42,1.28c-.18.32-.34.52-.31.55s.23-.14.47-.46a3.53,3.53,0,0,0,.59-1.31,5.44,5.44,0,0,0,.15-1.43c0-.2,0-.36,0-.48s0-.18,0-.18-.05-.26-.15-.64A7.57,7.57,0,0,0,67.49,14.58Z"/><path class="cls-4" d="M58.45,40.77c2.59-.48,5.84-.59,7.83-2.18a5.15,5.15,0,0,0,1.84-4.27,18.11,18.11,0,0,0,0-3.68,16.1,16.1,0,0,1-.83,5.11C66,39,61,40.36,53.35,40.39s-9.26-4.93-9.26-4.93l0,.88c3.05,2.5,2.69,7.16,4.38,8.13a11.9,11.9,0,0,0,3.63,1.42c.75-1.82,1.83-3.74,3-3.65s2,1.54,2.52,2.82l.55-.31C58.56,43.17,56.91,41.72,58.45,40.77Z"/><path class="cls-19" d="M67.62,21.67l-1.26.1,0,.15,0-.14.79,8.53s-2.31-1.42-8.52-.16a26.58,26.58,0,0,0-9.79,3.91s-1.12-5.24-4.35-7.68l-5.88.81c1.23.39,4,2,4.33,4.39.44,3.38.19,3.86.19,3.86-.44,1,2.15,4.32,2.89,4.86a12,12,0,0,0,5.18,2.15c3.5.56,8.46-.28,11.85-1.16,7.12-1.85,7.36-4.69,6.88-8.37A69.67,69.67,0,0,0,67.62,21.67Z"/><path class="cls-17" d="M70,32.92a69.67,69.67,0,0,0-2.41-11.25l-1.26.1,0,.15,0-.14L67,27.1a6.22,6.22,0,0,1,1.48,6.62c-1.62,4.27-5.61,5.93-9.75,6.18-2.77.16-5.2.37-7.84-.78a9.24,9.24,0,0,1-4-3.84,9.75,9.75,0,0,1-1.4-3.89,3.85,3.85,0,0,1,1.06-3l-.4-.54,0,0c-.13-.17-.28-.33-.42-.49l0-.05c-.15-.15-.3-.31-.46-.45l0,0a5.17,5.17,0,0,0-.51-.42l-.72.1-4.65.64h-.09l-.28,0h-.14c1.23.39,4,2,4.33,4.39.44,3.38.19,3.86.19,3.86-.44,1,2.15,4.32,2.89,4.86a12,12,0,0,0,5.18,2.15c3.5.56,8.46-.28,11.85-1.16l.65-.18C70.28,39.26,70.49,36.49,70,32.92Z"/><path class="cls-19" d="M53.21,21.55s-.14,0-.29-.05a2.13,2.13,0,0,0-.53-.07,1.5,1.5,0,0,0-.5.08l-.21.08a2.38,2.38,0,0,0-.7.27c-.34.19-.59.53-.68.5s0-.51.36-.88a2.43,2.43,0,0,1,.81-.56,2.48,2.48,0,0,1,.31-.05,2.16,2.16,0,0,1,.69.07,1.45,1.45,0,0,1,.59.33C53.19,21.4,53.24,21.52,53.21,21.55Z"/><path class="cls-19" d="M64.64,20.22c-.1,0-.33-.27-.62-.42a1.41,1.41,0,0,0-.42-.13l-.19,0-.19,0a.44.44,0,0,0-.2,0,1.94,1.94,0,0,0-.24,0c-.34.05-.66.26-.74.19s.16-.44.56-.66c.1-.05.21-.08.31-.12A.88.88,0,0,1,63.2,19l.3,0a2,2,0,0,1,.28.1,1.43,1.43,0,0,1,.54.35C64.65,19.75,64.72,20.2,64.64,20.22Z"/><path class="cls-6" d="M62.71,28.05c.06,0,.09-.3,0-.73s-.12-1-.14-1.52a2.33,2.33,0,0,1,.31-1.24l.28-.29c0-.05.07,0,.08-.06a1,1,0,0,1,.45-.21,1.73,1.73,0,0,1,1.18.33c.88.56,1.57,1.49,1.68,1.41a3.64,3.64,0,0,0-1.29-1.95,2.4,2.4,0,0,0-1.67-.65,2.08,2.08,0,0,0-.65.17l-.21.11-.05,0a.47.47,0,0,0-.17.15l-.37.5A2.81,2.81,0,0,0,62,25.87a9.17,9.17,0,0,0,.45,1.53C62.54,27.79,62.64,28.06,62.71,28.05Z"/><path class="cls-6" d="M54.83,29.62c.06,0,0-.34-.09-.79a7.79,7.79,0,0,0-.51-1.68A2.87,2.87,0,0,0,53,25.71l-.35-.16-.16-.07h-.18a1.48,1.48,0,0,0-.28,0l-.28.06a1.82,1.82,0,0,0-.64.34,3.41,3.41,0,0,0-1,1.6A4.41,4.41,0,0,0,49.78,30c.12,0,.34-1.21.88-2.26a3,3,0,0,1,.92-1.16,1.15,1.15,0,0,1,.49-.17h.15s.18.05.37.1a2.21,2.21,0,0,1,1,1,13.78,13.78,0,0,1,.75,1.48C54.6,29.37,54.77,29.64,54.83,29.62Z"/><path class="cls-6" d="M62.24,31c-.21.4-2.47,1.81-5.81,1.17,0,0,1.35,3.12,4,3.33S62.24,31,62.24,31Z"/><path class="cls-5" d="M55.93,31.82s0,.05.13.11a2.09,2.09,0,0,0,.4.2,4.09,4.09,0,0,0,1.32.29,7.07,7.07,0,0,0,1.95-.15,7.2,7.2,0,0,0,1.83-.73,4,4,0,0,0,1.06-.83,2.07,2.07,0,0,0,.27-.35c.06-.09.08-.15.07-.15s-.16.18-.42.42a4.48,4.48,0,0,1-1.09.72,7.75,7.75,0,0,1-1.79.61,7.28,7.28,0,0,1-1.87.24A4.77,4.77,0,0,1,56.5,32,5.94,5.94,0,0,0,55.93,31.82Z"/><path class="cls-5" d="M60,36.22a1.63,1.63,0,0,0,1.56.36l.3-.11a1.63,1.63,0,0,0,.66-.75,1.27,1.27,0,0,0,.14-.66c0-.19-.1-.29-.12-.29a1.51,1.51,0,0,1-.22.85,1.46,1.46,0,0,1-.62.58,1.78,1.78,0,0,1-.81.21C60.41,36.39,60,36.17,60,36.22Z"/></g></g></g></svg>