<!DOCTYPE svg PUBLIC "-//W3C//DTD SVG 1.1//EN" "http://www.w3.org/Graphics/SVG/1.1/DTD/svg11.dtd">
<!-- Uploaded to: SVG Repo, www.svgrepo.com, Transformed by: SVG Repo Mixer Tools -->
<svg width="174px" height="174px" viewBox="-15.36 -15.36 62.72 62.72" enable-background="new 0 0 32 32" version="1.1" xml:space="preserve" xmlns="http://www.w3.org/2000/svg" xmlns:xlink="http://www.w3.org/1999/xlink" fill="#000000">
<g id="SVGRepo_bgCarrier" stroke-width="0">
<path transform="translate(-15.36, -15.36), scale(1.96)" d="M16,28.53522248286754C19.14000916515609,28.04135887666302,21.937421551832983,26.40794628122843,23.937351023877046,23.937351023877046C25.73371701740519,21.71822611666623,25.871986984149686,18.84178078629887,26.14717437326908,16C26.469574063682114,12.670671397202169,27.696711870048812,8.997988046433319,25.639419537873263,6.360580462126739C23.463108659678486,3.5705934844909155,19.53014352235783,2.7497755452166133,16,2.9915255927480757C12.687166311147921,3.2183939046655743,9.735325065304345,5.056421894090597,7.59620924553642,7.596209245536416C5.635621249106668,9.924029248882006,5.434038142876069,12.981672763162578,5.043715262319893,15.999999999999998C4.55929248125663,19.745992220964204,2.614125976123056,24.056153620506706,5.0998725807713665,26.900127419228628C7.613397490087426,29.77588272395775,12.226987254564003,29.128645489842746,16,28.53522248286754" fill="#fff9b3" strokewidth="0"/>
</g>
<g id="SVGRepo_tracerCarrier" stroke-linecap="round" stroke-linejoin="round"/>
<g id="SVGRepo_iconCarrier"> <g id="Files_Folder40"/> <g id="Files_Folder39"/> <g id="Files_Folder38"/> <g id="Files_Folder37"/> <g id="Files_Folder36"/> <g id="Files_Folder35"/> <g id="Files_Folder34"/> <g id="Files_Folder33"/> <g id="Files_Folder32"/> <g id="Files_Folder31"/> <g id="Files_Folder30"/> <g id="Files_Folder29"/> <g id="Files_Folder28"/> <g id="Files_Folder27"/> <g id="Files_Folder26"/> <g id="Files_Folder25"/> <g id="Files_Folder24"/> <g id="Files_Folder23"/> <g id="Files_Folder22"/> <g id="Files_Folder21"/> <g id="Files_Folder20"/> <g id="Files_Folder19"/> <g id="Files_Folder18"/> <g id="Files_Folder17"> <g> <g> <path d="M27,9v4c0,0.55-0.45,1-1,1H6c-0.55,0-1-0.45-1-1V2c0-0.55,0.45-1,1-1h14c0.29,0,0.57,0.13,0.76,0.35l6,7 C26.91,8.53,27,8.76,27,9z" fill="#FFC10A"/> <path d="M27,21v9c0,0.55-0.45,1-1,1H6c-0.55,0-1-0.45-1-1v-9c0-0.55,0.45-1,1-1h20C26.55,20,27,20.45,27,21z" fill="#FFC10A"/> </g> </g> <g> <path d="M29,13v8c0,0.55-0.45,1-1,1H4c-0.55,0-1-0.45-1-1v-8c0-0.55,0.45-1,1-1h24C28.55,12,29,12.45,29,13z" fill="#FE9803"/> </g> </g> <g id="Files_Folder16"/> <g id="Files_Folder15"/> <g id="Files_Folder14"/> <g id="Files_Folder13"/> <g id="Files_Folder12"/> <g id="Files_Folder11"/> <g id="Files_Folder10"/> <g id="Files_Folder09"/> <g id="Files_Folder08"/> <g id="Files_Folder07"/> <g id="Files_Folder06"/> <g id="Files_Folder05"/> <g id="Files_Folder04"/> <g id="Files_Folder03"/> <g id="Files_Folder02"/> <g id="Files_Folder01"/> </g>
</svg>