<?xml version="1.0" encoding="utf-8"?>
<!-- Generator: Adobe Illustrator 25.2.1, SVG Export Plug-In . SVG Version: 6.00 Build 0)  -->
<svg version="1.1" xmlns="http://www.w3.org/2000/svg" xmlns:xlink="http://www.w3.org/1999/xlink" x="0px" y="0px"
	 viewBox="0 0 800 800" style="enable-background:new 0 0 800 800;" xml:space="preserve">
<style type="text/css">
	.st0{fill:#FFFFFF;}
	.st1{fill:#FF7700;}
</style>
<g id="Layer_2">
	<rect x="183" y="133" class="st0" width="442.5" height="442.5"/>
</g>
<g id="Layer_1">
	<g id="SVGRepo_bgCarrier">
	</g>
	<g id="SVGRepo_tracerCarrier">
	</g>
	<g id="SVGRepo_iconCarrier">
		<path class="st1" d="M600,66.7H200c-55.3,0-100,44.3-100,99v363.7c0,54.7,44.7,99,100,99h25.3c26.7,0,52,10.3,70.7,29l57,56.3
			c26,25.7,68.3,25.7,94.3,0l57-56.3c18.7-18.7,44.3-29,70.7-29h25c55.3,0,100-44.3,100-99V165.7C700,111,655.3,66.7,600,66.7z
			 M400,191.7c43,0,77.7,34.7,77.7,77.7S443,347,400,347s-77.7-35-77.7-77.7C322.3,226.3,357,191.7,400,191.7z M489.3,502H310.7
			c-27,0-42.7-30-27.7-52.3c22.7-33.7,66.7-56.3,117-56.3s94.3,22.7,117,56.3C532,472,516,502,489.3,502z"/>
	</g>
</g>
</svg>
