<!DOCTYPE svg PUBLIC "-//W3C//DTD SVG 1.1//EN" "http://www.w3.org/Graphics/SVG/1.1/DTD/svg11.dtd">
<!-- Uploaded to: SVG Repo, www.svgrepo.com, Transformed by: SVG Repo Mixer Tools -->
<svg height="800px" width="800px" version="1.1" id="Capa_1" xmlns="http://www.w3.org/2000/svg" xmlns:xlink="http://www.w3.org/1999/xlink" viewBox="0 0 268.353 268.353" xml:space="preserve" fill="#000000">
<g id="SVGRepo_bgCarrier" stroke-width="0"/>
<g id="SVGRepo_tracerCarrier" stroke-linecap="round" stroke-linejoin="round"/>
<g id="SVGRepo_iconCarrier"> <g> <path style="fill:#ffffff;" d="M183.084,41.859l-95.303,0.114c0,0-19.95,0.506-34.62,16.241c0,0-53.161,68.657-53.161,87.166 v67.118c0,14.294,14,13.935,14,13.935h222.702c9.013,0,23.35,0.936,27.989-4.542c2.116-2.491,3.66-6.315,3.66-12.184v-67.091 c0-18.525-51.704-83.876-51.704-83.876S202.997,41.859,183.084,41.859z M168.263,158.309c0,0,0,17.867-16.769,17.867h-35.082 c-5.836,0-9.671-1.398-12.184-3.334c-5.619-4.34-3.726-18.678-8.855-24.541c-4.971-5.684-12.521-5.684-12.521-5.684H47.826 c-9.013,0-12.771-6.385-8.392-14.261l29.942-53.874c0,0,9.04-15.904,17.851-15.741h80.623c9.013,0,20.891,2.339,25.21,6.81 c2.187,2.263,4.553,5.194,6.815,8.931l28.392,53.711c4.21,7.968,0.326,14.424-8.692,14.424h-34.538 C169.291,142.617,168.263,158.309,168.263,158.309z"/> <path style="fill:#ffffff;" d="M83.359,109.058h100.079c0.022,0,17.302,3.612,17.302,16.154H67.113 C67.113,125.212,67.113,109.058,83.359,109.058L83.359,109.058z"/> <path style="fill:#ffffff;" d="M100.128,75.516h67.629c0,0,16.769,3.601,16.769,16.149H83.881 C83.881,91.664,83.881,75.516,100.128,75.516L100.128,75.516z"/> </g> </g>
</svg>